<?xml version="1.0" encoding="utf-8"?>
<!-- Generator: Adobe Illustrator 16.0.0, SVG Export Plug-In . SVG Version: 6.00 Build 0)  -->
<!DOCTYPE svg PUBLIC "-//W3C//DTD SVG 1.1//EN" "http://www.w3.org/Graphics/SVG/1.1/DTD/svg11.dtd">
<svg version="1.1" id="svg1" xmlns="http://www.w3.org/2000/svg" xmlns:xlink="http://www.w3.org/1999/xlink" x="0px" y="0px"
	 width="1024px" height="768px" viewBox="0 0 1024 768" enable-background="new 0 0 1024 768" xml:space="preserve">
<g id="bg">
	<rect x="-7576.437" y="-6889.813" fill="#3498DB" width="16291.843" height="14783.959"/>
</g>
<path id="wire1" opacity="0.6" fill="none" stroke="#EFEFEF" stroke-miterlimit="10" enable-background="new    " d="M18.115-44.888
	C63.952,14.779,115.713,82.916,198.636,81.016c65.57-1.501,127.096-41.73,193.394-31.271
	c67.338,10.629,116.664,71.309,167.169,111.705c53.213,42.57,112.231,66.442,171.979,97.313
	c45.997,23.766,69.188,58.462,77.456,109.252c5.77,35.415-0.088,84.239,22.37,114.638c29.146,39.456,156.977,59.966,101.029,134.771
	c-53.021,70.908-150.769,81.889-210.563,115.771C705.355,742.33,683,759.5,670,768l-1.984,1.313"/>
<g id="intro">
	<g id="intro1">
		<text transform="matrix(1 0 0 1 30.7039 451.156)" fill="#ECF0F1" font-family="'Roboto-Thin'" font-size="30">I’m Lev Veshnyakov,</text>
		<text transform="matrix(1 0 0 1 30.7039 487.156)" fill="#ECF0F1" font-family="'Roboto-Thin'" font-size="30">a high-qualified full-stack web developer.</text>
	</g>
	<g id="intro2">
		<text transform="matrix(1 0 0 1 30.2039 537.6023)" fill="#F5F7FA" font-family="'Roboto-Thin'" font-size="30">Currently I work in St. Petersburg for Storverk, </text>
		<text transform="matrix(1 0 0 1 30.2039 573.6023)" fill="#F5F7FA" font-family="'Roboto-Thin'" font-size="30">a fresh and dynamic development company founded in 2014.</text>
	</g>
</g>
<g id="macbook">
	<path fill="#586273" d="M938.378,306.397L938.378,306.397C938.351,306.458,938.378,306.397,938.378,306.397z"/>
	<path opacity="0.8" fill="#2980B9" enable-background="new    " d="M969.267,279.006L627.089,123.152c0,0-8.188-3.73-11.923,4.46
		c-3.733,8.19,4.462,11.921,4.462,11.921l24.563,11.192c0,0-8.188-3.73-11.92,4.46c-4.688,10.271-4.656,10.22-77.521,170.179
		c-3.896,8.544,0.791,19.04,9.334,22.932l277.57,126.425c8.545,3.896,18.625,0.121,22.521-8.424c0,0,59.131-129.82,74.191-162.898
		l0,0c0.073-0.166,0.579-1.274,3.313-7.28c3.729-8.188-4.462-11.921-4.462-11.921l24.562,11.191c0,0,8.189,3.729,11.929-4.46
		C977.449,282.737,969.267,279.006,969.267,279.006z"/>
	<g>
		<path fill="#E6E9ED" d="M870.181,464.301c-3.896,8.545-13.974,12.313-22.521,8.424l-277.561-126.43
			c-8.543-3.892-13.229-14.388-9.334-22.932c0,0,73.783-161.988,77.521-170.179c3.729-8.191,11.922-4.46,11.922-4.46
			l293.031,133.471c0,0,8.188,3.73,4.459,11.921C943.964,302.307,870.181,464.301,870.181,464.301z"/>
		<path opacity="0.3" fill="#B7BFC7" enable-background="new    " d="M944.378,301.397l-364.201-20.582
			c0,0,54.371-119.439,58.104-127.63c3.729-8.191,11.92-4.46,11.92-4.46l293.035,133.471c0,0,8.188,3.73,4.461,11.921
			C943.964,302.308,944.378,301.397,944.378,301.397z"/>
		
			<rect x="713.902" y="215.035" transform="matrix(-0.91 -0.4145 0.4145 -0.91 1427.1354 748.7855)" fill="#DCE4E8" width="161.834" height="8.998"/>
		
			<radialGradient id="mbplight_1_" cx="1404.9124" cy="11847.9512" r="163.2139" gradientTransform="matrix(0.9118 0.4011 -0.0955 0.1842 637.2579 -2528.1677)" gradientUnits="userSpaceOnUse">
			<stop  offset="0.103" style="stop-color:#3498DB;stop-opacity:0.4"/>
			<stop  offset="0.7955" style="stop-color:#3498DB;stop-opacity:0.0565"/>
			<stop  offset="0.9095" style="stop-color:#3498DB;stop-opacity:0"/>
		</radialGradient>
		<polygon id="mbplight" display="none" fill="url(#mbplight_1_)" points="960.156,328.208 625.479,177.709 669.61,137.852 
			968.716,274.252 		"/>
		<path fill="#CCD1D9" d="M967.806,293.387L625.628,137.533c0,0-8.19-3.729-4.462-11.921c3.728-8.192,11.923-4.46,11.923-4.46
			l342.178,155.854c0,0,8.188,3.73,4.459,11.927C975.99,297.118,967.806,293.387,967.806,293.387z"/>
		
			<rect x="677.239" y="351.513" transform="matrix(-0.91 -0.4145 0.4145 -0.91 1227.0515 1015.2683)" display="none" fill="#F5F7FA" stroke="#CCD1D9" stroke-miterlimit="10" width="92.904" height="45.953"/>
		<g>
			
				<rect x="671.49" y="199.348" transform="matrix(-0.9101 -0.4145 0.4145 -0.9101 1214.6638 674.2875)" fill="#3B3B3B" stroke="#C1C1C1" stroke-miterlimit="10" width="18.007" height="12.004"/>
			
				<rect x="662.428" y="216.394" transform="matrix(-0.91 -0.4145 0.4145 -0.91 1189.2328 707.8662)" fill="#3B3B3B" stroke="#C1C1C1" stroke-miterlimit="10" width="17.995" height="16.995"/>
			
				<rect x="651.639" y="240.633" transform="matrix(-0.91 -0.4145 0.4145 -0.91 1169.6053 754.0628)" fill="#3B3B3B" stroke="#C1C1C1" stroke-miterlimit="10" width="29.966" height="18.981"/>
			
				<rect x="641.104" y="266.204" transform="matrix(-0.91 -0.4145 0.4145 -0.91 1151.7769 799.377)" fill="#3B3B3B" stroke="#C1C1C1" stroke-miterlimit="10" width="43.044" height="17.019"/>
			
				<rect x="684.386" y="226.587" transform="matrix(-0.9101 -0.4145 0.4145 -0.9101 1227.9178 736.6022)" fill="#3B3B3B" stroke="#C1C1C1" stroke-miterlimit="10" width="18.982" height="16.983"/>
			
				<rect x="684.889" y="253.265" transform="matrix(-0.91 -0.4146 0.4146 -0.91 1217.3317 789.7631)" fill="#3B3B3B" stroke="#C1C1C1" stroke-miterlimit="10" width="18.987" height="18.99"/>
			
				<rect x="686.675" y="281.479" transform="matrix(-0.9101 -0.4145 0.4145 -0.9101 1209.5337 842.4368)" fill="#3B3B3B" stroke="#C1C1C1" stroke-miterlimit="10" width="18.999" height="17"/>
			
				<rect x="708.774" y="291.307" transform="matrix(-0.9101 -0.4145 0.4145 -0.9101 1246.729 870.1474)" fill="#3B3B3B" stroke="#C1C1C1" stroke-miterlimit="10" width="17.996" height="17.002"/>
			
				<rect x="731.4" y="301.685" transform="matrix(-0.9101 -0.4145 0.4145 -0.9101 1285.656 899.3508)" fill="#3B3B3B" stroke="#C1C1C1" stroke-miterlimit="10" width="18.008" height="17.004"/>
			
				<rect x="753.343" y="311.556" transform="matrix(-0.91 -0.4146 0.4146 -0.91 1323.3811 927.3582)" fill="#3B3B3B" stroke="#C1C1C1" stroke-miterlimit="10" width="17.991" height="16.99"/>
			
				<rect x="776.024" y="321.964" transform="matrix(-0.9101 -0.4144 0.4144 -0.9101 1362.528 956.5507)" fill="#3B3B3B" stroke="#C1C1C1" stroke-miterlimit="10" width="18.011" height="17.013"/>
			
				<rect x="796.936" y="331.681" transform="matrix(-0.91 -0.4145 0.4145 -0.91 1399.3076 984.0772)" fill="#3B3B3B" stroke="#C1C1C1" stroke-miterlimit="10" width="19.016" height="17.015"/>
			
				<rect x="818.551" y="347.006" transform="matrix(-0.91 -0.4145 0.4145 -0.91 1457.1301 1027.2238)" fill="#3B3B3B" stroke="#C1C1C1" stroke-miterlimit="10" width="42.957" height="16.982"/>
			
				<rect x="707.645" y="263.461" transform="matrix(-0.9101 -0.4145 0.4145 -0.9101 1255.6919 818.3875)" fill="#3B3B3B" stroke="#C1C1C1" stroke-miterlimit="10" width="17.989" height="18.984"/>
			
				<rect x="729.464" y="273.681" transform="matrix(-0.91 -0.4145 0.4145 -0.91 1294.0685 847.202)" fill="#3B3B3B" stroke="#C1C1C1" stroke-miterlimit="10" width="19" height="19"/>
			
				<rect x="752.3" y="283.74" transform="matrix(-0.9101 -0.4144 0.4144 -0.9101 1332.6406 875.6132)" fill="#3B3B3B" stroke="#C1C1C1" stroke-miterlimit="10" width="18.009" height="19.01"/>
			
				<rect x="774.077" y="293.983" transform="matrix(-0.9101 -0.4145 0.4145 -0.9101 1370.8822 904.4318)" fill="#3B3B3B" stroke="#C1C1C1" stroke-miterlimit="10" width="18.988" height="18.988"/>
			
				<rect x="796.887" y="304.117" transform="matrix(-0.91 -0.4145 0.4145 -0.91 1409.278 933.0724)" fill="#3B3B3B" stroke="#C1C1C1" stroke-miterlimit="10" width="17.999" height="18.996"/>
			
				<rect x="818.672" y="314.239" transform="matrix(-0.91 -0.4146 0.4146 -0.91 1447.5676 961.6903)" fill="#3B3B3B" stroke="#C1C1C1" stroke-miterlimit="10" width="18.982" height="18.981"/>
			
				<rect x="840.979" y="326.866" transform="matrix(-0.91 -0.4145 0.4145 -0.91 1495.5502 997.2975)" fill="#3B3B3B" stroke="#C1C1C1" stroke-miterlimit="10" width="30.018" height="19.013"/>
			
				<rect x="707.032" y="236.955" transform="matrix(-0.9101 -0.4145 0.4145 -0.9101 1266.8873 765.7906)" fill="#3B3B3B" stroke="#C1C1C1" stroke-miterlimit="10" width="18.987" height="16.988"/>
			
				<rect x="729.06" y="246.734" transform="matrix(-0.9101 -0.4145 0.4145 -0.9101 1303.9382 793.4352)" fill="#3B3B3B" stroke="#C1C1C1" stroke-miterlimit="10" width="18" height="17.001"/>
			
				<rect x="751.765" y="257.044" transform="matrix(-0.91 -0.4146 0.4146 -0.91 1342.9919 822.5738)" fill="#3B3B3B" stroke="#C1C1C1" stroke-miterlimit="10" width="17.995" height="17"/>
			
				<rect x="773.662" y="266.992" transform="matrix(-0.9101 -0.4144 0.4144 -0.9101 1380.7988 850.5633)" fill="#3B3B3B" stroke="#C1C1C1" stroke-miterlimit="10" width="18.009" height="17.008"/>
			
				<rect x="796.338" y="277.371" transform="matrix(-0.9101 -0.4144 0.4144 -0.9101 1419.8103 879.791)" fill="#3B3B3B" stroke="#C1C1C1" stroke-miterlimit="10" width="18.011" height="17.011"/>
			
				<rect x="817.118" y="287.11" transform="matrix(-0.9101 -0.4144 0.4144 -0.9101 1456.4307 907.2051)" fill="#3B3B3B" stroke="#C1C1C1" stroke-miterlimit="10" width="19.013" height="17.013"/>
			
				<rect x="838.865" y="302.461" transform="matrix(-0.9101 -0.4145 0.4145 -0.9101 1514.4951 950.5919)" fill="#3B3B3B" stroke="#C1C1C1" stroke-miterlimit="10" width="43.046" height="17.021"/>
			
				<rect x="632.253" y="281.898" transform="matrix(-0.9101 -0.4145 0.4145 -0.9101 1104.0604 822.403)" fill="#3B3B3B" stroke="#C1C1C1" stroke-miterlimit="10" width="18.019" height="19.021"/>
			
				<rect x="654.063" y="292.067" transform="matrix(-0.91 -0.4145 0.4145 -0.91 1142.4293 851.0508)" fill="#3B3B3B" stroke="#C1C1C1" stroke-miterlimit="10" width="18.996" height="18.991"/>
			
				<rect id="spacebar" x="672.49" y="322.466" transform="matrix(-0.91 -0.4145 0.4145 -0.91 1257.5477 936.8282)" fill="#3B3B3B" stroke="#C1C1C1" stroke-miterlimit="10" width="115.881" height="18.979"/>
			
				<rect x="786.897" y="352.508" transform="matrix(-0.91 -0.4145 0.4145 -0.91 1371.1039 1021.5702)" fill="#3B3B3B" stroke="#C1C1C1" stroke-miterlimit="10" width="19.006" height="19.006"/>
			
				<rect x="809.695" y="362.813" transform="matrix(-0.9101 -0.4145 0.4145 -0.9101 1410.4153 1050.7017)" fill="#3B3B3B" stroke="#C1C1C1" stroke-miterlimit="10" width="19.023" height="19.02"/>
			
				<rect x="832.391" y="373.074" transform="matrix(-0.91 -0.4145 0.4145 -0.91 1448.5056 1079.5088)" fill="#3B3B3B" stroke="#C1C1C1" stroke-miterlimit="10" width="18.001" height="19.001"/>
			
				<rect x="693.307" y="209.476" transform="matrix(-0.91 -0.4145 0.4145 -0.91 1253.0929 702.8945)" fill="#3B3B3B" stroke="#C1C1C1" stroke-miterlimit="10" width="19.015" height="12.007"/>
			
				<rect x="715.952" y="219.757" transform="matrix(-0.9101 -0.4145 0.4145 -0.9101 1292.085 731.9047)" fill="#3B3B3B" stroke="#C1C1C1" stroke-miterlimit="10" width="19.006" height="12.004"/>
			
				<rect x="737.86" y="229.584" transform="matrix(-0.91 -0.4145 0.4145 -0.91 1328.8689 759.5581)" fill="#3B3B3B" stroke="#C1C1C1" stroke-miterlimit="10" width="17.992" height="11.992"/>
			
				<rect x="760.554" y="240.02" transform="matrix(-0.91 -0.4145 0.4145 -0.91 1367.8899 788.8945)" fill="#3B3B3B" stroke="#C1C1C1" stroke-miterlimit="10" width="17.989" height="11.991"/>
			
				<rect x="782.507" y="249.936" transform="matrix(-0.9101 -0.4144 0.4144 -0.9101 1405.7988 816.8676)" fill="#3B3B3B" stroke="#C1C1C1" stroke-miterlimit="10" width="18.007" height="12.004"/>
			
				<rect x="805.075" y="260.267" transform="matrix(-0.91 -0.4145 0.4145 -0.91 1444.5529 846.0441)" fill="#3B3B3B" stroke="#C1C1C1" stroke-miterlimit="10" width="18.013" height="12.009"/>
			
				<rect x="826.202" y="269.976" transform="matrix(-0.9101 -0.4145 0.4145 -0.9101 1481.8514 873.5321)" fill="#3B3B3B" stroke="#C1C1C1" stroke-miterlimit="10" width="19.009" height="12.01"/>
			
				<rect x="848.869" y="280.449" transform="matrix(-0.9101 -0.4144 0.4144 -0.9101 1520.8271 902.8748)" fill="#3B3B3B" stroke="#C1C1C1" stroke-miterlimit="10" width="18.99" height="11.996"/>
			
				<rect x="871.637" y="290.691" transform="matrix(-0.91 -0.4146 0.4146 -0.91 1559.0092 931.7847)" fill="#3B3B3B" stroke="#C1C1C1" stroke-miterlimit="10" width="17.991" height="11.999"/>
		</g>
	</g>
</g>
<g id="bevanda">
	<circle opacity="0.8" fill="#2980B9" enable-background="new    " cx="419.41" cy="136.903" r="50.582"/>
	<circle fill="#E6E9ED" cx="424.41" cy="134.903" r="50.582"/>
	<path fill="#E74C3C" d="M424.41,93.203c23.03,0,41.7,18.67,41.7,41.7s-18.67,41.7-41.7,41.7c-10.363,0-19.854-3.786-27.146-10.052
		c-8.897-7.647-14.547-18.989-14.547-31.648C382.717,111.873,401.387,93.203,424.41,93.203z"/>
	<path id="linecover1" fill="#E6E9ED" d="M424.41,92.203c23.59,0,42.7,19.118,42.7,42.7s-19.11,42.7-42.7,42.7
		c-10.613,0-20.335-3.877-27.805-10.293c-9.118-7.831-14.896-19.444-14.896-32.407C381.717,111.321,400.834,92.203,424.41,92.203z"
		/>
	
		<ellipse transform="matrix(0.993 0.1183 -0.1183 0.993 22.623 -47.3944)" fill="#D8D8DA" cx="410.557" cy="166.876" rx="11.57" ry="7.712"/>
	<polygon fill="#CCD1D9" points="361.239,157.128 402.066,164.068 401.641,167.644 360.323,164.782 	"/>
	
		<ellipse transform="matrix(0.993 0.1184 -0.1184 0.993 22.6511 -47.4362)" fill="#AAB2BD" cx="410.526" cy="166.902" rx="9.641" ry="6.425"/>
	<path fill="#FFFFFF" d="M397.135,92.046l9.688,12.484c1.604,2.068,1.229,5.048-0.838,6.654c-2.062,1.604-5.05,1.229-6.646-0.836
		l-9.692-12.484c-1.604-2.068-1.229-5.047,0.842-6.654C392.55,89.603,395.528,89.977,397.135,92.046z"/>
	<circle fill="#FFFFFF" cx="424.41" cy="134.903" r="34.776"/>
	<circle fill="#E6E7E8" cx="424.41" cy="134.903" r="31.298"/>
	<circle fill="#49433C" cx="424.41" cy="134.903" r="29.559"/>
	<path fill="#363532" d="M403.194,151.386c9.088,11.696,26.004,13.822,37.707,4.733c0.688-0.535,0.813-1.522,0.271-2.218
		c-0.537-0.688-1.521-0.813-2.229-0.278c-0.271,0.224-0.562,0.434-0.854,0.638c-0.073,0.056-0.148,0.105-0.229,0.166
		c-0.271,0.188-0.55,0.366-0.83,0.549c-0.09,0.057-0.188,0.104-0.271,0.167c-0.188,0.119-0.396,0.229-0.589,0.347
		c-0.142,0.075-0.271,0.15-0.396,0.222c-0.229,0.125-0.455,0.244-0.688,0.36c-0.188,0.09-0.354,0.176-0.539,0.261
		c-0.146,0.064-0.271,0.127-0.402,0.188c-0.174,0.076-0.342,0.146-0.512,0.223c-0.238,0.104-0.485,0.203-0.732,0.298
		c-0.162,0.063-0.317,0.12-0.479,0.184c-0.15,0.056-0.313,0.105-0.479,0.164c-0.146,0.05-0.303,0.1-0.438,0.146
		c-0.281,0.088-0.563,0.171-0.854,0.249c-0.104,0.029-0.205,0.054-0.312,0.081c-0.25,0.063-0.5,0.124-0.761,0.18
		c-0.074,0.021-0.153,0.036-0.23,0.06c-0.343,0.066-0.688,0.137-1.021,0.188c-0.021,0.002-0.037,0.006-0.062,0.008
		c-0.188,0.033-0.396,0.065-0.604,0.098c-0.146,0.021-0.304,0.037-0.444,0.054c-0.021,0.003-0.058,0.007-0.076,0.009
		c-0.738,0.085-1.484,0.136-2.229,0.147c-0.011,0-0.021,0-0.021,0c-0.73,0.013-1.479-0.012-2.207-0.064
		c-0.043-0.003-0.086-0.007-0.129-0.011c-0.34-0.028-0.687-0.063-1.021-0.104c-0.021-0.004-0.039-0.006-0.062-0.008
		c-0.313-0.042-0.643-0.09-0.949-0.143c-0.135-0.022-0.267-0.046-0.396-0.07c-0.181-0.034-0.354-0.063-0.527-0.104
		c-0.646-0.14-1.279-0.3-1.918-0.484c-0.011-0.002-0.021-0.005-0.021-0.007c-3.418-1.023-6.599-2.812-9.25-5.243
		c-0.021-0.015-0.028-0.03-0.058-0.044c-0.146-0.14-0.304-0.282-0.438-0.425c-0.121-0.118-0.237-0.238-0.354-0.358
		c-0.121-0.124-0.242-0.246-0.354-0.373c-0.196-0.215-0.396-0.435-0.604-0.657c-0.063-0.074-0.141-0.153-0.205-0.233
		c-0.229-0.271-0.45-0.54-0.67-0.819c-0.222-0.277-0.431-0.563-0.627-0.854c-0.063-0.086-0.121-0.174-0.188-0.259
		c-0.168-0.242-0.33-0.489-0.482-0.738c-0.102-0.147-0.188-0.295-0.271-0.442c-0.09-0.146-0.18-0.291-0.266-0.438
		c-0.104-0.184-0.201-0.357-0.308-0.538c-0.012-0.021-0.021-0.04-0.024-0.063c-1.693-3.179-2.646-6.691-2.789-10.259
		c0-0.009-0.002-0.019-0.002-0.024c-0.021-0.657-0.021-1.314,0.008-1.979c0.02-0.183,0.021-0.359,0.026-0.541
		c0.011-0.132,0.021-0.263,0.022-0.396c0.021-0.316,0.063-0.643,0.104-0.962c0.002-0.02,0.008-0.037,0.01-0.058
		c0.041-0.338,0.104-0.675,0.146-1.011c0.014-0.043,0.021-0.086,0.021-0.129c0.133-0.729,0.288-1.441,0.479-2.154
		c0.003-0.007,0.011-0.015,0.014-0.021c0.19-0.719,0.435-1.43,0.688-2.132c0.014-0.021,0.021-0.047,0.021-0.065
		c0.062-0.146,0.104-0.283,0.162-0.428c0.069-0.188,0.149-0.371,0.229-0.558c0.011-0.017,0.021-0.035,0.021-0.052
		c0.146-0.32,0.287-0.637,0.438-0.948c0.034-0.074,0.072-0.146,0.104-0.22c0.11-0.229,0.229-0.458,0.354-0.688
		c0.06-0.095,0.104-0.188,0.155-0.283c0.146-0.26,0.298-0.516,0.446-0.768c0.078-0.133,0.171-0.265,0.256-0.396
		c0.096-0.146,0.188-0.28,0.271-0.418c0.104-0.146,0.189-0.286,0.291-0.434c0.151-0.217,0.313-0.432,0.479-0.644
		c0.104-0.146,0.229-0.291,0.348-0.438c0.097-0.111,0.188-0.229,0.273-0.348c0.136-0.153,0.265-0.307,0.396-0.458
		c0.17-0.194,0.347-0.386,0.521-0.576c0.104-0.104,0.205-0.219,0.312-0.329c0.159-0.163,0.313-0.323,0.479-0.479
		c0.071-0.076,0.146-0.152,0.229-0.229c0.234-0.229,0.479-0.449,0.729-0.669c0.065-0.063,0.146-0.125,0.229-0.188
		c0.271-0.23,0.544-0.458,0.818-0.681c0.688-0.531,0.812-1.523,0.271-2.219c-0.529-0.688-1.521-0.813-2.218-0.276
		C396.231,122.77,394.104,139.685,403.194,151.386z"/>
	<path fill="#363532" d="M413.143,112.208c0.345,0.809,1.271,1.188,2.063,0.842c0.225-0.089,0.438-0.171,0.646-0.253
		c0.031-0.013,0.062-0.021,0.102-0.032c0.002-0.007,0.004-0.008,0.013-0.008c0.192-0.07,0.396-0.146,0.604-0.219
		c0.011-0.001,0.019-0.004,0.021-0.006c0.055-0.018,0.104-0.036,0.147-0.055c0.006,0,0.01-0.002,0.021-0.003
		c0.209-0.073,0.422-0.146,0.635-0.208c0.008-0.002,0.021-0.003,0.021-0.005c0.021-0.009,0.021-0.014,0.041-0.018
		c0.021-0.003,0.021-0.007,0.036-0.011c0.438-0.138,0.896-0.258,1.354-0.369c0.051-0.012,0.104-0.021,0.146-0.039
		c0.438-0.104,0.889-0.188,1.322-0.271c0.104-0.021,0.214-0.037,0.313-0.061c-0.063,0.016-0.123,0.021-0.188,0.029
		c0.063-0.011,0.125-0.021,0.188-0.029c-0.007,0-0.01,0-0.013,0c0.146-0.021,0.287-0.044,0.438-0.063
		c-0.011,0.001-0.021,0.001-0.021,0.001c0.058-0.008,0.104-0.021,0.146-0.023c0.005,0,0.005,0,0.012,0
		c-0.055,0.006-0.104,0.021-0.146,0.021c0.062-0.012,0.125-0.021,0.188-0.025c0.563-0.059,1.091,0.187,1.416,0.604
		c0.165,0.213,0.271,0.471,0.313,0.756c0.106,0.854-0.479,1.646-1.349,1.771c-0.002,0-0.002,0.001-0.004,0.001
		c-0.004,0-0.008,0.002-0.011,0.002c-1.323,0.187-2.622,0.493-3.886,0.93c-0.006,0.002-0.013,0.002-0.021,0.005
		c-0.021,0.006-0.035,0.013-0.062,0.019c-0.015,0.002-0.02,0.004-0.021,0.005c-0.42,0.146-0.829,0.311-1.23,0.479
		c-0.777,0.35-1.146,1.262-0.813,2.056c0.336,0.797,1.252,1.174,2.054,0.852c2.157-0.92,4.479-1.385,6.854-1.362
		c0.063,0,0.125,0,0.188,0c0.159,0.003,0.319,0.01,0.481,0.017c0.104,0.005,0.202,0.009,0.313,0.021
		c0.146,0.01,0.306,0.021,0.45,0.028c0.104,0.017,0.215,0.021,0.316,0.033c0.104,0.012,0.22,0.021,0.32,0.033
		c0.021,0.001,0.021,0.008,0.044,0.009c0.021,0.003,0.04,0.01,0.063,0.018c0.39,0.072,0.724,0.278,0.944,0.571
		c0.247,0.32,0.375,0.734,0.312,1.167c-0.104,0.866-0.896,1.479-1.768,1.371c-2.487-0.312-4.959,0.027-7.22,0.965l-0.104,0.05
		c-0.793,0.348-1.164,1.267-0.824,2.063c0.341,0.802,1.271,1.182,2.066,0.842c4.604-1.938,9.965-0.539,13.032,3.412
		c3.062,3.951,3.104,9.49,0.077,13.472c-0.523,0.695-0.396,1.688,0.307,2.219c0.688,0.521,1.674,0.394,2.203-0.289l0.178-0.229
		c1.403-1.922,2.313-4.181,2.61-6.604c0.104-0.865,0.896-1.479,1.769-1.371c0.438,0.055,0.813,0.274,1.063,0.6
		c0.229,0.292,0.353,0.666,0.313,1.063c-0.002,0.021,0,0.04-0.002,0.063c0,0.018,0.002,0.029,0,0.044
		c-0.019,0.11-0.029,0.219-0.051,0.326c-0.021,0.104-0.027,0.211-0.05,0.314c-0.021,0.146-0.061,0.301-0.075,0.445
		c-0.021,0.104-0.039,0.201-0.063,0.305c-0.027,0.155-0.063,0.313-0.104,0.477c-0.021,0.063-0.029,0.12-0.046,0.182
		c-0.569,2.307-1.604,4.439-3.021,6.311c-0.518,0.692-0.375,1.676,0.313,2.195c0.688,0.521,1.649,0.396,2.188-0.28
		c0.271-0.354,0.521-0.711,0.771-1.079c0.002-0.005,0.006-0.01,0.01-0.016c0.02-0.02,0.021-0.032,0.033-0.056
		c0.002-0.002,0.004-0.007,0.008-0.01c0.729-1.11,1.354-2.291,1.854-3.529c0-0.003,0.003-0.006,0.013-0.008
		c0-0.002,0.004-0.003,0.004-0.004c0.334-0.8,1.246-1.186,2.054-0.854c0.271,0.106,0.486,0.279,0.646,0.491
		c0.32,0.421,0.437,0.993,0.229,1.521c-0.021,0.051-0.038,0.104-0.063,0.147c-0.076,0.194-0.16,0.392-0.25,0.579
		c-0.039,0.096-0.076,0.188-0.121,0.276c-0.098,0.197-0.188,0.393-0.276,0.587c-0.039,0.082-0.078,0.165-0.119,0.247
		c-0.104,0.216-0.229,0.429-0.344,0.641c-0.029,0.063-0.063,0.119-0.104,0.179c-0.146,0.267-0.303,0.522-0.457,0.78
		c-0.015,0.021-0.021,0.033-0.021,0.053c-0.004,0.007-0.006,0.014-0.014,0.02c-0.12,0.2-0.25,0.396-0.385,0.595
		c-0.021,0.042-0.063,0.084-0.085,0.127c-0.004,0.007-0.009,0.013-0.015,0.02c-0.07,0.105-0.146,0.219-0.229,0.325
		c-0.058,0.068-0.104,0.146-0.146,0.216c-0.021,0.021-0.032,0.048-0.055,0.066c-0.146,0.189-0.271,0.382-0.409,0.566
		c-0.521,0.693-0.396,1.688,0.307,2.214c0.688,0.528,1.688,0.395,2.226-0.303c7.34-9.67,7.264-23.124-0.189-32.722
		c-7.446-9.597-20.471-13-31.646-8.279C413.182,110.476,412.805,111.403,413.143,112.208z M446.061,144.572
		c-0.027,0.078-0.063,0.156-0.104,0.233C445.99,144.728,446.026,144.65,446.061,144.572z M445.653,145.439
		c-0.035,0.063-0.063,0.136-0.104,0.203C445.586,145.575,445.615,145.506,445.653,145.439z M445.191,146.324
		c-0.021,0.045-0.055,0.092-0.074,0.138C445.143,146.417,445.16,146.369,445.191,146.324z M446.324,143.944
		c0.021-0.044,0.035-0.09,0.063-0.135c-0.005,0.012-0.011,0.021-0.021,0.037C446.357,143.879,446.344,143.911,446.324,143.944z"/>
	<path fill="#363532" d="M443.285,149.252c0.013-0.009,0.021-0.015,0.021-0.021c0.141-0.176,0.268-0.354,0.396-0.535
		C443.566,148.882,443.43,149.068,443.285,149.252z"/>
</g>
<g id="mouse">
	<path opacity="0.8" fill="#2980B9" enable-background="new    " d="M975.604,484.26c-0.004-0.003-0.016-0.015-0.02-0.017
		c-9.787-7.229-23.599-5.188-30.863,4.563c-0.033,0.043-0.066,0.081-0.104,0.119l-0.12,0.162l-24.63,33.294
		c-0.062,0.087-0.172,0.298-0.235,0.372l-1.271,1.764l0.006,0.011c-7.248,9.896-5.045,23.509,4.729,30.729
		c9.813,7.261,23.707,5.104,30.896-4.615l26.229-35.457C987.466,505.385,985.421,491.518,975.604,484.26z"/>
	<g>
		<g>
			<path fill="#CCD1D9" d="M950.519,488.136c-0.023,0.043-0.063,0.081-0.104,0.12l-0.112,0.161l-24.631,33.294
				c-0.063,0.087-0.119,0.182-0.189,0.258l-1.219,1.646l0.004,0.002c-7.316,10.061-5.1,23.624,4.675,30.854l52.45-70.896
				C971.589,476.343,957.791,478.385,950.519,488.136z"/>
			<path fill="#E6E9ED" d="M981.396,483.579c-0.01-0.003-0.021-0.008-0.021-0.011l-52.447,70.898
				c9.813,7.27,23.686,5.163,30.869-4.563l-0.086-0.063c-0.002-0.001-0.002-0.001-0.002-0.001s0,0,0.002,0.001l0.086,0.063
				l26.207-35.429C993.271,504.677,991.212,490.844,981.396,483.579z"/>
		</g>
	</g>
</g>
<g id="iphone">
	<path opacity="0.8" fill="#2980B9" enable-background="new    " d="M960.569,183.469l38.502-44.066
		c3.021-3.461,2.666-8.771-0.797-11.794l-88.143-77.004c-3.463-3.025-8.771-2.666-11.793,0.796l-38.5,44.063
		c-3.021,3.468-2.67,8.771,0.793,11.801l88.131,77.003C952.233,187.288,957.544,186.932,960.569,183.469z"/>
	<path fill="#434A54" d="M903.865,50.304l-38.5,44.063c-3.021,3.461-2.67,8.771,0.793,11.794l88.138,77.003
		c3.461,3.025,8.771,2.668,11.795-0.796l38.504-44.063c3.021-3.461,2.666-8.771-0.797-11.795l-88.136-77.008
		C912.198,46.485,906.896,46.844,903.865,50.304z"/>
	<path fill="#586273" d="M991.992,127.306l-38.5,44.063l-81.819-71.49c0-0.007,0-0.015,0-0.021l38.479-44.042
		c0.006-0.003,0.021-0.002,0.021-0.003L991.992,127.306z"/>
	
		<rect x="972.962" y="152.894" transform="matrix(-0.658 0.753 -0.753 -0.658 1740.2609 -480.4261)" fill="#434A54" width="12.537" height="4.175"/>
	<path fill="#F7F9F8" d="M871.673,99.859c0,0.007,0,0.015,0,0.021l81.819,71.492l38.5-44.063l-81.815-71.492
		c-0.009,0.001-0.021,0-0.021,0.003L871.673,99.859z"/>
	<path fill="#44C650" d="M935.56,94.342l-5.475-2.599c-0.57-0.271-1.519-0.283-2.095-0.021l-9.237,4.342
		c-0.01,0.002-0.015,0.005-0.019,0.007l-1.287-1.126c-0.396-2.214-1.729-4.557-3.854-6.419l-1.717-1.5
		c-3.028-2.647-7.521-2.466-10.021,0.4l0,0l0,0l0,0c-2.521,2.862-2.08,7.34,0.938,9.981l1.729,1.499
		c2.135,1.862,4.635,2.868,6.881,2.957l1.287,1.126c0,0.002-0.016,0.008-0.021,0.011l-3.063,9.745
		c-0.188,0.604-0.045,1.533,0.304,2.064l3.313,5.075c0.349,0.521,0.972,0.566,1.386,0.096l10.604-12.146l0,0L935.823,95.7
		C936.255,95.225,936.13,94.614,935.56,94.342z"/>
	
		<rect x="918.8" y="113.385" transform="matrix(-0.6579 0.7531 -0.7531 -0.6579 1641.772 -510.0482)" fill="#DCE4E8" width="35.866" height="8.97"/>
	
		<rect x="929.036" y="122.359" transform="matrix(-0.658 0.753 -0.753 -0.658 1665.5857 -502.7736)" fill="#DCE4E8" width="35.86" height="8.97"/>
	
		<rect x="947.934" y="131.257" transform="matrix(-0.658 0.753 -0.753 -0.658 1688.7507 -495.512)" fill="#DCE4E8" width="17.933" height="8.964"/>
	<circle fill="#586273" cx="937.946" cy="137.03" r="1.682"/>
	<circle fill="#586273" cx="943.847" cy="130.277" r="1.681"/>
	<circle fill="#586273" cx="940.896" cy="133.653" r="1.681"/>
	<path fill="#586273" d="M947.903,125.635c0.688,0.605,0.771,1.672,0.146,2.367c-0.604,0.699-1.683,0.771-2.373,0.16
		c-0.688-0.605-0.771-1.674-0.146-2.374C946.142,125.097,947.198,125.025,947.903,125.635z"/>
	<circle fill="#586273" cx="927.815" cy="128.179" r="1.681"/>
	<circle fill="#586273" cx="939.615" cy="114.674" r="1.681"/>
	<circle fill="#586273" cx="933.716" cy="121.427" r="1.681"/>
	<circle fill="#586273" cx="930.767" cy="124.804" r="1.681"/>
	<circle fill="#586273" cx="936.666" cy="118.051" r="1.682"/>
	
		<rect x="952.75" y="134.531" transform="matrix(-0.6578 0.7531 -0.7531 -0.6578 1689.2834 -495.675)" fill="#E74C3C" width="8.966" height="2.694"/>
	<path fill="none" d="M903.865,50.305l-29.883,34.212l113.553,73.266l17.06-19.475c3.021-3.461,2.666-8.771-0.797-11.795
		L915.658,49.51C912.198,46.485,906.896,46.844,903.865,50.305z"/>
</g>
<g id="matita1">
	<polygon opacity="0.8" fill="#2980B9" enable-background="new    " points="1117.845,319.321 1055.812,191.27 1050.479,193.855 
		1045.142,196.44 1107.175,324.49 1112.511,321.906 	"/>
	<polygon fill="#2980B9" points="1121.599,337.266 1117.845,319.321 1107.175,324.49 1118.931,338.561 1122.851,343.246 	"/>
	<g>
		<g>
			<polygon fill="#58585C" points="1116.608,320.809 1057.156,198.096 1054.573,192.76 1049.239,195.346 1111.274,323.395 			"/>
			<polygon fill="#58585C" points="1116.608,320.809 1121.944,318.227 1059.906,190.174 1054.573,192.76 1057.156,198.096 			"/>
		</g>
		<g>
			<polygon fill="#464E5C" points="1126.948,342.152 1125.696,336.17 1123.028,337.465 			"/>
			<polygon fill="#F7D39A" points="1125.696,336.17 1121.944,318.227 1111.274,323.395 1123.028,337.465 			"/>
		</g>
		<g>
			
				<rect x="1056.372" y="206.584" transform="matrix(0.8998 -0.4362 0.4362 0.8998 15.3112 484.3008)" fill="#DA4453" width="11.859" height="4.447"/>
		</g>
	</g>
</g>
<g id="foglio1">
	
		<rect x="-6.73" y="-5.895" transform="matrix(-0.9495 0.3137 -0.3137 -0.9495 173.7658 182.4523)" fill="#2980B9" width="157.866" height="222.203"/>
	<g>
		<g>
			<g>
				<g>
					
						<rect x="-36.767" y="26.945" transform="matrix(-0.3137 -0.9495 0.9495 -0.3137 -2.8756 209.675)" fill="#F7F9F8" width="222.208" height="157.863"/>
				</g>
			</g>
		</g>
		<g>
			
				<rect x="68.791" y="48.848" transform="matrix(-0.9495 0.3137 -0.3137 -0.9495 205.913 70.5584)" fill="#B7BFC7" width="56.977" height="5.997"/>
			
				<rect x="71.931" y="58.332" transform="matrix(-0.9495 0.3137 -0.3137 -0.9495 215.0093 88.0644)" fill="#DCE4E8" width="56.977" height="5.998"/>
			
				<rect x="75.069" y="67.832" transform="matrix(-0.9495 0.3137 -0.3137 -0.9495 224.1067 105.5998)" fill="#DCE4E8" width="56.976" height="5.998"/>
			
				<rect x="78.201" y="77.325" transform="matrix(-0.9495 0.3137 -0.3137 -0.9495 233.19 123.1268)" fill="#DCE4E8" width="56.975" height="6"/>
		</g>
		
			<rect x="-12.205" y="42.878" transform="matrix(-0.9495 0.3137 -0.3137 -0.9495 121.1542 72.2579)" fill="#DCE4E8" width="133.936" height="5.997"/>
		
			<rect x="-18.474" y="13.899" transform="matrix(-0.9495 0.3137 -0.3137 -0.9495 102.9719 37.212)" fill="#B7BFC7" width="133.933" height="25.985"/>
		<g>
			
				<rect x="9.126" y="107.445" transform="matrix(-0.9495 0.3137 -0.3137 -0.9495 182.9921 191.4417)" fill="#DCE4E8" width="133.936" height="5.997"/>
			
				<rect x="12.266" y="116.939" transform="matrix(-0.9495 0.3137 -0.3137 -0.9495 192.0903 208.9673)" fill="#DCE4E8" width="133.933" height="5.999"/>
			
				<rect x="15.404" y="126.437" transform="matrix(-0.9495 0.3137 -0.3137 -0.9495 201.1856 226.4991)" fill="#DCE4E8" width="133.931" height="5.999"/>
		</g>
		<g>
			
				<rect x="33.596" y="181.505" transform="matrix(-0.9495 0.3137 -0.3137 -0.9495 253.9301 328.1476)" fill="#DCE4E8" width="133.934" height="5.999"/>
			
				<rect x="37.482" y="195.701" transform="matrix(-0.9495 0.3137 -0.3137 -0.9495 236.7347 359.3094)" fill="#DCE4E8" width="103.953" height="6"/>
		</g>
		<g>
			
				<rect x="22.48" y="151.532" transform="matrix(-0.9495 0.3137 -0.3137 -0.9495 179.0143 280.2552)" fill="#B7BFC7" width="88.957" height="5.997"/>
			
				<rect x="25.617" y="161.03" transform="matrix(-0.9495 0.3137 -0.3137 -0.9495 188.1069 297.7872)" fill="#DCE4E8" width="88.954" height="5.997"/>
			
				<rect x="28.768" y="170.523" transform="matrix(-0.9495 0.3137 -0.3137 -0.9495 197.2278 315.3069)" fill="#DCE4E8" width="88.954" height="5.998"/>
			
				<rect x="120.952" y="128.45" transform="matrix(-0.9496 0.3136 -0.3136 -0.9496 314.3074 232.3641)" fill="#44C650" width="35.029" height="26.019"/>
		</g>
		<g>
			
				<rect x="1.635" y="80.1" transform="matrix(-0.9495 0.3137 -0.3137 -0.9495 40.7846 189.6259)" fill="#DCE4E8" width="7.001" height="35.99"/>
			
				<rect x="11.131" y="76.935" transform="matrix(-0.9495 0.3139 -0.3139 -0.9495 58.3243 180.4925)" fill="#DCE4E8" width="7" height="36.012"/>
			
				<rect x="20.627" y="73.787" transform="matrix(-0.9495 0.3139 -0.3139 -0.9495 75.8477 171.3761)" fill="#DCE4E8" width="7" height="36.015"/>
			
				<rect x="30.133" y="70.658" transform="matrix(-0.9495 0.3139 -0.3139 -0.9495 93.3951 162.2813)" fill="#DCE4E8" width="7" height="36.002"/>
			
				<rect x="39.6" y="67.55" transform="matrix(-0.9495 0.3138 -0.3138 -0.9495 110.8647 153.2323)" fill="#DCE4E8" width="6.999" height="35.978"/>
			
				<rect x="49.09" y="64.403" transform="matrix(-0.9497 0.3133 -0.3133 -0.9497 128.3445 144.1714)" fill="#DCE4E8" width="6.998" height="35.989"/>
			
				<rect x="58.613" y="61.252" transform="matrix(-0.9495 0.3137 -0.3137 -0.9495 145.9533 135.0128)" fill="#DCE4E8" width="7.001" height="35.996"/>
			
				<rect x="4.795" y="99.587" transform="matrix(-0.9496 0.3135 -0.3135 -0.9496 49.904 207.1474)" fill="#E74C3C" width="7.002" height="15.999"/>
			
				<rect x="13.804" y="93.501" transform="matrix(-0.9495 0.3138 -0.3138 -0.9495 66.0555 195.3698)" fill="#E74C3C" width="6.999" height="19.001"/>
			
				<rect x="24.368" y="97.215" transform="matrix(-0.9495 0.3137 -0.3137 -0.9495 86.7106 192.4738)" fill="#E74C3C" width="7.001" height="11.997"/>
			
				<rect x="32.312" y="84.315" transform="matrix(-0.9496 0.3134 -0.3134 -0.9496 99.69 174.5973)" fill="#E74C3C" width="6.998" height="21.993"/>
			
				<rect x="41.177" y="77.283" transform="matrix(-0.9495 0.3138 -0.3138 -0.9495 115.4309 161.9914)" fill="#E74C3C" width="7.002" height="26.005"/>
			
				<rect x="53.814" y="93.628" transform="matrix(-0.9495 0.3138 -0.3138 -0.9495 142.0509 170.3934)" fill="#E74C3C" width="7" height="5.999"/>
			
				<rect x="61.716" y="80.774" transform="matrix(-0.9497 0.3133 -0.3133 -0.9497 154.956 152.6466)" fill="#E74C3C" width="6.999" height="15.995"/>
		</g>
	</g>
</g>
<g id="occhiali">
	<g>
		<g>
			<path fill="#586273" d="M134.9,124.489c-1.317-0.233-2.208-1.495-1.975-2.817c1.628-9.25-4.572-18.098-13.821-19.726
				L32.842,86.758c-1.323-0.229-2.207-1.489-1.974-2.813c0.229-1.323,1.488-2.208,2.813-1.979l86.262,15.188
				c11.896,2.094,19.863,13.471,17.771,25.363C137.483,123.837,136.222,124.722,134.9,124.489z"/>
		</g>
	</g>
	<g>
		<g>
			<g>
				<path fill="#586273" d="M134.9,124.489c-1.317-0.233-2.208-1.495-1.975-2.817c1.628-9.25-4.572-18.098-13.821-19.726
					L32.842,86.758c-1.323-0.229-2.207-1.489-1.974-2.813c0.229-1.323,1.488-2.208,2.813-1.979l86.262,15.188
					c11.896,2.094,19.863,13.471,17.771,25.363C137.483,123.837,136.222,124.722,134.9,124.489z"/>
			</g>
		</g>
		<g>
			<g>
				<path fill="#586273" d="M39.051,107.614c-1.323-0.232-2.206-1.495-1.973-2.817c2.094-11.892,13.471-19.857,25.355-17.77
					l86.269,15.187c1.316,0.233,2.208,1.495,1.974,2.818c-0.232,1.323-1.494,2.208-2.817,1.974L61.596,91.82
					c-9.248-1.628-18.098,4.571-19.727,13.82C41.637,106.963,40.375,107.848,39.051,107.614z"/>
			</g>
		</g>
	</g>
	<g opacity="0.3">
		<g>
			<g>
				<path fill="#EFEEEE" d="M77.812,111.969c-0.928,5.271-5.999,8.819-11.271,7.896l-28.755-5.062
					c-5.271-0.934-8.825-6-7.896-11.271l3.374-19.17c0.929-5.272,6.001-8.825,11.271-7.897l28.755,5.063
					c5.271,0.928,8.817,6,7.896,11.271L77.812,111.969z"/>
			</g>
		</g>
	</g>
	<g opacity="0.3">
		<g>
			<g>
				<path fill="#EFEEEE" d="M144.905,123.78c-0.928,5.271-6,8.826-11.271,7.896l-28.756-5.063
					c-5.272-0.928-8.826-6.001-7.897-11.272l3.375-19.169c0.935-5.271,6-8.82,11.272-7.896l28.755,5.062
					c5.271,0.934,8.825,6,7.896,11.272L144.905,123.78z"/>
			</g>
		</g>
	</g>
	<g>
		<g>
			<path fill="#586273" d="M97.403,112.948c-1.316-0.233-2.207-1.495-1.974-2.819c0.698-3.964-1.959-7.756-5.923-8.454
				c-3.963-0.692-7.756,1.959-8.454,5.929c-0.233,1.317-1.493,2.208-2.818,1.975c-1.315-0.229-2.206-1.495-1.974-2.817
				c1.164-6.604,7.484-11.03,14.09-9.869c6.607,1.16,11.035,7.481,9.872,14.092C99.989,112.296,98.727,113.181,97.403,112.948z"/>
		</g>
	</g>
	<g opacity="0.3">
		<path fill="#EFEEEE" d="M44.473,76.82c-5.271-0.928-10.212,2.282-11.14,7.554l-3.375,19.17
			c-0.935,5.271,2.479,10.764,7.753,11.688l14.121,2.48l6.762-38.403L44.473,76.82z"/>
	</g>
	<g opacity="0.3">
		<path fill="#EFEEEE" d="M111.566,88.632c-5.271-0.928-9.351,2.438-10.272,7.706l-3.375,19.168
			c-0.934,5.272,1.612,10.606,6.892,11.535l13.998,2.465l6.762-38.404L111.566,88.632z"/>
	</g>
	<g>
		<g>
			<path fill="none" d="M139.961,95.736l-28.755-5.063c-3.963-0.692-7.756,1.958-8.454,5.928l-3.375,19.169
				c-0.698,3.963,1.959,7.757,5.923,8.455l28.755,5.062c3.963,0.697,7.754-1.961,8.452-5.924l3.375-19.169
				C146.581,100.224,143.925,96.433,139.961,95.736z"/>
		</g>
		<g>
			<path fill="none" d="M72.868,83.924L44.11,78.862c-3.962-0.698-7.755,1.958-8.447,5.922l-3.375,19.169
				c-0.697,3.963,1.961,7.757,5.923,8.455l28.755,5.063c3.964,0.691,7.756-1.96,8.454-5.93l3.375-19.169
				C79.489,88.414,76.832,84.622,72.868,83.924z"/>
		</g>
		<g>
			<path fill="#586273" d="M73.712,79.13l-28.755-5.062c-6.605-1.163-12.933,3.266-14.089,9.873l-3.375,19.169
				c-1.163,6.604,3.266,12.927,9.864,14.09l28.762,5.063c6.604,1.156,12.925-3.271,14.088-9.872l3.375-19.169
				C84.746,86.613,80.318,80.293,73.712,79.13z M75.417,111.547c-0.698,3.969-4.49,6.621-8.454,5.93l-28.755-5.063
				c-3.962-0.698-6.62-4.492-5.923-8.455l3.375-19.169c0.691-3.964,4.484-6.62,8.447-5.922l28.762,5.063
				c3.964,0.694,6.621,4.486,5.923,8.45L75.417,111.547z"/>
		</g>
		<g>
			<path fill="#586273" d="M140.806,90.942L112.05,85.88c-6.607-1.163-12.926,3.271-14.09,9.873l-3.375,19.168
				c-1.164,6.607,3.264,12.934,9.872,14.096l28.755,5.062c6.604,1.163,12.926-3.265,14.089-9.872l3.375-19.169
				C151.839,98.427,147.411,92.105,140.806,90.942z M142.508,123.358c-0.698,3.963-4.489,6.621-8.452,5.924l-28.755-5.062
				c-3.963-0.697-6.621-4.492-5.923-8.455l3.375-19.169c0.698-3.97,4.491-6.62,8.454-5.928l28.755,5.063
				c3.963,0.697,6.619,4.488,5.921,8.453L142.508,123.358z"/>
		</g>
	</g>
</g>
<g id="calcolatrice">
	<path opacity="0.8" fill="#2980B9" enable-background="new    " d="M1185.925,37.422l-33.881-36.096
		c-2.642-2.807-7.089-2.948-9.896-0.313l-53.904,50.597c-2.812,2.635-2.94,7.087-0.312,9.895l33.882,36.102
		c2.646,2.807,7.093,2.941,9.896,0.312l53.905-50.596C1188.418,44.682,1188.561,40.229,1185.925,37.422z"/>
	<g>
		<path fill="#F7F9F8" d="M1092.24,51.61c-2.812,2.635-2.94,7.087-0.312,9.895l33.882,36.102c2.646,2.807,7.093,2.941,9.896,0.312
			l53.904-50.596c2.813-2.635,2.938-7.087,0.313-9.896L1156.038,1.33c-2.638-2.807-7.089-2.948-9.896-0.313L1092.24,51.61z"/>
		<g>
			
				<rect x="1128.725" y="23.011" transform="matrix(-0.6844 -0.7291 0.7291 -0.6844 1888.892 873.014)" fill="#E74C3C" width="9.343" height="9.348"/>
			
				<rect x="1138.119" y="33.4" transform="matrix(-0.6844 -0.7291 0.7291 -0.6844 1897.2109 897.3013)" fill="#E74C3C" width="9.346" height="9.346"/>
			
				<rect x="1147.848" y="43.54" transform="matrix(-0.6844 -0.7291 0.7291 -0.6844 1906.1567 921.5217)" fill="#E74C3C" width="9.349" height="9.346"/>
			
				<rect x="1157.443" y="53.769" transform="matrix(-0.6844 -0.7291 0.7291 -0.6844 1914.8608 945.7474)" fill="#E74C3C" width="9.349" height="9.345"/>
			
				<rect x="1118.405" y="32.609" transform="matrix(-0.6845 -0.729 0.729 -0.6845 1864.6577 881.5329)" fill="#E74C3C" width="9.349" height="9.345"/>
			
				<rect x="1128.153" y="42.794" transform="matrix(-0.6844 -0.7291 0.7291 -0.6844 1873.5756 905.8585)" fill="#E74C3C" width="9.346" height="9.346"/>
			
				<rect x="1137.604" y="53.082" transform="matrix(-0.6842 -0.7293 0.7293 -0.6842 1881.7483 930.2904)" fill="#E74C3C" width="9.348" height="9.345"/>
			
				<rect x="1147.182" y="63.418" transform="matrix(-0.6842 -0.7293 0.7293 -0.6842 1890.3312 954.6904)" fill="#E74C3C" width="9.346" height="9.346"/>
			
				<rect x="1108.09" y="42.338" transform="matrix(-0.6842 -0.7293 0.7293 -0.6842 1839.8037 890.7318)" fill="#E74C3C" width="9.346" height="9.348"/>
			
				<rect x="1117.796" y="52.524" transform="matrix(-0.6843 -0.7292 0.7292 -0.6843 1848.8927 914.8166)" fill="#E74C3C" width="9.341" height="9.349"/>
			
				<rect x="1127.432" y="62.682" transform="matrix(-0.6844 -0.7291 0.7291 -0.6844 1857.7993 938.8855)" fill="#E74C3C" width="9.346" height="9.346"/>
			
				<rect x="1137.002" y="72.965" transform="matrix(-0.6844 -0.7291 0.7291 -0.6844 1866.4316 963.179)" fill="#E74C3C" width="9.349" height="9.348"/>
			
				<rect x="1098.062" y="51.887" transform="matrix(-0.6846 -0.729 0.729 -0.6846 1816.3845 899.1332)" fill="#E74C3C" width="9.345" height="9.348"/>
			
				<rect x="1107.659" y="62.119" transform="matrix(-0.6846 -0.729 0.729 -0.6846 1825.0894 923.3688)" fill="#E74C3C" width="9.345" height="9.352"/>
			
				<rect x="1114.913" y="77.442" transform="matrix(-0.6844 -0.7291 0.7291 -0.6844 1837.7853 959.7094)" fill="#656D78" width="23.366" height="9.346"/>
		</g>
		
			<rect x="1135.638" y="20.957" transform="matrix(-0.6844 -0.7291 0.7291 -0.6844 1934.0522 897.7901)" fill="#2C3E50" width="51.399" height="18.69"/>
		
			<rect x="1165.492" y="32.37" transform="matrix(-0.6844 -0.7291 0.7291 -0.6844 1940.0638 913.8796)" fill="#ECF0F1" width="4.672" height="9.345"/>
		
			<rect x="1171.772" y="39.148" transform="matrix(-0.6846 -0.7289 0.7289 -0.6846 1945.9508 929.6596)" fill="#ECF0F1" width="4.67" height="9.35"/>
		
			<rect x="1152.647" y="18.806" transform="matrix(-0.6842 -0.7293 0.7293 -0.6842 1928.1023 881.8699)" fill="#ECF0F1" width="4.677" height="9.346"/>
		
			<rect x="1158.951" y="25.696" transform="matrix(-0.6844 -0.7291 0.7291 -0.6844 1933.8927 897.8869)" fill="#ECF0F1" width="4.669" height="9.349"/>
	</g>
</g>
<text id="hello" transform="matrix(1 0 0 1 30.7039 389.2097)" fill="#ECF0F1" font-family="'Roboto-Black'" font-size="120">hello</text>
<g id="subtitle">
	
		<text id="scrolldown" transform="matrix(1 0 0 1 409.5745 389.2097)" fill="#F5ECD9" font-family="'Roboto-Regular'" font-size="14">scroll down</text>
	
		<text id="viewresume" transform="matrix(1 0 0 1 484.1746 389.2097)" fill="#DED6C7" font-family="'Roboto-Regular'" font-size="14">or just view my resume.</text>
</g>
<g id="scrollthing">
	<rect x="969.689" y="-206.661" fill="#4CAEE5" width="14.722" height="170.528"/>
	<g id="moving">
		<rect id="scrollertop" x="971.3" y="-204.409" fill="#3498DB" width="11.501" height="81.576"/>
		<g id="cursor">
			<g>
				<polygon fill="#4CAEE5" points="949.01,-168.323 949.01,-167.301 944.918,-167.301 944.918,-165.409 944.865,-165.392 
					943.906,-165.392 943.906,-168.323 943.918,-168.323 944.918,-168.323 946.887,-168.323 946.887,-169.15 947.875,-169.15 
					947.875,-168.323 				"/>
				<polygon fill="#4CAEE5" points="947.851,-161.523 947.851,-159.579 946.845,-159.579 946.845,-159.581 946.845,-161.523 
					946.862,-161.523 				"/>
				<rect x="945.889" y="-170.146" fill="#4CAEE5" width="0.988" height="0.988"/>
				<polygon fill="#4CAEE5" points="946.862,-163.465 946.862,-161.523 946.845,-161.523 945.856,-161.523 945.856,-163.465 
					945.865,-163.465 				"/>
				<polygon fill="#4CAEE5" points="946.845,-159.579 946.845,-158.573 944.9,-158.573 944.9,-159.579 944.906,-159.581 
					946.845,-159.581 				"/>
				<rect x="944.892" y="-171.144" fill="#4CAEE5" width="0.988" height="0.988"/>
				<polygon fill="#4CAEE5" points="945.865,-165.409 945.865,-163.465 945.856,-163.465 944.865,-163.465 944.865,-165.392 
					944.918,-165.409 				"/>
				<polygon fill="#4CAEE5" points="944.906,-161.523 944.906,-159.581 944.9,-159.579 943.9,-159.579 943.9,-161.523 				"/>
				<rect x="943.896" y="-172.141" fill="#4CAEE5" width="0.982" height="0.988"/>
				<polygon fill="#4CAEE5" points="943.896,-161.523 943.896,-161.505 942.89,-161.505 942.89,-163.431 942.895,-163.448 
					943.896,-163.448 				"/>
				<rect x="942.898" y="-173.138" fill="#4CAEE5" width="0.983" height="0.988"/>
				<polygon fill="#4CAEE5" points="942.895,-165.375 942.895,-163.448 942.89,-163.431 941.889,-163.431 941.889,-165.357 
					941.889,-165.375 				"/>
				<rect x="941.901" y="-174.135" fill="#4CAEE5" width="0.983" height="0.988"/>
				<rect x="940.904" y="-175.134" fill="#4CAEE5" width="0.983" height="0.99"/>
				<polygon fill="#4CAEE5" points="941.889,-165.375 941.889,-165.357 940.893,-165.357 940.882,-165.4 940.882,-167.301 
					941.889,-167.301 				"/>
				<rect x="939.906" y="-176.13" fill="#4CAEE5" width="0.983" height="0.99"/>
				<polygon fill="#4CAEE5" points="940.893,-165.357 940.893,-164.412 939.903,-164.412 939.903,-165.4 940.882,-165.4 				"/>
				<rect x="938.906" y="-164.403" fill="#4CAEE5" width="0.988" height="0.984"/>
				<rect x="938.906" y="-177.127" fill="#4CAEE5" width="0.988" height="0.988"/>
				<polygon fill="#4CAEE5" points="938.905,-163.406 938.905,-162.416 937.916,-162.416 937.916,-161.607 936.906,-161.607 
					936.906,-179.061 937.916,-179.061 937.916,-178.125 938.901,-178.125 938.901,-177.136 937.916,-177.136 937.916,-163.406 				
					"/>
			</g>
		</g>
	</g>
</g>
<g id="foglio2">
	<g opacity="0.8">
		<g>
			<polygon fill="#2980B9" points="165.448,7.97 141.341,196.495 292.062,215.769 316.17,27.243 317.776,14.683 167.054,-4.591 			
				"/>
		</g>
	</g>
	<g>
		<g>
			<polygon fill="#EBF4FF" points="162.092,-7.228 312.76,13.143 288.669,212.468 138,192.097 			"/>
		</g>
	</g>
	<g>
		<path fill="#4C6991" d="M208.264,154.79c-14.099-1.589-16.498-10.689-13.663-24.508c0.829-4.042,1.186-7.343,3.854-10.255
			c5.926-6.463,24.24-1.777,36.173,0.129c0.108-0.797,0.22-1.594,0.331-2.39c-6.244-0.979-12.49-1.958-18.734-2.938
			c0.396-3.464,0.586-9.025,2.242-11.174c4.68-6.073,24.056-4.665,31.592,0.54c1.817,1.255,4.337,3.892,4.708,6.219
			c-1.038,7.511-2.077,15.025-3.115,22.536c-4.553,11.308-19.448,1.973-32.063,2.875
			C210.619,136.465,209.741,144.159,208.264,154.79z"/>
		<path fill="#F3C848" d="M229.152,159.765c6.243,0.979,12.489,1.958,18.733,2.938c-0.485,4.404-0.962,9.875-2.677,11.812
			c-5.455,6.155-26.273,2.953-32.724-2.438c-4.33-3.619-3.402-16.778-0.697-25.149c5.14-15.914,19.143-3.566,33.808-5.42
			c8.063-1.018,8.916-9.134,10.298-19.105c3.989,1.548,9.287,1.067,11.668,3.701c6.823,7.546,2.923,30.459-6.134,34.299
			c-6.191,2.625-24.189-3.296-32.286-3.071C229.145,158.14,229.148,158.953,229.152,159.765z"/>
		<path fill="#FFFFFF" d="M228.688,108.214c0.236-1.707-1.048-3.281-2.882-3.535c-1.833-0.255-3.497,0.916-3.733,2.621
			c-0.234,1.708,1.05,3.285,2.883,3.538S228.451,109.921,228.688,108.214z"/>
		<path fill="#FFFFFF" d="M242.789,169.828c0.234-1.707-1.048-3.284-2.881-3.537s-3.498,0.916-3.733,2.623s1.048,3.284,2.882,3.538
			C240.889,172.705,242.553,171.535,242.789,169.828z"/>
	</g>
	
		<text transform="matrix(0.9915 0.1304 -0.1304 0.9915 184.1321 61.3284)" fill="#333333" font-family="'Roboto-Regular'" font-size="36">Python</text>
	<g>
		
			<rect x="150.11" y="-7.124" transform="matrix(-0.9927 -0.1203 0.1203 -0.9927 299.8666 204.6196)" fill="#B7BFC7" width="12" height="200.762"/>
	</g>
</g>
</svg>
