<?xml version="1.0" encoding="utf-8"?>
<!-- Generator: Adobe Illustrator 16.0.0, SVG Export Plug-In . SVG Version: 6.00 Build 0)  -->
<!DOCTYPE svg PUBLIC "-//W3C//DTD SVG 1.1//EN" "http://www.w3.org/Graphics/SVG/1.1/DTD/svg11.dtd">
<svg version="1.1" id="svg1" xmlns="http://www.w3.org/2000/svg" xmlns:xlink="http://www.w3.org/1999/xlink" x="0px" y="0px"
	 width="1024px" height="768px" viewBox="0 0 1024 768" enable-background="new 0 0 1024 768" xml:space="preserve">
<g id="bg">
	<rect x="-7576.433" y="-6889.816" fill="#3498DB" width="16291.839" height="14783.959"/>
</g>
<path id="wire1" opacity="0.6" fill="none" stroke="#EFEFEF" stroke-miterlimit="10" enable-background="new    " d="M18.115-44.888
	C63.952,14.779,115.713,82.916,198.636,81.016c65.57-1.501,127.096-41.73,193.394-31.267
	c67.338,10.629,116.664,71.305,167.169,111.705c53.213,42.57,112.231,66.442,171.979,97.311
	c45.997,23.766,69.188,58.462,77.456,109.252c5.77,35.415-0.088,84.239,22.37,114.638c29.146,39.456,156.977,59.966,101.033,134.771
	c-53.021,70.909-150.769,81.889-210.563,115.771C705.355,742.33,683,759.5,670,768l-1.984,1.313"/>
<g id="introduction" inkscape:version="0.48.4 r9939" sodipodi:docname="drawing.svg" xmlns:rdf="http://www.w3.org/1999/02/22-rdf-syntax-ns#" xmlns:svg="http://www.w3.org/2000/svg" xmlns:sodipodi="http://sodipodi.sourceforge.net/DTD/sodipodi-0.dtd" xmlns:dc="http://purl.org/dc/elements/1.1/" xmlns:inkscape="http://www.inkscape.org/namespaces/inkscape" xmlns:cc="http://creativecommons.org/ns#">
	<g id="intro">
		<g id="intro1">
			<text transform="matrix(1 0 0 1 30.7048 451.156)" fill="#ECF0F1" font-family="'Roboto-Thin'" font-size="30">I’m Lev Veshnyakov,</text>
			<text transform="matrix(1 0 0 1 30.7048 487.156)" fill="#ECF0F1" font-family="'Roboto-Thin'" font-size="30">a high-qualified full-stack web developer.</text>
		</g>
		<g id="intro2">
			<text transform="matrix(1 0 0 1 30.2048 537.6023)" fill="#F5F7FA" font-family="'Roboto-Thin'" font-size="30">Currently I work in St. Petersburg for Storverk, </text>
			<text transform="matrix(1 0 0 1 30.2048 573.6023)" fill="#F5F7FA" font-family="'Roboto-Thin'" font-size="30">a fresh and dynamic development company founded in 2014.</text>
		</g>
	</g>
	<g id="macbook">
		<path fill="#586273" d="M938.378,306.397L938.378,306.397C938.351,306.458,938.378,306.397,938.378,306.397z"/>
		<path opacity="0.8" fill="#2980B9" enable-background="new    " d="M969.267,279.006L627.089,123.152c0,0-8.188-3.73-11.923,4.46
			c-3.733,8.19,4.462,11.921,4.462,11.921l24.567,11.192c0,0-8.188-3.73-11.92,4.46c-4.688,10.272-4.656,10.22-77.521,170.179
			c-3.894,8.544,0.791,19.04,9.334,22.932L841.657,474.72c8.545,3.896,18.625,0.121,22.521-8.424c0,0,59.131-129.82,74.195-162.898
			l0,0c0.073-0.166,0.579-1.274,3.313-7.28c3.729-8.188-4.462-11.921-4.462-11.921l24.562,11.191c0,0,8.189,3.729,11.925-4.46
			C977.453,282.737,969.267,279.006,969.267,279.006z"/>
		<g>
			<path fill="#E6E9ED" d="M870.181,464.297c-3.894,8.545-13.974,12.314-22.521,8.424L570.099,346.295
				c-8.543-3.892-13.228-14.388-9.334-22.932c0,0,73.783-161.988,77.521-170.179c3.729-8.191,11.922-4.46,11.922-4.46
				l293.031,133.471c0,0,8.188,3.73,4.459,11.921C943.964,302.307,870.181,464.297,870.181,464.297z"/>
			<path opacity="0.3" fill="#B7BFC7" enable-background="new    " d="M944.378,301.397l-364.201-20.582
				c0,0,54.371-119.439,58.104-127.63c3.729-8.191,11.92-4.46,11.92-4.46l293.035,133.471c0,0,8.188,3.73,4.461,11.921
				C943.964,302.308,944.378,301.397,944.378,301.397z"/>
			
				<rect x="713.889" y="215.034" transform="matrix(-0.91 -0.4145 0.4145 -0.91 1427.1394 748.7841)" fill="#DCE4E8" width="161.863" height="8.999"/>
			
				<radialGradient id="mbplight_1_" cx="1279.1653" cy="9532.6836" r="163.2169" gradientTransform="matrix(0.9118 0.4011 -0.0955 0.1842 530.8047 -2051.2595)" gradientUnits="userSpaceOnUse">
				<stop  offset="0.103" style="stop-color:#3498DB;stop-opacity:0.4"/>
				<stop  offset="0.7955" style="stop-color:#3498DB;stop-opacity:0.0565"/>
				<stop  offset="0.9095" style="stop-color:#3498DB;stop-opacity:0"/>
			</radialGradient>
			<polygon id="mbplight" display="none" fill="url(#mbplight_1_)" points="960.158,328.208 625.479,177.709 669.61,137.852 
				968.716,274.252 			"/>
			<path fill="#CCD1D9" d="M967.806,293.387L625.628,137.533c0,0-8.19-3.729-4.462-11.921c3.728-8.192,11.923-4.46,11.923-4.46
				l342.178,155.854c0,0,8.188,3.73,4.459,11.923C975.994,297.118,967.806,293.387,967.806,293.387z"/>
			
				<rect x="677.237" y="351.506" transform="matrix(-0.91 -0.4145 0.4145 -0.91 1227.0588 1015.2702)" display="none" fill="#F5F7FA" stroke="#CCD1D9" stroke-miterlimit="10" width="92.921" height="45.96"/>
			<g>
				
					<rect x="671.435" y="199.313" transform="matrix(-0.9101 -0.4145 0.4145 -0.9101 1214.5854 674.1859)" fill="#3B3B3B" stroke="#C1C1C1" stroke-miterlimit="10" width="18.008" height="12.004"/>
				
					<rect x="662.454" y="216.365" transform="matrix(-0.91 -0.4145 0.4145 -0.91 1189.2815 707.8406)" fill="#3B3B3B" stroke="#C1C1C1" stroke-miterlimit="10" width="17.998" height="16.998"/>
				
					<rect x="651.633" y="240.637" transform="matrix(-0.91 -0.4145 0.4145 -0.91 1169.5847 754.0831)" fill="#3B3B3B" stroke="#C1C1C1" stroke-miterlimit="10" width="29.972" height="18.984"/>
				
					<rect x="641.101" y="266.211" transform="matrix(-0.9101 -0.4145 0.4145 -0.9101 1151.7759 799.3736)" fill="#3B3B3B" stroke="#C1C1C1" stroke-miterlimit="10" width="43.037" height="17.018"/>
				
					<rect x="684.353" y="226.524" transform="matrix(-0.91 -0.4145 0.4145 -0.91 1227.8459 736.508)" fill="#3B3B3B" stroke="#C1C1C1" stroke-miterlimit="10" width="18.983" height="16.983"/>
				
					<rect x="684.853" y="253.3" transform="matrix(-0.91 -0.4145 0.4145 -0.91 1217.3091 789.7589)" fill="#3B3B3B" stroke="#C1C1C1" stroke-miterlimit="10" width="18.989" height="18.991"/>
				
					<rect x="686.676" y="281.478" transform="matrix(-0.9101 -0.4145 0.4145 -0.9101 1209.5359 842.4354)" fill="#3B3B3B" stroke="#C1C1C1" stroke-miterlimit="10" width="18.999" height="17"/>
				
					<rect x="708.73" y="291.254" transform="matrix(-0.91 -0.4145 0.4145 -0.91 1246.6406 870.051)" fill="#3B3B3B" stroke="#C1C1C1" stroke-miterlimit="10" width="17.997" height="16.999"/>
				
					<rect x="731.415" y="301.675" transform="matrix(-0.9101 -0.4145 0.4145 -0.9101 1285.6763 899.344)" fill="#3B3B3B" stroke="#C1C1C1" stroke-miterlimit="10" width="18.005" height="17.001"/>
				
					<rect x="753.299" y="311.595" transform="matrix(-0.91 -0.4146 0.4146 -0.91 1323.3107 927.3918)" fill="#3B3B3B" stroke="#C1C1C1" stroke-miterlimit="10" width="17.993" height="16.991"/>
				
					<rect x="776.04" y="321.952" transform="matrix(-0.9101 -0.4144 0.4144 -0.9101 1362.5337 956.5596)" fill="#3B3B3B" stroke="#C1C1C1" stroke-miterlimit="10" width="18.009" height="17.013"/>
				
					<rect x="796.923" y="331.693" transform="matrix(-0.9101 -0.4145 0.4145 -0.9101 1399.321 984.0555)" fill="#3B3B3B" stroke="#C1C1C1" stroke-miterlimit="10" width="19.016" height="17.016"/>
				
					<rect x="818.543" y="347.011" transform="matrix(-0.91 -0.4145 0.4145 -0.91 1457.1218 1027.2307)" fill="#3B3B3B" stroke="#C1C1C1" stroke-miterlimit="10" width="42.965" height="16.985"/>
				
					<rect x="707.671" y="263.431" transform="matrix(-0.91 -0.4145 0.4145 -0.91 1255.7261 818.3756)" fill="#3B3B3B" stroke="#C1C1C1" stroke-miterlimit="10" width="17.992" height="18.988"/>
				
					<rect x="729.538" y="273.711" transform="matrix(-0.9101 -0.4145 0.4145 -0.9101 1294.223 847.2597)" fill="#3B3B3B" stroke="#C1C1C1" stroke-miterlimit="10" width="18.998" height="18.998"/>
				
					<rect x="752.301" y="283.74" transform="matrix(-0.9101 -0.4144 0.4144 -0.9101 1332.6417 875.6124)" fill="#3B3B3B" stroke="#C1C1C1" stroke-miterlimit="10" width="18.009" height="19.01"/>
				
					<rect x="774.093" y="293.971" transform="matrix(-0.9101 -0.4145 0.4145 -0.9101 1370.9058 904.4209)" fill="#3B3B3B" stroke="#C1C1C1" stroke-miterlimit="10" width="18.985" height="18.984"/>
				
					<rect x="796.905" y="304.096" transform="matrix(-0.91 -0.4145 0.4145 -0.91 1409.3027 933.0637)" fill="#3B3B3B" stroke="#C1C1C1" stroke-miterlimit="10" width="18.003" height="19"/>
				
					<rect x="818.692" y="314.169" transform="matrix(-0.91 -0.4145 0.4145 -0.91 1447.6917 961.5107)" fill="#3B3B3B" stroke="#C1C1C1" stroke-miterlimit="10" width="18.983" height="18.982"/>
				
					<rect x="840.94" y="326.898" transform="matrix(-0.91 -0.4145 0.4145 -0.91 1495.4727 997.3446)" fill="#3B3B3B" stroke="#C1C1C1" stroke-miterlimit="10" width="30.025" height="19.018"/>
				
					<rect x="707.033" y="236.958" transform="matrix(-0.9101 -0.4145 0.4145 -0.9101 1266.8638 765.8141)" fill="#3B3B3B" stroke="#C1C1C1" stroke-miterlimit="10" width="18.983" height="16.984"/>
				
					<rect x="729.108" y="246.785" transform="matrix(-0.9101 -0.4145 0.4145 -0.9101 1304.021 793.5424)" fill="#3B3B3B" stroke="#C1C1C1" stroke-miterlimit="10" width="18.001" height="17.004"/>
				
					<rect x="751.751" y="257.059" transform="matrix(-0.9101 -0.4145 0.4145 -0.9101 1343.0135 822.5404)" fill="#3B3B3B" stroke="#C1C1C1" stroke-miterlimit="10" width="17.996" height="17"/>
				
					<rect x="773.648" y="267.057" transform="matrix(-0.9101 -0.4145 0.4145 -0.9101 1380.7039 850.7235)" fill="#3B3B3B" stroke="#C1C1C1" stroke-miterlimit="10" width="18.008" height="17.008"/>
				
					<rect x="796.338" y="277.371" transform="matrix(-0.9101 -0.4144 0.4144 -0.9101 1419.8103 879.791)" fill="#3B3B3B" stroke="#C1C1C1" stroke-miterlimit="10" width="18.011" height="17.011"/>
				
					<rect x="817.092" y="287.024" transform="matrix(-0.91 -0.4145 0.4145 -0.91 1456.3344 907.113)" fill="#3B3B3B" stroke="#C1C1C1" stroke-miterlimit="10" width="19.012" height="17.011"/>
				
					<rect x="838.888" y="302.446" transform="matrix(-0.9101 -0.4145 0.4145 -0.9101 1514.5476 950.5553)" fill="#3B3B3B" stroke="#C1C1C1" stroke-miterlimit="10" width="43.036" height="17.018"/>
				
					<rect x="632.267" y="281.888" transform="matrix(-0.9101 -0.4145 0.4145 -0.9101 1104.0928 822.3842)" fill="#3B3B3B" stroke="#C1C1C1" stroke-miterlimit="10" width="18.017" height="19.018"/>
				
					<rect x="654.077" y="292.052" transform="matrix(-0.91 -0.4145 0.4145 -0.91 1142.4612 851.0349)" fill="#3B3B3B" stroke="#C1C1C1" stroke-miterlimit="10" width="18.998" height="18.994"/>
				
					<rect id="spacebar" x="672.476" y="322.469" transform="matrix(-0.91 -0.4145 0.4145 -0.91 1257.5402 936.8329)" fill="#3B3B3B" stroke="#C1C1C1" stroke-miterlimit="10" width="115.902" height="18.981"/>
				
					<rect x="786.912" y="352.493" transform="matrix(-0.91 -0.4145 0.4145 -0.91 1371.139 1021.5515)" fill="#3B3B3B" stroke="#C1C1C1" stroke-miterlimit="10" width="19.008" height="19.006"/>
				
					<rect x="809.695" y="362.816" transform="matrix(-0.9101 -0.4145 0.4145 -0.9101 1410.4167 1050.6987)" fill="#3B3B3B" stroke="#C1C1C1" stroke-miterlimit="10" width="19.019" height="19.017"/>
				
					<rect x="832.41" y="373.056" transform="matrix(-0.91 -0.4145 0.4145 -0.91 1448.5466 1079.4879)" fill="#3B3B3B" stroke="#C1C1C1" stroke-miterlimit="10" width="18.003" height="19.005"/>
				
					<rect x="693.296" y="209.486" transform="matrix(-0.91 -0.4145 0.4145 -0.91 1253.0562 702.9267)" fill="#3B3B3B" stroke="#C1C1C1" stroke-miterlimit="10" width="19.016" height="12.01"/>
				
					<rect x="715.99" y="219.818" transform="matrix(-0.9101 -0.4145 0.4145 -0.9101 1292.1442 732.0251)" fill="#3B3B3B" stroke="#C1C1C1" stroke-miterlimit="10" width="19.007" height="12.005"/>
				
					<rect x="737.849" y="229.597" transform="matrix(-0.91 -0.4145 0.4145 -0.91 1328.8535 759.5673)" fill="#3B3B3B" stroke="#C1C1C1" stroke-miterlimit="10" width="17.993" height="11.995"/>
				
					<rect x="760.581" y="239.989" transform="matrix(-0.91 -0.4145 0.4145 -0.91 1367.9526 788.8528)" fill="#3B3B3B" stroke="#C1C1C1" stroke-miterlimit="10" width="17.992" height="11.994"/>
				
					<rect x="782.495" y="249.949" transform="matrix(-0.9101 -0.4144 0.4144 -0.9101 1405.7433 816.9182)" fill="#3B3B3B" stroke="#C1C1C1" stroke-miterlimit="10" width="18.007" height="12.004"/>
				
					<rect x="805.156" y="260.293" transform="matrix(-0.9101 -0.4145 0.4145 -0.9101 1444.7239 846.0999)" fill="#3B3B3B" stroke="#C1C1C1" stroke-miterlimit="10" width="18.015" height="12.011"/>
				
					<rect x="826.176" y="270.006" transform="matrix(-0.9101 -0.4145 0.4145 -0.9101 1481.804 873.5616)" fill="#3B3B3B" stroke="#C1C1C1" stroke-miterlimit="10" width="19.007" height="12.01"/>
				
					<rect x="848.898" y="280.422" transform="matrix(-0.9101 -0.4145 0.4145 -0.9101 1520.8676 902.8567)" fill="#3B3B3B" stroke="#C1C1C1" stroke-miterlimit="10" width="18.986" height="11.992"/>
				
					<rect x="871.637" y="290.691" transform="matrix(-0.91 -0.4146 0.4146 -0.91 1559.0092 931.7847)" fill="#3B3B3B" stroke="#C1C1C1" stroke-miterlimit="10" width="17.991" height="11.999"/>
			</g>
		</g>
	</g>
	<g id="bevanda">
		<circle opacity="0.8" fill="#2980B9" enable-background="new    " cx="419.414" cy="136.903" r="50.582"/>
		<circle fill="#E6E9ED" cx="424.414" cy="134.903" r="50.582"/>
		<path fill="#E74C3C" d="M424.414,93.203c23.03,0,41.7,18.67,41.7,41.7s-18.67,41.7-41.7,41.7
			c-10.367,0-19.854-3.786-27.148-10.052c-8.897-7.647-14.547-18.989-14.547-31.648C382.717,111.873,401.387,93.203,424.414,93.203z
			"/>
		<path id="linecover1" fill="#E6E9ED" d="M424.414,92.203c23.586,0,42.7,19.118,42.7,42.7s-19.114,42.7-42.7,42.7
			c-10.617,0-20.335-3.877-27.805-10.293c-9.118-7.831-14.896-19.444-14.896-32.407C381.717,111.321,400.834,92.203,424.414,92.203z
			"/>
		
			<ellipse transform="matrix(0.993 0.1183 -0.1183 0.993 22.6273 -47.4013)" fill="#D8D8DA" cx="410.584" cy="166.894" rx="11.569" ry="7.712"/>
		<polygon fill="#CCD1D9" points="361.239,157.128 402.066,164.068 401.641,167.644 360.324,164.782 		"/>
		
			<ellipse transform="matrix(0.993 0.1184 -0.1184 0.993 22.6411 -47.4231)" fill="#AAB2BD" cx="410.539" cy="166.886" rx="9.64" ry="6.424"/>
		<path fill="#FFFFFF" d="M397.135,92.046l9.688,12.484c1.604,2.068,1.229,5.048-0.838,6.654c-2.062,1.605-5.05,1.23-6.647-0.836
			l-9.692-12.484c-1.604-2.068-1.229-5.047,0.842-6.654C392.55,89.603,395.528,89.977,397.135,92.046z"/>
		<circle fill="#FFFFFF" cx="424.414" cy="134.903" r="34.776"/>
		<circle fill="#E6E7E8" cx="424.414" cy="134.903" r="31.298"/>
		<circle fill="#49433C" cx="424.414" cy="134.903" r="29.559"/>
		<path fill="#363532" d="M403.194,151.386c9.088,11.7,26.004,13.826,37.707,4.737c0.688-0.535,0.813-1.526,0.271-2.218
			c-0.537-0.688-1.521-0.813-2.227-0.278c-0.273,0.22-0.562,0.43-0.854,0.634c-0.073,0.056-0.148,0.109-0.229,0.166
			c-0.271,0.188-0.55,0.37-0.83,0.549c-0.09,0.057-0.188,0.108-0.271,0.167c-0.188,0.119-0.396,0.233-0.589,0.347
			c-0.138,0.075-0.271,0.15-0.396,0.222c-0.229,0.125-0.455,0.244-0.688,0.36c-0.188,0.09-0.354,0.176-0.539,0.261
			c-0.145,0.064-0.271,0.127-0.402,0.188c-0.174,0.076-0.342,0.149-0.512,0.223c-0.238,0.104-0.485,0.203-0.732,0.298
			c-0.162,0.063-0.321,0.12-0.483,0.18c-0.15,0.056-0.313,0.109-0.479,0.164c-0.146,0.05-0.303,0.1-0.44,0.146
			c-0.281,0.088-0.563,0.171-0.854,0.249c-0.104,0.029-0.205,0.054-0.312,0.081c-0.25,0.063-0.5,0.124-0.757,0.18
			c-0.078,0.02-0.157,0.036-0.234,0.056c-0.343,0.07-0.688,0.137-1.021,0.192c-0.021,0.002-0.037,0.006-0.062,0.008
			c-0.188,0.033-0.396,0.065-0.601,0.094c-0.146,0.021-0.304,0.037-0.448,0.054c-0.021,0.003-0.054,0.007-0.076,0.009
			c-0.738,0.085-1.484,0.134-2.229,0.147c-0.011,0-0.021,0-0.021,0c-0.73,0.013-1.478-0.011-2.207-0.064
			c-0.043-0.003-0.086-0.007-0.129-0.011c-0.34-0.028-0.683-0.063-1.021-0.104c-0.021-0.002-0.039-0.004-0.062-0.006
			c-0.313-0.042-0.639-0.09-0.949-0.143c-0.135-0.022-0.267-0.046-0.396-0.07c-0.179-0.034-0.354-0.066-0.529-0.104
			c-0.646-0.136-1.279-0.299-1.918-0.484c-0.01-0.002-0.019-0.005-0.021-0.007c-3.418-1.023-6.599-2.81-9.25-5.243
			c-0.021-0.015-0.031-0.03-0.058-0.044c-0.146-0.14-0.304-0.282-0.438-0.425c-0.121-0.118-0.241-0.238-0.358-0.358
			c-0.121-0.124-0.242-0.246-0.354-0.373c-0.199-0.215-0.396-0.435-0.604-0.659c-0.063-0.076-0.138-0.155-0.205-0.235
			c-0.229-0.27-0.45-0.54-0.67-0.819c-0.22-0.28-0.429-0.564-0.627-0.854c-0.063-0.086-0.121-0.173-0.185-0.258
			c-0.168-0.243-0.33-0.49-0.486-0.739c-0.098-0.147-0.188-0.295-0.271-0.442c-0.09-0.147-0.18-0.291-0.266-0.438
			c-0.104-0.18-0.201-0.357-0.304-0.538c-0.012-0.021-0.021-0.04-0.028-0.062c-1.693-3.179-2.646-6.695-2.789-10.259
			c0-0.009-0.002-0.019-0.002-0.025c-0.021-0.66-0.021-1.317,0.008-1.978c0.019-0.183,0.021-0.359,0.026-0.541
			c0.011-0.132,0.021-0.263,0.026-0.396c0.021-0.318,0.061-0.641,0.102-0.96c0.002-0.02,0.008-0.039,0.01-0.058
			c0.041-0.338,0.104-0.675,0.146-1.011c0.011-0.043,0.021-0.086,0.021-0.129c0.133-0.725,0.288-1.441,0.479-2.154
			c0.002-0.007,0.008-0.015,0.011-0.022c0.194-0.717,0.435-1.428,0.692-2.13c0.011-0.022,0.021-0.047,0.021-0.069
			c0.062-0.144,0.104-0.283,0.162-0.426c0.073-0.187,0.153-0.372,0.231-0.556c0.011-0.017,0.021-0.035,0.021-0.052
			c0.146-0.32,0.288-0.637,0.438-0.948c0.034-0.074,0.072-0.146,0.104-0.22c0.114-0.229,0.231-0.458,0.354-0.686
			c0.057-0.095,0.104-0.188,0.155-0.285c0.146-0.258,0.298-0.514,0.446-0.766c0.079-0.133,0.171-0.265,0.256-0.396
			c0.096-0.142,0.188-0.28,0.271-0.418c0.103-0.145,0.189-0.286,0.291-0.43c0.151-0.217,0.313-0.432,0.479-0.644
			c0.104-0.146,0.229-0.291,0.348-0.437c0.097-0.115,0.188-0.231,0.273-0.348c0.136-0.153,0.265-0.307,0.396-0.458
			c0.17-0.194,0.346-0.386,0.521-0.576c0.104-0.108,0.206-0.219,0.312-0.329c0.159-0.163,0.313-0.323,0.479-0.481
			c0.075-0.076,0.146-0.152,0.229-0.227c0.234-0.229,0.479-0.449,0.729-0.669c0.069-0.063,0.146-0.125,0.229-0.188
			c0.271-0.23,0.544-0.458,0.818-0.677c0.688-0.535,0.812-1.527,0.271-2.219c-0.532-0.688-1.521-0.813-2.218-0.277
			C396.231,122.77,394.104,139.685,403.194,151.386z"/>
		<path fill="#363532" d="M413.143,112.208c0.345,0.805,1.271,1.184,2.063,0.842c0.221-0.089,0.434-0.171,0.646-0.253
			c0.031-0.013,0.062-0.023,0.102-0.036c0.002-0.003,0.004-0.004,0.009-0.004c0.196-0.074,0.396-0.146,0.604-0.219
			c0.011-0.001,0.016-0.004,0.021-0.006c0.055-0.018,0.104-0.036,0.151-0.055c0.006,0,0.01-0.002,0.017-0.003
			c0.209-0.073,0.422-0.144,0.635-0.208c0.008-0.002,0.021-0.003,0.021-0.005c0.019-0.005,0.021-0.01,0.041-0.014
			c0.017-0.003,0.021-0.007,0.036-0.011c0.438-0.138,0.896-0.258,1.354-0.369c0.051-0.012,0.104-0.024,0.15-0.039
			c0.438-0.104,0.885-0.191,1.322-0.271c0.104-0.021,0.214-0.037,0.313-0.057c-0.063,0.012-0.123,0.02-0.188,0.029
			c0.063-0.011,0.125-0.019,0.188-0.029c-0.003,0-0.006,0-0.009,0c0.146-0.021,0.287-0.044,0.438-0.063
			c-0.011,0.001-0.018,0.001-0.021,0.001c0.054-0.007,0.104-0.018,0.146-0.023c0.005,0,0.005,0,0.012,0
			c-0.055,0.006-0.104,0.018-0.146,0.021c0.062-0.009,0.125-0.018,0.188-0.025c0.563-0.059,1.091,0.184,1.416,0.603
			c0.165,0.212,0.271,0.47,0.313,0.755c0.109,0.857-0.479,1.649-1.346,1.775c-0.002,0-0.002,0.001-0.004,0.001
			c-0.004,0-0.008,0.002-0.011,0.002c-1.323,0.183-2.622,0.493-3.886,0.926c-0.004,0.002-0.009,0.002-0.018,0.005
			c-0.021,0.006-0.035,0.013-0.062,0.019c-0.011,0.002-0.016,0.004-0.021,0.005c-0.42,0.146-0.829,0.307-1.234,0.478
			c-0.777,0.35-1.146,1.262-0.813,2.056c0.336,0.797,1.252,1.174,2.054,0.849c2.157-0.917,4.479-1.382,6.854-1.363
			c0.063,0,0.125,0,0.188,0c0.159,0.003,0.319,0.01,0.481,0.017c0.104,0.005,0.202,0.009,0.313,0.017
			c0.146,0.01,0.302,0.021,0.45,0.032c0.104,0.013,0.215,0.021,0.316,0.033c0.104,0.012,0.22,0.021,0.321,0.033
			c0.021,0.001,0.021,0.008,0.044,0.009c0.021,0.003,0.04,0.01,0.062,0.014c0.39,0.076,0.724,0.282,0.944,0.575
			c0.247,0.32,0.375,0.734,0.312,1.167c-0.104,0.866-0.896,1.479-1.768,1.371c-2.487-0.312-4.959,0.027-7.219,0.965l-0.104,0.047
			c-0.793,0.347-1.164,1.266-0.824,2.063c0.341,0.802,1.271,1.182,2.066,0.842c4.604-1.941,9.965-0.539,13.032,3.412
			c3.062,3.951,3.104,9.49,0.078,13.472c-0.524,0.695-0.396,1.688,0.306,2.215c0.688,0.524,1.674,0.394,2.203-0.289l0.178-0.229
			c1.403-1.922,2.313-4.181,2.61-6.606c0.104-0.865,0.896-1.479,1.769-1.371c0.438,0.055,0.813,0.278,1.059,0.6
			c0.229,0.292,0.353,0.666,0.314,1.061c-0.002,0.021,0,0.04-0.002,0.063c0,0.015,0.002,0.029,0,0.044
			c-0.019,0.11-0.029,0.217-0.051,0.326c-0.021,0.104-0.027,0.211-0.05,0.314c-0.021,0.15-0.057,0.301-0.075,0.449
			c-0.021,0.103-0.039,0.201-0.063,0.301c-0.031,0.159-0.063,0.317-0.104,0.477c-0.021,0.061-0.029,0.12-0.046,0.181
			c-0.569,2.304-1.604,4.44-3.021,6.308c-0.518,0.694-0.375,1.676,0.313,2.196c0.688,0.521,1.653,0.395,2.188-0.281
			c0.271-0.352,0.521-0.711,0.771-1.079c0.002-0.005,0.006-0.01,0.01-0.015c0.02-0.017,0.021-0.033,0.033-0.053
			c0.002-0.002,0.004-0.007,0.008-0.01c0.729-1.11,1.354-2.291,1.854-3.529c0-0.003,0.003-0.006,0.009-0.008
			c0-0.002,0.004-0.003,0.004-0.004c0.334-0.8,1.246-1.185,2.054-0.856c0.271,0.108,0.486,0.281,0.646,0.493
			c0.323,0.42,0.436,0.993,0.229,1.521c-0.021,0.051-0.038,0.104-0.062,0.151c-0.077,0.194-0.161,0.388-0.25,0.579
			c-0.04,0.093-0.077,0.187-0.122,0.276c-0.094,0.197-0.188,0.393-0.276,0.587c-0.039,0.082-0.078,0.165-0.119,0.247
			c-0.104,0.216-0.229,0.429-0.344,0.641c-0.029,0.061-0.063,0.119-0.1,0.176c-0.146,0.266-0.303,0.525-0.457,0.783
			c-0.015,0.019-0.021,0.033-0.023,0.05c-0.004,0.006-0.006,0.013-0.014,0.019c-0.12,0.2-0.25,0.396-0.381,0.595
			c-0.021,0.042-0.063,0.084-0.085,0.127c-0.004,0.005-0.009,0.01-0.015,0.016c-0.07,0.109-0.146,0.219-0.229,0.326
			c-0.056,0.071-0.104,0.146-0.146,0.215c-0.021,0.022-0.032,0.048-0.055,0.069c-0.143,0.19-0.271,0.38-0.409,0.567
			c-0.521,0.693-0.396,1.688,0.307,2.214c0.688,0.528,1.688,0.392,2.222-0.303c7.34-9.67,7.264-23.124-0.189-32.721
			c-7.446-9.594-20.471-13-31.646-8.28C413.182,110.476,412.805,111.403,413.143,112.208z M446.061,144.572
			c-0.027,0.078-0.063,0.156-0.104,0.233C445.99,144.728,446.026,144.65,446.061,144.572z M445.653,145.439
			c-0.035,0.065-0.063,0.136-0.104,0.203C445.586,145.575,445.615,145.506,445.653,145.439z M445.191,146.324
			c-0.021,0.045-0.055,0.092-0.074,0.138C445.143,146.417,445.164,146.369,445.191,146.324z M446.328,143.944
			c0.021-0.044,0.035-0.09,0.063-0.135c-0.005,0.012-0.011,0.022-0.02,0.037C446.357,143.879,446.344,143.911,446.328,143.944z"/>
		<path fill="#363532" d="M443.289,149.252c0.009-0.009,0.021-0.015,0.021-0.021c0.141-0.176,0.268-0.354,0.396-0.535
			C443.566,148.882,443.43,149.068,443.289,149.252z"/>
	</g>
	<g id="mouse">
		<path opacity="0.8" fill="#2980B9" enable-background="new    " d="M975.604,484.259c-0.004-0.003-0.016-0.011-0.02-0.013
			c-9.787-7.229-23.595-5.188-30.863,4.563c-0.033,0.043-0.066,0.081-0.104,0.119l-0.12,0.162l-24.63,33.294
			c-0.062,0.087-0.172,0.298-0.239,0.372l-1.271,1.764l0.006,0.011c-7.248,9.896-5.045,23.509,4.729,30.729
			c9.813,7.261,23.707,5.104,30.896-4.615l26.225-35.457C987.466,505.384,985.421,491.518,975.604,484.259z"/>
		<g>
			<g>
				<path fill="#CCD1D9" d="M950.519,488.136c-0.023,0.043-0.063,0.081-0.104,0.12l-0.116,0.161l-24.63,33.294
					c-0.063,0.087-0.12,0.182-0.19,0.258l-1.219,1.646l0.004,0.002c-7.316,10.057-5.097,23.624,4.675,30.853l52.45-70.896
					C971.589,476.339,957.791,478.385,950.519,488.136z"/>
				<path fill="#E6E9ED" d="M981.396,483.579c-0.01-0.003-0.021-0.008-0.021-0.011l-52.447,70.898
					c9.813,7.27,23.686,5.163,30.869-4.56l-0.086-0.063c-0.002-0.001-0.002-0.001-0.002-0.001s0,0,0.002,0.001l0.086,0.063
					l26.207-35.429C993.271,504.677,991.212,490.843,981.396,483.579z"/>
			</g>
		</g>
	</g>
	<g id="iphone">
		<path opacity="0.8" fill="#2980B9" enable-background="new    " d="M960.569,183.469l38.502-44.066
			c3.021-3.461,2.666-8.771-0.797-11.794l-88.143-77.004c-3.463-3.025-8.771-2.666-11.793,0.796l-38.5,44.063
			c-3.021,3.464-2.67,8.77,0.793,11.797l88.131,77.003C952.233,187.288,957.544,186.932,960.569,183.469z"/>
		<path fill="#434A54" d="M903.867,50.304l-38.5,44.064c-3.022,3.461-2.67,8.771,0.793,11.794l88.134,77.003
			c3.461,3.025,8.771,2.668,11.795-0.796l38.504-44.063c3.021-3.461,2.666-8.771-0.797-11.795l-88.133-77.004
			C912.199,46.485,906.896,46.844,903.867,50.304z"/>
		<path fill="#586273" d="M991.996,127.306l-38.5,44.065L871.673,99.88c0-0.007,0-0.015,0-0.021l38.479-44.042
			c0.006-0.003,0.017-0.002,0.021-0.003L991.996,127.306z"/>
		
			<rect x="972.958" y="152.889" transform="matrix(-0.658 0.753 -0.753 -0.658 1740.2563 -480.4258)" fill="#434A54" width="12.538" height="4.176"/>
		<path fill="#F7F9F8" d="M871.673,99.859c0,0.007,0,0.015,0,0.021l81.823,71.492l38.5-44.065l-81.819-71.492
			c-0.009,0.001-0.019,0-0.021,0.003L871.673,99.859z"/>
		<path fill="#44C650" d="M935.56,94.342l-5.475-2.599c-0.57-0.271-1.515-0.283-2.091-0.021l-9.241,4.342
			c-0.006,0.002-0.011,0.005-0.015,0.007l-1.287-1.126c-0.396-2.214-1.729-4.557-3.854-6.419l-1.717-1.5
			c-3.028-2.647-7.519-2.466-10.021,0.4l0,0l0,0l0,0c-2.521,2.866-2.08,7.34,0.938,9.985l1.729,1.499
			c2.135,1.862,4.635,2.868,6.881,2.957l1.287,1.126c0,0.002-0.016,0.008-0.021,0.011l-3.063,9.745
			c-0.188,0.604-0.045,1.533,0.304,2.064l3.313,5.075c0.349,0.525,0.972,0.57,1.386,0.096l10.604-12.143l0,0L935.826,95.7
			C936.255,95.225,936.13,94.614,935.56,94.342z"/>
		
			<rect x="918.811" y="113.396" transform="matrix(-0.6579 0.7531 -0.7531 -0.6579 1641.8015 -510.0366)" fill="#DCE4E8" width="35.867" height="8.97"/>
		
			<rect x="929.049" y="122.375" transform="matrix(-0.658 0.753 -0.753 -0.658 1665.619 -502.7584)" fill="#DCE4E8" width="35.86" height="8.969"/>
		
			<rect x="947.934" y="131.257" transform="matrix(-0.658 0.753 -0.753 -0.658 1688.7507 -495.512)" fill="#DCE4E8" width="17.933" height="8.964"/>
		<circle fill="#586273" cx="937.946" cy="137.03" r="1.682"/>
		<circle fill="#586273" cx="943.847" cy="130.277" r="1.681"/>
		<circle fill="#586273" cx="940.896" cy="133.653" r="1.681"/>
		<path fill="#586273" d="M947.903,125.635c0.688,0.609,0.771,1.672,0.146,2.371c-0.604,0.699-1.679,0.771-2.373,0.16
			c-0.688-0.609-0.771-1.674-0.146-2.374C946.142,125.097,947.201,125.025,947.903,125.635z"/>
		<circle fill="#586273" cx="927.815" cy="128.179" r="1.681"/>
		<circle fill="#586273" cx="939.615" cy="114.674" r="1.681"/>
		<circle fill="#586273" cx="933.716" cy="121.427" r="1.681"/>
		<circle fill="#586273" cx="930.767" cy="124.804" r="1.681"/>
		<circle fill="#586273" cx="936.666" cy="118.051" r="1.682"/>
		
			<rect x="952.648" y="134.61" transform="matrix(-0.6578 0.7531 -0.7531 -0.6578 1689.175 -495.4686)" fill="#E74C3C" width="8.966" height="2.693"/>
		<path fill="none" d="M903.867,50.305l-29.883,34.212l113.553,73.266l17.056-19.475c3.022-3.461,2.666-8.771-0.797-11.795
			L915.662,49.51C912.199,46.485,906.896,46.844,903.867,50.305z"/>
	</g>
	<g id="matita1">
		<polygon opacity="0.8" fill="#2980B9" enable-background="new    " points="1117.845,319.321 1055.812,191.27 1050.479,193.855 
			1045.142,196.44 1107.175,324.49 1112.511,321.906 		"/>
		<polygon fill="#2980B9" points="1121.599,337.266 1117.845,319.321 1107.175,324.49 1118.931,338.561 1122.851,343.246 		"/>
		<g>
			<g>
				<polygon fill="#58585C" points="1116.608,320.809 1057.158,198.096 1054.574,192.76 1049.239,195.346 1111.274,323.395 				"/>
				<polygon fill="#58585C" points="1116.608,320.809 1121.944,318.227 1059.908,190.174 1054.574,192.76 1057.158,198.096 				"/>
			</g>
			<g>
				<polygon fill="#464E5C" points="1126.948,342.152 1125.696,336.17 1123.028,337.465 				"/>
				<polygon fill="#F7D39A" points="1125.696,336.17 1121.944,318.227 1111.274,323.395 1123.028,337.465 				"/>
			</g>
			<g>
				
					<rect x="1056.372" y="206.584" transform="matrix(0.8998 -0.4362 0.4362 0.8998 15.3112 484.3008)" fill="#DA4453" width="11.859" height="4.447"/>
			</g>
		</g>
	</g>
	<g id="foglio2">
		<g>
			<g opacity="0.8">
				<g>
					<polygon fill="#2980B9" points="165.448,7.97 141.341,196.495 292.062,215.769 316.17,27.243 317.776,14.683 167.054,-4.591 
											"/>
				</g>
			</g>
			<g>
				<g>
					
						<rect x="156.342" y="14.11" transform="matrix(-0.9919 -0.1268 0.1268 -0.9919 448.8837 246.8118)" fill="#EBF4FF" width="151.912" height="190.016"/>
				</g>
			</g>
			<g>
				<g>
					
						<rect x="169.192" y="2.247" transform="matrix(-0.9919 -0.1268 0.1268 -0.9919 487.2287 48.1723)" fill="#44C650" width="151.912" height="12.66"/>
				</g>
			</g>
			<g>
				<g>
					
						<rect x="203.276" y="80.577" transform="matrix(0.9919 0.1268 -0.1268 0.9919 12.7103 -25.8742)" fill="none" width="12.663" height="12.662"/>
				</g>
			</g>
			<g>
				<g>
					
						<rect x="225.673" y="83.01" transform="matrix(-0.9919 -0.1267 0.1267 -0.9919 444.9168 200.6427)" fill="none" width="6.329" height="6.329"/>
				</g>
			</g>
			<g>
				<g>
					
						<rect x="180.368" y="66.455" transform="matrix(-0.9919 -0.1268 0.1268 -0.9919 413.5599 162.4038)" fill="#434A54" width="63.163" height="3.166"/>
				</g>
			</g>
			<g>
				<g>
					
						<rect x="249.534" y="73.885" transform="matrix(-0.9919 -0.1268 0.1268 -0.9919 528.4598 184.5811)" fill="#3498DB" width="41.144" height="3.166"/>
				</g>
			</g>
			<g>
				<g>
					
						<rect x="173.051" y="75.75" transform="matrix(-0.9919 -0.1268 0.1268 -0.9919 457.8284 183.8118)" fill="#3498DB" width="123.428" height="3.166"/>
				</g>
			</g>
			<g>
				<g>
					
						<rect x="178.887" y="77.015" transform="matrix(-0.9919 -0.1268 0.1268 -0.9919 377.8813 181.2538)" fill="#3498DB" width="31.648" height="3.164"/>
				</g>
			</g>
			<g>
				<g>
					
						<rect x="216.636" y="80.64" transform="matrix(-0.9919 -0.1269 0.1269 -0.9919 433.7005 192.0688)" fill="#434A54" width="12.662" height="3.165"/>
				</g>
			</g>
			<g>
				<g>
					
						<rect x="235.321" y="85.638" transform="matrix(-0.9919 -0.1268 0.1268 -0.9919 511.2662 206.9877)" fill="#3498DB" width="53.801" height="3.164"/>
				</g>
			</g>
			<g>
				<g>
					
						<rect x="163.043" y="126.05" transform="matrix(-0.9919 -0.1268 0.1268 -0.9919 340.103 276.9188)" fill="#434A54" width="31.648" height="3.164"/>
				</g>
			</g>
			<g>
				<g>
					
						<rect x="161.48" y="137.819" transform="matrix(-0.9919 -0.1269 0.1269 -0.9919 322.8773 299.3691)" fill="#434A54" width="18.987" height="3.165"/>
				</g>
			</g>
			<g>
				<g>
					
						<rect x="186.632" y="140.62" transform="matrix(-0.9919 -0.1269 0.1269 -0.9919 366.3191 307.7425)" fill="#434A54" width="12.66" height="3.166"/>
				</g>
			</g>
			<g>
				<g>
					
						<rect x="162.271" y="131.92" transform="matrix(-0.9919 -0.1268 0.1268 -0.9919 331.5269 288.107)" fill="#434A54" width="25.325" height="3.165"/>
				</g>
			</g>
			<g>
				<g>
					
						<rect x="160.634" y="144.892" transform="matrix(-0.9919 -0.1268 0.1268 -0.9919 332.9196 314.1409)" fill="#434A54" width="31.648" height="3.166"/>
				</g>
			</g>
			<g>
				<g>
					
						<rect x="165.819" y="90.245" transform="matrix(-0.9919 -0.1269 0.1269 -0.9919 354.6624 234.7373)" fill="#CCD1D9" width="37.981" height="31.65"/>
				</g>
			</g>
			<g>
				<g>
					
						<rect x="208.515" y="145.03" transform="matrix(-0.9919 -0.1268 0.1268 -0.9919 434.5766 320.8929)" fill="#434A54" width="37.978" height="3.164"/>
				</g>
			</g>
			<g>
				<g>
					
						<rect x="207.809" y="149.707" transform="matrix(-0.9919 -0.1268 0.1268 -0.9919 407.3657 328.5125)" fill="#434A54" width="12.661" height="3.166"/>
				</g>
			</g>
			<g>
				<g>
					
						<rect x="226.66" y="151.732" transform="matrix(-0.9919 -0.1269 0.1269 -0.9919 438.3311 334.563)" fill="#434A54" width="6.331" height="3.166"/>
				</g>
			</g>
			<g>
				<g>
					
						<rect x="209.401" y="137.534" transform="matrix(-0.9919 -0.1268 0.1268 -0.9919 418.3867 304.8651)" fill="#434A54" width="18.992" height="3.164"/>
				</g>
			</g>
			<g>
				<g>
					
						<rect x="234.536" y="140.354" transform="matrix(-0.9919 -0.1268 0.1268 -0.9919 461.7837 313.2762)" fill="#434A54" width="12.659" height="3.166"/>
				</g>
			</g>
			<g>
				<g>
					
						<rect x="210.14" y="132.073" transform="matrix(-0.9919 -0.1268 0.1268 -0.9919 433.1555 294.8853)" fill="#434A54" width="31.647" height="3.166"/>
				</g>
			</g>
			<g>
				<g>
					
						<rect x="212.93" y="96.244" transform="matrix(-0.9919 -0.1268 0.1268 -0.9919 447.7552 252.639)" fill="#CCD1D9" width="37.976" height="31.649"/>
				</g>
			</g>
			<g>
				<g>
					
						<rect x="257.216" y="138.496" transform="matrix(-0.9919 -0.1268 0.1268 -0.9919 532.4103 314.0552)" fill="#434A54" width="37.976" height="3.164"/>
				</g>
			</g>
			<g>
				<g>
					
						<rect x="255.652" y="150.273" transform="matrix(-0.9919 -0.1269 0.1269 -0.9919 515.1794 336.5371)" fill="#434A54" width="25.32" height="3.163"/>
				</g>
			</g>
			<g>
				<g>
					
						<rect x="257.513" y="143.168" transform="matrix(-0.9919 -0.1268 0.1268 -0.9919 507.2046 321.7867)" fill="#434A54" width="12.662" height="3.165"/>
				</g>
			</g>
			<g>
				<g>
					
						<rect x="254.878" y="156.138" transform="matrix(-0.9919 -0.1268 0.1268 -0.9919 506.6046 347.699)" fill="#434A54" width="18.987" height="3.165"/>
				</g>
			</g>
			<g>
				<g>
					
						<rect x="280.02" y="158.947" transform="matrix(-0.9919 -0.1268 0.1268 -0.9919 550.033 356.0752)" fill="#434A54" width="12.661" height="3.166"/>
				</g>
			</g>
			<g>
				<g>
					
						<rect x="275.311" y="146.013" transform="matrix(-0.9919 -0.1269 0.1269 -0.9919 548.5819 330.1331)" fill="#434A54" width="18.988" height="3.165"/>
				</g>
			</g>
			<g>
				<g>
					
						<rect x="260.029" y="102.271" transform="matrix(-0.9919 -0.1268 0.1268 -0.9919 540.8052 270.6169)" fill="#CCD1D9" width="37.975" height="31.647"/>
				</g>
			</g>
			<g>
				<g>
					
						<rect x="173.069" y="46.209" transform="matrix(-0.9919 -0.1268 0.1268 -0.9919 470.4615 135.0265)" fill="#CCD1D9" width="132.919" height="12.66"/>
				</g>
			</g>
			<g>
				<g>
					<g>
						
							<rect x="180.109" y="44.212" transform="matrix(-0.9919 -0.1268 0.1268 -0.9919 366.2019 114.8947)" fill="#E5E5E5" width="13.296" height="3.165"/>
					</g>
				</g>
			</g>
			<g>
				<g>
					<g>
						
							<rect x="199.839" y="42.845" transform="matrix(-0.9919 -0.1268 0.1268 -0.9919 418.3149 124.9788)" fill="#434A54" width="26.593" height="12.66"/>
					</g>
				</g>
				<g>
					<g>
						
							<rect x="206.49" y="47.581" transform="matrix(-0.9919 -0.1268 0.1268 -0.9919 418.3187 124.9538)" fill="#E5E5E5" width="13.293" height="3.163"/>
					</g>
				</g>
			</g>
			<g>
				<g>
					<g>
						
							<rect x="232.859" y="50.996" transform="matrix(-0.9919 -0.1269 0.1269 -0.9919 470.4032 135.1292)" fill="#E5E5E5" width="13.296" height="3.165"/>
					</g>
				</g>
			</g>
			<g>
				<g>
					<g>
						
							<rect x="259.244" y="54.343" transform="matrix(-0.9919 -0.1268 0.1268 -0.9919 522.5466 145.1111)" fill="#E5E5E5" width="13.295" height="3.165"/>
					</g>
				</g>
			</g>
			<g>
				<g>
					<g>
						
							<rect x="285.627" y="57.709" transform="matrix(-0.9919 -0.1268 0.1268 -0.9919 574.6708 155.1629)" fill="#E5E5E5" width="13.294" height="3.166"/>
					</g>
				</g>
			</g>
			<g>
				<g>
					<g>
						
							<rect x="178.839" y="28.902" transform="matrix(-0.9919 -0.1268 0.1268 -0.9919 428.0185 88.215)" fill="#CCD1D9" width="75.957" height="3.164"/>
					</g>
				</g>
				<g>
					<g>
						
							<rect x="179.862" y="19.013" transform="matrix(-0.9919 -0.1268 0.1268 -0.9919 374.5753 65.0371)" fill="#CCD1D9" width="18.992" height="3.166"/>
					</g>
				</g>
			</g>
			<g>
				<g>
					
						<rect x="156.997" y="165.6" transform="matrix(-0.9919 -0.1268 0.1268 -0.9919 422.5092 383.4178)" fill="#CCD1D9" width="132.924" height="25.322"/>
				</g>
			</g>
		</g>
	</g>
	<g id="foglio1">
		
			<rect x="-6.737" y="-5.904" transform="matrix(-0.9495 0.3137 -0.3137 -0.9495 173.765 182.4534)" fill="#2980B9" width="157.879" height="222.223"/>
		<g>
			<g>
				<g>
					<g>
						
							<rect x="-36.777" y="26.938" transform="matrix(-0.3137 -0.9495 0.9495 -0.3137 -2.876 209.6737)" fill="#F7F9F8" width="222.226" height="157.876"/>
					</g>
				</g>
			</g>
			<g>
				
					<rect x="68.79" y="48.843" transform="matrix(-0.9495 0.3137 -0.3137 -0.9495 205.9137 70.552)" fill="#B7BFC7" width="56.981" height="5.999"/>
				
					<rect x="71.93" y="58.333" transform="matrix(-0.9495 0.3137 -0.3137 -0.9495 215.0113 88.0666)" fill="#DCE4E8" width="56.981" height="5.999"/>
				
					<rect x="75.067" y="67.831" transform="matrix(-0.9495 0.3137 -0.3137 -0.9495 224.1071 105.5984)" fill="#DCE4E8" width="56.98" height="5.999"/>
				
					<rect x="78.2" y="77.324" transform="matrix(-0.9495 0.3137 -0.3137 -0.9495 233.1912 123.1233)" fill="#DCE4E8" width="56.979" height="6"/>
			</g>
			
				<rect x="-12.21" y="42.879" transform="matrix(-0.9495 0.3137 -0.3137 -0.9495 121.1535 72.2601)" fill="#DCE4E8" width="133.946" height="5.998"/>
			
				<rect x="-18.481" y="13.896" transform="matrix(-0.9495 0.3137 -0.3137 -0.9495 102.9709 37.212)" fill="#B7BFC7" width="133.944" height="25.989"/>
			<g>
				
					<rect x="9.121" y="107.445" transform="matrix(-0.9495 0.3137 -0.3137 -0.9495 182.9948 191.4428)" fill="#DCE4E8" width="133.946" height="5.999"/>
				
					<rect x="12.26" y="116.938" transform="matrix(-0.9495 0.3137 -0.3137 -0.9495 192.0913 208.9671)" fill="#DCE4E8" width="133.945" height="6.001"/>
				
					<rect x="15.399" y="126.435" transform="matrix(-0.9495 0.3137 -0.3137 -0.9495 201.1878 226.4948)" fill="#DCE4E8" width="133.943" height="5.999"/>
			</g>
			<g>
				
					<rect x="33.589" y="181.504" transform="matrix(-0.9495 0.3137 -0.3137 -0.9495 253.9263 328.1477)" fill="#DCE4E8" width="133.945" height="5.999"/>
				
					<rect x="37.478" y="195.7" transform="matrix(-0.9495 0.3137 -0.3137 -0.9495 236.7349 359.307)" fill="#DCE4E8" width="103.962" height="6.001"/>
			</g>
			<g>
				
					<rect x="22.477" y="151.53" transform="matrix(-0.9495 0.3137 -0.3137 -0.9495 179.016 280.2533)" fill="#B7BFC7" width="88.965" height="5.999"/>
				
					<rect x="25.615" y="161.029" transform="matrix(-0.9495 0.3137 -0.3137 -0.9495 188.1098 297.7861)" fill="#DCE4E8" width="88.962" height="5.998"/>
				
					<rect x="28.763" y="170.523" transform="matrix(-0.9495 0.3137 -0.3137 -0.9495 197.2256 315.3078)" fill="#DCE4E8" width="88.963" height="5.998"/>
				
					<rect x="120.951" y="128.457" transform="matrix(-0.9496 0.3136 -0.3136 -0.9496 314.3042 232.3735)" fill="#44C650" width="35.025" height="26.015"/>
			</g>
			<g>
				
					<rect x="1.635" y="80.1" transform="matrix(-0.9495 0.3137 -0.3137 -0.9495 40.7846 189.6259)" fill="#DCE4E8" width="7.001" height="35.99"/>
				
					<rect x="11.132" y="76.938" transform="matrix(-0.9495 0.3139 -0.3139 -0.9495 58.3254 180.4933)" fill="#DCE4E8" width="7" height="36.008"/>
				
					<rect x="20.628" y="73.79" transform="matrix(-0.9495 0.3139 -0.3139 -0.9495 75.8488 171.3769)" fill="#DCE4E8" width="7" height="36.01"/>
				
					<rect x="30.13" y="70.661" transform="matrix(-0.9495 0.3139 -0.3139 -0.9495 93.3904 162.283)" fill="#DCE4E8" width="7" height="35.998"/>
				
					<rect x="39.601" y="67.543" transform="matrix(-0.9495 0.3137 -0.3137 -0.9495 110.8552 153.2316)" fill="#DCE4E8" width="6.999" height="35.982"/>
				
					<rect x="49.088" y="64.402" transform="matrix(-0.9496 0.3134 -0.3134 -0.9496 128.3481 144.1649)" fill="#DCE4E8" width="6.999" height="35.992"/>
				
					<rect x="58.613" y="61.252" transform="matrix(-0.9495 0.3137 -0.3137 -0.9495 145.9533 135.0128)" fill="#DCE4E8" width="7.001" height="35.996"/>
				
					<rect x="4.791" y="99.589" transform="matrix(-0.9496 0.3135 -0.3135 -0.9496 49.9004 207.1508)" fill="#E74C3C" width="7.002" height="15.999"/>
				
					<rect x="13.805" y="93.503" transform="matrix(-0.9495 0.3138 -0.3138 -0.9495 66.0565 195.3697)" fill="#E74C3C" width="6.999" height="18.997"/>
				
					<rect x="24.368" y="97.214" transform="matrix(-0.9495 0.3137 -0.3137 -0.9495 86.7108 192.4747)" fill="#E74C3C" width="7.001" height="12.001"/>
				
					<rect x="32.312" y="84.314" transform="matrix(-0.9495 0.3136 -0.3136 -0.9495 99.7096 174.5838)" fill="#E74C3C" width="7" height="21.996"/>
				
					<rect x="41.179" y="77.281" transform="matrix(-0.9495 0.3137 -0.3137 -0.9495 115.4232 161.9937)" fill="#E74C3C" width="7.002" height="26.003"/>
				
					<rect x="53.814" y="93.628" transform="matrix(-0.9495 0.3138 -0.3138 -0.9495 142.0509 170.3934)" fill="#E74C3C" width="7" height="5.999"/>
				
					<rect x="61.717" y="80.769" transform="matrix(-0.9496 0.3134 -0.3134 -0.9496 154.97 152.6259)" fill="#E74C3C" width="7.002" height="15.997"/>
			</g>
		</g>
	</g>
	<g id="occhiali">
		<g>
			<g>
				<path fill="#586273" d="M134.9,124.489c-1.321-0.233-2.208-1.495-1.975-2.817c1.628-9.25-4.572-18.098-13.821-19.726
					L32.842,86.758c-1.323-0.231-2.207-1.493-1.974-2.816c0.23-1.323,1.492-2.208,2.814-1.977l86.262,15.188
					c11.895,2.094,19.863,13.471,17.771,25.363C137.483,123.837,136.222,124.722,134.9,124.489z"/>
			</g>
		</g>
		<g>
			<g>
				<g>
					<path fill="#586273" d="M134.9,124.489c-1.321-0.233-2.208-1.495-1.975-2.817c1.628-9.25-4.572-18.098-13.821-19.726
						L32.842,86.758c-1.323-0.231-2.207-1.493-1.974-2.816c0.23-1.323,1.492-2.208,2.814-1.977l86.262,15.188
						c11.895,2.094,19.863,13.471,17.771,25.363C137.483,123.837,136.222,124.722,134.9,124.489z"/>
				</g>
			</g>
			<g>
				<g>
					<path fill="#586273" d="M39.051,107.614c-1.323-0.232-2.206-1.495-1.973-2.817c2.094-11.892,13.471-19.861,25.359-17.77
						l86.265,15.187c1.32,0.233,2.208,1.495,1.974,2.818c-0.232,1.323-1.494,2.208-2.817,1.974L61.596,91.82
						c-9.248-1.628-18.098,4.571-19.727,13.82C41.637,106.963,40.375,107.848,39.051,107.614z"/>
				</g>
			</g>
		</g>
		<g opacity="0.3">
			<g>
				<g>
					<path fill="#EFEEEE" d="M77.812,111.969c-0.928,5.271-5.999,8.823-11.271,7.896l-28.755-5.062
						c-5.271-0.93-8.825-6-7.896-11.271l3.374-19.17c0.929-5.272,6.001-8.825,11.271-7.897l28.755,5.063
						c5.271,0.928,8.821,6,7.896,11.271L77.812,111.969z"/>
				</g>
			</g>
		</g>
		<g opacity="0.3">
			<g>
				<g>
					<path fill="#EFEEEE" d="M144.905,123.78c-0.928,5.271-6,8.826-11.271,7.896l-28.756-5.063
						c-5.272-0.928-8.826-6.001-7.897-11.272l3.375-19.169c0.931-5.271,6-8.824,11.272-7.896l28.755,5.062
						c5.271,0.93,8.825,6,7.896,11.272L144.905,123.78z"/>
				</g>
			</g>
		</g>
		<g>
			<g>
				<path fill="#586273" d="M97.403,112.948c-1.32-0.233-2.207-1.495-1.974-2.819c0.698-3.964-1.959-7.756-5.923-8.454
					c-3.963-0.696-7.756,1.959-8.454,5.925c-0.233,1.321-1.493,2.208-2.818,1.975c-1.319-0.232-2.206-1.495-1.974-2.818
					c1.164-6.604,7.484-11.033,14.09-9.872c6.607,1.163,11.035,7.485,9.872,14.092C99.989,112.296,98.727,113.181,97.403,112.948z"
					/>
			</g>
		</g>
		<g opacity="0.3">
			<path fill="#EFEEEE" d="M44.473,76.82c-5.271-0.928-10.212,2.282-11.14,7.554l-3.375,19.17c-0.931,5.271,2.48,10.76,7.753,11.688
				l14.121,2.484l6.762-38.407L44.473,76.82z"/>
		</g>
		<g opacity="0.3">
			<path fill="#EFEEEE" d="M111.566,88.632c-5.271-0.928-9.351,2.435-10.276,7.706l-3.375,19.168
				c-0.93,5.272,1.616,10.606,6.892,11.535l13.998,2.465l6.762-38.408L111.566,88.632z"/>
		</g>
		<g>
			<g>
				<path fill="none" d="M139.961,95.736l-28.755-5.063c-3.963-0.696-7.756,1.958-8.454,5.924l-3.375,19.169
					c-0.698,3.963,1.959,7.757,5.923,8.455l28.755,5.062c3.963,0.697,7.754-1.961,8.452-5.924l3.375-19.169
					C146.581,100.224,143.925,96.433,139.961,95.736z"/>
			</g>
			<g>
				<path fill="none" d="M72.868,83.924l-28.758-5.062c-3.962-0.698-7.755,1.958-8.451,5.922l-3.375,19.169
					c-0.697,3.963,1.961,7.757,5.923,8.455l28.755,5.063c3.964,0.695,7.756-1.96,8.454-5.926l3.375-19.169
					C79.489,88.414,76.832,84.622,72.868,83.924z"/>
			</g>
			<g>
				<path fill="#586273" d="M73.712,79.13l-28.755-5.062c-6.605-1.163-12.929,3.266-14.089,9.873l-3.375,19.169
					c-1.163,6.604,3.266,12.927,9.868,14.09l28.758,5.063c6.604,1.16,12.925-3.268,14.088-9.872l3.375-19.169
					C84.746,86.613,80.318,80.293,73.712,79.13z M75.417,111.547c-0.698,3.965-4.49,6.621-8.454,5.926l-28.755-5.063
					c-3.962-0.698-6.62-4.492-5.923-8.455l3.375-19.169c0.695-3.964,4.488-6.62,8.451-5.922l28.758,5.062
					c3.964,0.698,6.621,4.49,5.923,8.454L75.417,111.547z"/>
			</g>
			<g>
				<path fill="#586273" d="M140.806,90.942L112.05,85.88c-6.607-1.163-12.926,3.267-14.09,9.873l-3.375,19.168
					c-1.164,6.607,3.264,12.93,9.872,14.092l28.755,5.062c6.604,1.163,12.926-3.265,14.089-9.872l3.375-19.169
					C151.839,98.427,147.411,92.105,140.806,90.942z M142.508,123.358c-0.698,3.963-4.489,6.621-8.452,5.924l-28.755-5.062
					c-3.963-0.697-6.621-4.492-5.923-8.455l3.375-19.169c0.698-3.966,4.491-6.62,8.454-5.924l28.755,5.063
					c3.963,0.697,6.619,4.488,5.921,8.453L142.508,123.358z"/>
			</g>
		</g>
	</g>
	<g id="calcolatrice">
		<path opacity="0.8" fill="#2980B9" enable-background="new    " d="M1185.925,37.422l-33.881-36.096
			c-2.638-2.807-7.089-2.948-9.896-0.313l-53.904,50.597c-2.812,2.635-2.944,7.087-0.312,9.895l33.882,36.098
			c2.646,2.807,7.093,2.945,9.896,0.312l53.905-50.596C1188.418,44.682,1188.561,40.229,1185.925,37.422z"/>
		<g>
			<path fill="#F7F9F8" d="M1092.242,51.61c-2.812,2.635-2.944,7.087-0.312,9.895l33.882,36.098
				c2.646,2.807,7.093,2.945,9.896,0.312l53.904-50.596c2.81-2.635,2.938-7.087,0.313-9.896l-33.881-36.096
				c-2.638-2.807-7.089-2.948-9.896-0.313L1092.242,51.61z"/>
			<g>
				
					<rect x="1128.662" y="23.069" transform="matrix(-0.6844 -0.7291 0.7291 -0.6844 1888.7439 873.0651)" fill="#E74C3C" width="9.343" height="9.348"/>
				
					<rect x="1138.182" y="33.345" transform="matrix(-0.6844 -0.7291 0.7291 -0.6844 1897.2966 897.3086)" fill="#E74C3C" width="9.346" height="9.346"/>
				
					<rect x="1147.848" y="43.54" transform="matrix(-0.6844 -0.7291 0.7291 -0.6844 1906.1567 921.5217)" fill="#E74C3C" width="9.349" height="9.346"/>
				
					<rect x="1157.443" y="53.767" transform="matrix(-0.6844 -0.7291 0.7291 -0.6844 1914.8623 945.7441)" fill="#E74C3C" width="9.349" height="9.345"/>
				
					<rect x="1118.405" y="32.609" transform="matrix(-0.6845 -0.729 0.729 -0.6845 1864.6577 881.5329)" fill="#E74C3C" width="9.349" height="9.345"/>
				
					<rect x="1128.093" y="42.847" transform="matrix(-0.6844 -0.7291 0.7291 -0.6844 1873.4359 905.9036)" fill="#E74C3C" width="9.346" height="9.346"/>
				
					<rect x="1137.603" y="53.083" transform="matrix(-0.6842 -0.7293 0.7293 -0.6842 1881.7471 930.2909)" fill="#E74C3C" width="9.348" height="9.345"/>
				
					<rect x="1147.237" y="63.366" transform="matrix(-0.6844 -0.7291 0.7291 -0.6844 1890.6615 954.4775)" fill="#E74C3C" width="9.346" height="9.346"/>
				
					<rect x="1108.092" y="42.338" transform="matrix(-0.6842 -0.7293 0.7293 -0.6842 1839.8665 890.681)" fill="#E74C3C" width="9.346" height="9.348"/>
				
					<rect x="1117.798" y="52.523" transform="matrix(-0.6843 -0.7292 0.7292 -0.6843 1848.897 914.8155)" fill="#E74C3C" width="9.341" height="9.348"/>
				
					<rect x="1127.434" y="62.682" transform="matrix(-0.6844 -0.7291 0.7291 -0.6844 1857.8027 938.8869)" fill="#E74C3C" width="9.346" height="9.346"/>
				
					<rect x="1137.004" y="72.965" transform="matrix(-0.6844 -0.7291 0.7291 -0.6844 1866.4351 963.1804)" fill="#E74C3C" width="9.349" height="9.348"/>
				
					<rect x="1098.063" y="51.887" transform="matrix(-0.6846 -0.729 0.729 -0.6846 1816.3855 899.1335)" fill="#E74C3C" width="9.345" height="9.348"/>
				
					<rect x="1107.66" y="62.12" transform="matrix(-0.6846 -0.729 0.729 -0.6846 1825.0923 923.3691)" fill="#E74C3C" width="9.345" height="9.349"/>
				
					<rect x="1114.916" y="77.443" transform="matrix(-0.6844 -0.7291 0.7291 -0.6844 1837.7634 959.7332)" fill="#656D78" width="23.366" height="9.346"/>
			</g>
			
				<rect x="1135.65" y="20.946" transform="matrix(-0.6844 -0.7291 0.7291 -0.6844 1934.0925 897.7701)" fill="#2C3E50" width="51.399" height="18.69"/>
			
				<rect x="1165.503" y="32.366" transform="matrix(-0.6844 -0.7291 0.7291 -0.6844 1940.0864 913.8816)" fill="#ECF0F1" width="4.672" height="9.346"/>
			
				<rect x="1171.773" y="39.148" transform="matrix(-0.6847 -0.7288 0.7288 -0.6847 1946.0874 929.5427)" fill="#ECF0F1" width="4.671" height="9.351"/>
			
				<rect x="1152.662" y="18.801" transform="matrix(-0.6842 -0.7293 0.7293 -0.6842 1928.1213 881.8801)" fill="#ECF0F1" width="4.676" height="9.346"/>
			
				<rect x="1158.951" y="25.696" transform="matrix(-0.6844 -0.7291 0.7291 -0.6844 1933.8927 897.8869)" fill="#ECF0F1" width="4.669" height="9.349"/>
		</g>
	</g>
	<text id="hello" transform="matrix(1 0 0 1 30.7048 389.2097)" fill="#ECF0F1" font-family="'Roboto-Black'" font-size="120">hello</text>
	<g id="subtitle">
		
			<text id="scrolldown" transform="matrix(1 0 0 1 409.5745 389.2097)" fill="#F5ECD9" font-family="'Roboto-Regular'" font-size="14">scroll down</text>
		
			<text id="viewresume" transform="matrix(1 0 0 1 484.1746 389.2097)" fill="#DED6C7" font-family="'Roboto-Regular'" font-size="14">or just view my resume.</text>
	</g>
</g>
<g id="scrollthing">
	<rect x="969.689" y="-206.661" fill="#4CAEE5" width="14.722" height="170.528"/>
	<g id="moving">
		<rect id="scrollertop" x="971.3" y="-204.409" fill="#3498DB" width="11.501" height="81.576"/>
		<g id="cursor">
			<g>
				<polygon fill="#4CAEE5" points="949.01,-168.323 949.01,-167.301 944.918,-167.301 944.918,-165.409 944.865,-165.392 
					943.909,-165.392 943.909,-168.323 943.918,-168.323 944.918,-168.323 946.887,-168.323 946.887,-169.15 947.875,-169.15 
					947.875,-168.323 				"/>
				<polygon fill="#4CAEE5" points="947.851,-161.523 947.851,-159.579 946.845,-159.579 946.845,-159.581 946.845,-161.523 
					946.862,-161.523 				"/>
				<rect x="945.889" y="-170.146" fill="#4CAEE5" width="0.988" height="0.988"/>
				<polygon fill="#4CAEE5" points="946.862,-163.465 946.862,-161.523 946.845,-161.523 945.856,-161.523 945.856,-163.465 
					945.869,-163.465 				"/>
				<polygon fill="#4CAEE5" points="946.845,-159.579 946.845,-158.573 944.9,-158.573 944.9,-159.579 944.906,-159.581 
					946.845,-159.581 				"/>
				<rect x="944.892" y="-171.144" fill="#4CAEE5" width="0.988" height="0.988"/>
				<polygon fill="#4CAEE5" points="945.869,-165.409 945.869,-163.465 945.856,-163.465 944.865,-163.465 944.865,-165.392 
					944.918,-165.409 				"/>
				<polygon fill="#4CAEE5" points="944.906,-161.523 944.906,-159.581 944.9,-159.579 943.9,-159.579 943.9,-161.523 				"/>
				<rect x="943.896" y="-172.141" fill="#4CAEE5" width="0.982" height="0.988"/>
				<polygon fill="#4CAEE5" points="943.896,-161.523 943.896,-161.505 942.89,-161.505 942.89,-163.431 942.895,-163.448 
					943.896,-163.448 				"/>
				<rect x="942.898" y="-173.138" fill="#4CAEE5" width="0.983" height="0.988"/>
				<polygon fill="#4CAEE5" points="942.895,-165.375 942.895,-163.448 942.89,-163.431 941.889,-163.431 941.889,-165.357 
					941.889,-165.375 				"/>
				<rect x="941.901" y="-174.135" fill="#4CAEE5" width="0.983" height="0.988"/>
				<rect x="940.904" y="-175.134" fill="#4CAEE5" width="0.983" height="0.99"/>
				<polygon fill="#4CAEE5" points="941.889,-165.375 941.889,-165.357 940.893,-165.357 940.882,-165.4 940.882,-167.301 
					941.889,-167.301 				"/>
				<rect x="939.906" y="-176.13" fill="#4CAEE5" width="0.983" height="0.99"/>
				<polygon fill="#4CAEE5" points="940.893,-165.357 940.893,-164.412 939.903,-164.412 939.903,-165.4 940.882,-165.4 				"/>
				<rect x="938.907" y="-164.403" fill="#4CAEE5" width="0.988" height="0.988"/>
				<rect x="938.907" y="-177.127" fill="#4CAEE5" width="0.988" height="0.988"/>
				<polygon fill="#4CAEE5" points="938.905,-163.406 938.905,-162.416 937.916,-162.416 937.916,-161.607 936.908,-161.607 
					936.908,-179.061 937.916,-179.061 937.916,-178.125 938.901,-178.125 938.901,-177.136 937.916,-177.136 937.916,-163.406 				
					"/>
			</g>
		</g>
	</g>
</g>
</svg>
