<?xml version="1.0" encoding="utf-8"?>
<!-- Generator: Adobe Illustrator 16.0.0, SVG Export Plug-In . SVG Version: 6.00 Build 0)  -->
<!DOCTYPE svg PUBLIC "-//W3C//DTD SVG 1.1//EN" "http://www.w3.org/Graphics/SVG/1.1/DTD/svg11.dtd">
<svg version="1.1" id="svg3" xmlns="http://www.w3.org/2000/svg" xmlns:xlink="http://www.w3.org/1999/xlink" x="0px" y="0px"
	 width="1024px" height="768px" viewBox="0 0 1024 768" enable-background="new 0 0 1024 768" xml:space="preserve">
<g id="svgScene3">
	<rect x="-8168" y="-5681.615" fill="#44C650" width="16535.688" height="12159.689"/>
</g>
<g>
	<path fill="#459B45" d="M768.53,265.132L708.679,420.09l16.312,6.304l59.853-154.958L768.53,265.132z M772.746,278.476
		c-1.126-0.436-1.687-1.701-1.25-2.826c0.436-1.126,1.698-1.688,2.826-1.252c1.126,0.438,1.688,1.701,1.252,2.828
		C775.14,278.351,773.873,278.912,772.746,278.476z"/>
	<path fill="#F6BB42" d="M770.024,264.633l-59.853,154.958l16.312,6.304l59.85-154.958L770.024,264.633z M774.241,277.978
		c-1.126-0.437-1.687-1.701-1.25-2.826c0.435-1.127,1.698-1.688,2.825-1.253c1.127,0.438,1.688,1.702,1.253,2.828
		C776.634,277.852,775.368,278.413,774.241,277.978z"/>
	
		<rect x="763.451" y="281.811" transform="matrix(0.9328 0.3603 -0.3603 0.9328 153.1115 -257.2844)" fill="#FFFFFF" width="6.554" height="0.545"/>
	
		<rect x="757.272" y="298.151" transform="matrix(0.9328 0.3603 -0.3603 0.9328 158.601 -253.9806)" fill="#FFFFFF" width="6.557" height="0.545"/>
	
		<rect x="750.88" y="314.5" transform="matrix(0.9328 0.3603 -0.3603 0.9328 164.0929 -250.6109)" fill="#FFFFFF" width="6.556" height="0.547"/>
	
		<rect x="744.618" y="330.751" transform="matrix(0.9329 0.3602 -0.3602 0.9329 169.4659 -247.2013)" fill="#FFFFFF" width="6.557" height="0.544"/>
	
		<rect x="738.235" y="347.065" transform="matrix(0.9328 0.3603 -0.3603 0.9328 174.9458 -243.8364)" fill="#FFFFFF" width="6.557" height="0.544"/>
	
		<rect x="732.018" y="363.395" transform="matrix(0.9329 0.3602 -0.3602 0.9329 180.3797 -240.4702)" fill="#FFFFFF" width="6.557" height="0.545"/>
	
		<rect x="725.743" y="379.703" transform="matrix(0.9328 0.3604 -0.3604 0.9328 185.9527 -237.2191)" fill="#FFFFFF" width="6.557" height="0.549"/>
	
		<rect x="719.36" y="396.092" transform="matrix(0.9328 0.3603 -0.3603 0.9328 191.343 -233.7431)" fill="#FFFFFF" width="6.557" height="0.548"/>
	
		<rect x="713.165" y="412.269" transform="matrix(0.9328 0.3604 -0.3604 0.9328 196.8102 -230.469)" fill="#FFFFFF" width="6.558" height="0.548"/>
	
		<rect x="761.996" y="285.535" transform="matrix(0.9329 0.3602 -0.3602 0.9329 154.239 -256.0677)" fill="#FFFFFF" width="4.371" height="0.548"/>
	
		<rect x="760.398" y="289.605" transform="matrix(0.9328 0.3605 -0.3605 0.9328 155.7813 -255.4232)" fill="#FFFFFF" width="4.372" height="0.548"/>
	
		<rect x="758.784" y="293.665" transform="matrix(0.9328 0.3604 -0.3604 0.9328 157.092 -254.52)" fill="#FFFFFF" width="4.373" height="0.547"/>
	
		<rect x="757.282" y="297.756" transform="matrix(0.9328 0.3604 -0.3604 0.9328 158.4395 -253.6749)" fill="#FFFFFF" width="4.371" height="0.547"/>
	
		<rect x="755.759" y="301.883" transform="matrix(0.9329 0.3602 -0.3602 0.9329 159.7352 -252.7526)" fill="#FFFFFF" width="4.373" height="0.548"/>
	
		<rect x="754.126" y="305.931" transform="matrix(0.9329 0.3602 -0.3602 0.9329 161.0565 -251.8641)" fill="#FFFFFF" width="4.371" height="0.544"/>
	
		<rect x="752.541" y="310.009" transform="matrix(0.9326 0.3609 -0.3609 0.9326 162.8607 -251.485)" fill="#FFFFFF" width="4.37" height="0.544"/>
	
		<rect x="750.912" y="314.042" transform="matrix(0.933 0.36 -0.36 0.933 163.6455 -250.0391)" fill="#FFFFFF" width="4.37" height="0.548"/>
	
		<rect x="749.337" y="318.165" transform="matrix(0.9329 0.3602 -0.3602 0.9329 165.1237 -249.2991)" fill="#FFFFFF" width="4.374" height="0.548"/>
	
		<rect x="747.83" y="322.204" transform="matrix(0.9327 0.3607 -0.3607 0.9327 166.8258 -248.8411)" fill="#FFFFFF" width="4.369" height="0.545"/>
	
		<rect x="746.246" y="326.307" transform="matrix(0.9328 0.3605 -0.3605 0.9328 168.0602 -247.8537)" fill="#FFFFFF" width="4.372" height="0.545"/>
	
		<rect x="744.61" y="330.391" transform="matrix(0.9328 0.3603 -0.3603 0.9328 169.2838 -246.8502)" fill="#FFFFFF" width="4.375" height="0.547"/>
	
		<rect x="743.05" y="334.433" transform="matrix(0.9328 0.3605 -0.3605 0.9328 170.7753 -246.1548)" fill="#FFFFFF" width="4.372" height="0.547"/>
	
		<rect x="741.457" y="338.509" transform="matrix(0.933 0.3599 -0.3599 0.933 171.7725 -244.9489)" fill="#FFFFFF" width="4.371" height="0.546"/>
	
		<rect x="739.933" y="342.608" transform="matrix(0.9329 0.3601 -0.3601 0.9329 173.2399 -244.2169)" fill="#FFFFFF" width="4.369" height="0.547"/>
	
		<rect x="738.469" y="346.739" transform="matrix(0.9326 0.361 -0.361 0.9326 175.197 -243.9571)" fill="#FFFFFF" width="4.372" height="0.544"/>
	
		<rect x="736.76" y="350.785" transform="matrix(0.9329 0.3602 -0.3602 0.9329 176.0755 -242.6252)" fill="#FFFFFF" width="4.373" height="0.547"/>
	
		<rect x="735.199" y="354.856" transform="matrix(0.9328 0.3604 -0.3604 0.9328 177.5334 -241.8794)" fill="#FFFFFF" width="4.371" height="0.546"/>
	
		<rect x="733.638" y="358.922" transform="matrix(0.9328 0.3604 -0.3604 0.9328 178.8938 -241.0438)" fill="#FFFFFF" width="4.371" height="0.545"/>
	
		<rect x="732.076" y="363.023" transform="matrix(0.9327 0.3606 -0.3606 0.9327 180.3923 -240.3209)" fill="#FFFFFF" width="4.371" height="0.544"/>
	
		<rect x="730.504" y="367.101" transform="matrix(0.9327 0.3607 -0.3607 0.9327 181.8057 -239.5239)" fill="#FFFFFF" width="4.37" height="0.544"/>
	
		<rect x="728.934" y="371.24" transform="matrix(0.9328 0.3605 -0.3605 0.9328 183.0952 -238.5912)" fill="#FFFFFF" width="4.372" height="0.547"/>
	
		<rect x="727.328" y="375.299" transform="matrix(0.9329 0.3602 -0.3602 0.9329 184.2442 -237.5555)" fill="#FFFFFF" width="4.371" height="0.548"/>
	
		<rect x="725.751" y="379.385" transform="matrix(0.933 0.3599 -0.3599 0.933 185.4323 -236.5566)" fill="#FFFFFF" width="4.371" height="0.548"/>
	
		<rect x="724.211" y="383.405" transform="matrix(0.9328 0.3605 -0.3605 0.9328 187.1627 -236.0704)" fill="#FFFFFF" width="4.372" height="0.544"/>
	
		<rect x="722.638" y="387.48" transform="matrix(0.9328 0.3603 -0.3603 0.9328 188.3965 -235.1173)" fill="#FFFFFF" width="4.372" height="0.547"/>
	
		<rect x="721.019" y="391.575" transform="matrix(0.9331 0.3596 -0.3596 0.9331 189.2715 -233.8397)" fill="#FFFFFF" width="4.373" height="0.548"/>
	
		<rect x="719.509" y="395.643" transform="matrix(0.933 0.36 -0.36 0.933 190.9158 -233.2628)" fill="#FFFFFF" width="4.37" height="0.546"/>
	
		<rect x="717.93" y="399.719" transform="matrix(0.9329 0.3601 -0.3601 0.9329 192.358 -232.4891)" fill="#FFFFFF" width="4.371" height="0.545"/>
	
		<rect x="716.303" y="403.737" transform="matrix(0.9329 0.3601 -0.3601 0.9329 193.696 -231.6337)" fill="#FFFFFF" width="4.371" height="0.545"/>
	
		<rect x="714.8" y="407.743" transform="matrix(0.933 0.36 -0.36 0.933 194.9356 -230.7397)" fill="#FFFFFF" width="4.373" height="0.548"/>
	
		<rect x="713.18" y="411.939" transform="matrix(0.9331 0.3597 -0.3597 0.9331 196.1215 -229.7004)" fill="#FFFFFF" width="4.372" height="0.548"/>
</g>
<g>
	<circle fill="#459B45" cx="59.401" cy="392.135" r="52.096"/>
	<circle fill="#F5ECD9" cx="63.401" cy="389.135" r="52.096"/>
	<circle fill="#2BACB5" cx="63.401" cy="389.135" r="39.072"/>
	
		<ellipse transform="matrix(-0.0845 -0.9964 0.9964 -0.0845 -343.1589 536.9869)" fill="#D8D8DA" cx="75.11" cy="426.139" rx="7.94" ry="11.907"/>
	<polygon fill="#D8D8DA" points="126.844,425.732 84.218,427.225 83.905,423.527 126.173,417.82 	"/>
	
		<ellipse transform="matrix(-0.0845 -0.9964 0.9964 -0.0845 -343.1456 536.9767)" fill="#95989F" cx="75.106" cy="426.124" rx="6.615" ry="9.922"/>
	<path fill="#FFFFFF" d="M107.468,360.924l-12.831,10.021c-2.126,1.659-5.196,1.282-6.854-0.845
		c-1.66-2.126-1.282-5.195,0.844-6.854l12.832-10.021c2.126-1.659,5.194-1.281,6.854,0.845
		C109.973,356.196,109.595,359.265,107.468,360.924z"/>
	<circle fill="#FFFFFF" cx="63.401" cy="389.135" r="35.816"/>
	<circle fill="#E6E7E8" cx="63.401" cy="389.136" r="32.235"/>
	<circle fill="#49433C" cx="63.4" cy="389.136" r="30.444"/>
	<path fill="#363532" d="M46.369,367.32c-12.029,9.392-14.176,26.817-4.783,38.846c0.554,0.709,1.577,0.836,2.285,0.282
		c0.709-0.554,0.835-1.575,0.281-2.284c-0.227-0.289-0.442-0.586-0.654-0.884c-0.059-0.081-0.114-0.162-0.171-0.243
		c-0.194-0.281-0.386-0.563-0.567-0.854c-0.059-0.098-0.114-0.188-0.173-0.283c-0.122-0.199-0.242-0.4-0.358-0.604
		c-0.078-0.135-0.156-0.271-0.229-0.404c-0.128-0.231-0.253-0.471-0.372-0.707c-0.094-0.186-0.184-0.367-0.271-0.557
		c-0.065-0.139-0.132-0.275-0.194-0.418c-0.078-0.174-0.156-0.347-0.23-0.521c-0.106-0.252-0.211-0.506-0.31-0.766
		c-0.064-0.162-0.124-0.334-0.186-0.5c-0.058-0.158-0.115-0.322-0.17-0.484c-0.052-0.152-0.104-0.311-0.152-0.461
		c-0.092-0.291-0.179-0.584-0.259-0.879c-0.029-0.107-0.057-0.219-0.084-0.322c-0.065-0.258-0.129-0.516-0.188-0.773
		c-0.02-0.084-0.038-0.166-0.057-0.248c-0.074-0.352-0.143-0.704-0.201-1.061c-0.004-0.021-0.008-0.038-0.011-0.057
		c-0.032-0.205-0.066-0.41-0.096-0.615c-0.021-0.155-0.038-0.313-0.057-0.467c-0.003-0.024-0.008-0.055-0.011-0.078
		c-0.09-0.771-0.142-1.535-0.156-2.305c0-0.01,0-0.018,0-0.021c-0.017-0.762,0.005-1.521,0.06-2.271
		c0.004-0.045,0.008-0.09,0.011-0.133c0.028-0.352,0.063-0.701,0.104-1.049c0.003-0.021,0.004-0.04,0.007-0.061
		c0.041-0.33,0.091-0.658,0.146-0.984c0.021-0.135,0.047-0.271,0.069-0.4c0.034-0.184,0.069-0.364,0.107-0.547
		c0.137-0.664,0.302-1.324,0.493-1.977c0.002-0.009,0.005-0.018,0.007-0.024c1.045-3.521,2.875-6.796,5.376-9.54
		c0.016-0.018,0.029-0.035,0.046-0.052c0.144-0.156,0.289-0.31,0.437-0.462c0.121-0.125,0.244-0.249,0.369-0.372
		c0.126-0.125,0.252-0.251,0.383-0.373c0.222-0.21,0.446-0.415,0.677-0.617c0.08-0.069,0.162-0.14,0.243-0.211
		c0.275-0.234,0.556-0.468,0.844-0.691c0.287-0.226,0.58-0.439,0.876-0.649c0.088-0.062,0.176-0.124,0.264-0.186
		c0.252-0.175,0.506-0.345,0.763-0.508c0.15-0.096,0.304-0.188,0.454-0.279c0.149-0.091,0.3-0.181,0.45-0.268
		c0.186-0.106,0.368-0.211,0.555-0.312c0.021-0.011,0.041-0.021,0.063-0.032c3.27-1.761,6.888-2.741,10.559-2.9
		c0.01-0.001,0.019-0.001,0.025-0.002c0.68-0.025,1.358-0.026,2.038,0.001c0.185,0.009,0.37,0.019,0.556,0.029
		c0.136,0.009,0.271,0.019,0.406,0.028c0.33,0.025,0.66,0.059,0.989,0.099c0.021,0.002,0.04,0.006,0.061,0.008
		c0.348,0.043,0.694,0.096,1.041,0.153c0.044,0.008,0.088,0.016,0.133,0.022c0.745,0.129,1.484,0.293,2.221,0.491
		c0.008,0.002,0.016,0.005,0.022,0.008c0.738,0.2,1.472,0.438,2.196,0.711c0.022,0.01,0.048,0.019,0.073,0.027
		c0.146,0.057,0.292,0.109,0.438,0.168c0.192,0.077,0.383,0.16,0.573,0.242c0.018,0.008,0.036,0.015,0.054,0.022
		c0.329,0.145,0.655,0.296,0.979,0.454c0.075,0.036,0.15,0.075,0.228,0.112c0.237,0.119,0.472,0.243,0.705,0.37
		c0.098,0.053,0.196,0.105,0.293,0.16c0.268,0.149,0.53,0.305,0.791,0.465c0.138,0.084,0.273,0.172,0.409,0.259
		c0.145,0.094,0.289,0.188,0.432,0.283c0.147,0.101,0.295,0.198,0.441,0.3c0.225,0.158,0.445,0.32,0.664,0.485
		c0.15,0.114,0.3,0.23,0.447,0.35c0.121,0.097,0.241,0.192,0.359,0.291c0.159,0.131,0.316,0.263,0.473,0.396
		c0.201,0.175,0.399,0.353,0.596,0.533c0.113,0.104,0.227,0.214,0.339,0.321c0.169,0.162,0.335,0.327,0.499,0.495
		c0.077,0.079,0.156,0.155,0.231,0.236c0.236,0.246,0.466,0.5,0.69,0.757c0.063,0.074,0.13,0.149,0.194,0.225
		c0.237,0.278,0.472,0.561,0.697,0.85c0.554,0.709,1.576,0.835,2.285,0.281c0.708-0.555,0.834-1.576,0.281-2.285
		C75.824,360.074,58.397,357.929,46.369,367.32z"/>
	<path fill="#363532" d="M86.746,377.466c-0.825,0.352-1.214,1.309-0.861,2.136c0.093,0.218,0.177,0.438,0.262,0.655
		c0.015,0.032,0.027,0.065,0.04,0.099c0,0.002,0.001,0.004,0.002,0.006c0.079,0.206,0.153,0.412,0.229,0.619
		c0.002,0.007,0.004,0.013,0.007,0.018c0.018,0.055,0.037,0.106,0.056,0.16c0.001,0.004,0.003,0.009,0.004,0.013
		c0.075,0.218,0.147,0.436,0.217,0.652c0.002,0.005,0.003,0.009,0.005,0.014c0.004,0.015,0.008,0.028,0.013,0.042
		c0.004,0.014,0.007,0.026,0.011,0.039c0.145,0.461,0.27,0.928,0.384,1.394c0.014,0.053,0.027,0.104,0.04,0.157
		c0.107,0.452,0.201,0.907,0.283,1.364c0.021,0.108,0.039,0.221,0.058,0.326c-0.012-0.062-0.02-0.125-0.029-0.188
		c0.011,0.063,0.02,0.129,0.03,0.192c0-0.002-0.001-0.006-0.001-0.006c0.023,0.146,0.047,0.295,0.068,0.441
		c-0.001-0.004-0.002-0.014-0.003-0.02c0.008,0.057,0.02,0.104,0.025,0.158c0,0.002,0,0.004,0,0.006
		c-0.007-0.05-0.017-0.103-0.022-0.146c0.009,0.062,0.018,0.129,0.025,0.189c0.062,0.578-0.186,1.123-0.615,1.459
		c-0.217,0.17-0.481,0.287-0.776,0.328c-0.885,0.123-1.7-0.49-1.833-1.373c0-0.002-0.001-0.002-0.001-0.004
		c-0.001-0.005-0.002-0.011-0.003-0.013c-0.188-1.36-0.514-2.698-0.962-3.991c-0.002-0.004-0.003-0.008-0.005-0.012
		c-0.006-0.021-0.014-0.04-0.021-0.061c-0.001-0.005-0.004-0.01-0.005-0.016c-0.151-0.429-0.316-0.854-0.494-1.273
		c-0.361-0.807-1.303-1.181-2.119-0.834c-0.819,0.35-1.205,1.292-0.869,2.114c0.95,2.223,1.436,4.613,1.425,7.059
		c-0.001,0.064,0,0.134,0,0.193c-0.003,0.166-0.01,0.332-0.017,0.5c-0.005,0.104-0.01,0.211-0.017,0.313
		c-0.01,0.154-0.021,0.312-0.033,0.469c-0.011,0.108-0.021,0.221-0.032,0.328c-0.012,0.111-0.021,0.227-0.033,0.336
		c-0.002,0.02-0.008,0.028-0.01,0.045c-0.004,0.021-0.011,0.041-0.016,0.062c-0.076,0.4-0.289,0.742-0.59,0.979
		c-0.329,0.261-0.755,0.392-1.201,0.334c-0.893-0.108-1.525-0.924-1.417-1.813c0.316-2.562-0.04-5.105-1.012-7.43l-0.05-0.101
		c-0.356-0.815-1.304-1.194-2.125-0.847c-0.825,0.352-1.214,1.308-0.862,2.139c2.014,4.733,0.581,10.26-3.479,13.432
		c-4.063,3.171-9.768,3.22-13.875,0.117c-0.718-0.541-1.738-0.397-2.279,0.315c-0.538,0.716-0.4,1.726,0.304,2.271l0.234,0.183
		c1.983,1.442,4.312,2.367,6.812,2.678c0.894,0.107,1.526,0.922,1.417,1.812c-0.055,0.445-0.285,0.828-0.613,1.086
		c-0.301,0.232-0.687,0.355-1.091,0.334c-0.021,0-0.042,0.002-0.063-0.002c-0.016-0.001-0.03,0.002-0.046,0
		c-0.113-0.016-0.224-0.033-0.336-0.051c-0.108-0.02-0.218-0.029-0.325-0.049c-0.155-0.023-0.309-0.055-0.462-0.08
		c-0.104-0.021-0.208-0.041-0.311-0.063c-0.164-0.032-0.327-0.064-0.489-0.104c-0.063-0.018-0.124-0.03-0.188-0.047
		c-2.374-0.58-4.578-1.635-6.504-3.096c-0.717-0.523-1.726-0.383-2.261,0.33c-0.536,0.709-0.4,1.711,0.295,2.258
		c0.362,0.275,0.734,0.537,1.114,0.787c0.005,0.004,0.009,0.007,0.014,0.012c0.019,0.014,0.035,0.021,0.054,0.033
		c0.003,0.006,0.009,0.006,0.012,0.01c1.146,0.748,2.362,1.387,3.64,1.898c0.003,0.002,0.006,0.004,0.009,0.006
		c0.001,0,0.003,0,0.005,0.002c0.824,0.344,1.222,1.283,0.888,2.111c-0.11,0.272-0.288,0.504-0.507,0.674
		c-0.432,0.336-1.021,0.442-1.566,0.242c-0.053-0.021-0.106-0.041-0.158-0.063c-0.2-0.082-0.399-0.168-0.598-0.256
		c-0.097-0.043-0.191-0.084-0.286-0.127c-0.203-0.092-0.403-0.188-0.604-0.289c-0.085-0.04-0.171-0.078-0.255-0.122
		c-0.223-0.11-0.441-0.229-0.661-0.351c-0.061-0.031-0.122-0.062-0.182-0.099c-0.272-0.149-0.541-0.31-0.807-0.472
		c-0.019-0.01-0.035-0.02-0.053-0.026c-0.006-0.004-0.012-0.006-0.018-0.011c-0.206-0.129-0.411-0.258-0.614-0.393
		c-0.044-0.025-0.088-0.059-0.131-0.086c-0.006-0.002-0.011-0.008-0.016-0.012c-0.113-0.074-0.226-0.15-0.337-0.229
		c-0.073-0.051-0.148-0.099-0.223-0.146c-0.023-0.021-0.048-0.035-0.071-0.056c-0.195-0.14-0.393-0.272-0.585-0.423
		c-0.719-0.541-1.74-0.396-2.28,0.317c-0.541,0.718-0.398,1.735,0.317,2.278c9.979,7.531,23.835,7.416,33.697-0.284
		c9.862-7.696,13.337-21.11,8.448-32.62C88.53,377.5,87.574,377.114,86.746,377.466z M53.499,411.451
		c-0.08-0.035-0.161-0.07-0.241-0.106C53.338,411.381,53.419,411.416,53.499,411.451z M52.604,411.033
		c-0.067-0.033-0.139-0.066-0.209-0.104C52.465,410.967,52.536,411,52.604,411.033z M51.692,410.561
		c-0.047-0.022-0.096-0.051-0.143-0.076C51.596,410.51,51.645,410.534,51.692,410.561z M54.146,411.729
		c0.046,0.021,0.093,0.037,0.141,0.059c-0.014-0.004-0.026-0.01-0.038-0.014C54.214,411.758,54.18,411.741,54.146,411.729z"/>
	<path fill="#363532" d="M48.672,408.609c0.009,0.009,0.016,0.018,0.023,0.021c0.183,0.141,0.366,0.271,0.552,0.396
		C49.053,408.895,48.861,408.754,48.672,408.609z"/>
	<path fill="#363532" d="M85.868,379.57c0.091,0.214,0.178,0.431,0.263,0.646c-0.081-0.206-0.16-0.413-0.247-0.618
		C85.879,379.589,85.873,379.581,85.868,379.57z"/>
</g>
<g>
	<g>
		<g>
			<polygon fill="#459B45" points="306.175,487.96 305.038,476.778 174.833,490.016 175.97,501.196 192.484,663.62 322.688,650.385 
							"/>
		</g>
	</g>
	<g>
		<g>
			
				<rect x="185.74" y="479.974" transform="matrix(-0.9949 0.1011 -0.1011 -0.9949 558.4437 1106.1829)" fill="#F5ECD9" width="130.903" height="174.536"/>
		</g>
	</g>
	<g>
		<g>
			
				<rect x="177.489" y="480.408" transform="matrix(-0.9949 0.1011 -0.1011 -0.9949 533.7726 945.0023)" fill="#E74C3C" width="130.902" height="11.239"/>
		</g>
	</g>
	<g>
		<g>
			
				<rect x="190.275" y="505.465" transform="matrix(-0.9949 0.1011 -0.1011 -0.9949 447.1357 990.9972)" fill="#EB9773" width="16.363" height="2.727"/>
		</g>
	</g>
	<g>
		<g>
			
				<rect x="189.761" y="500.298" transform="matrix(-0.9949 0.1011 -0.1011 -0.9949 440.1457 981.0164)" fill="#E25A5A" width="10.905" height="2.727"/>
		</g>
	</g>
	<g opacity="0.5">
		<g>
			
				<rect x="196.837" y="514.938" transform="matrix(-0.9949 0.1011 -0.1011 -0.9949 477.4924 1008.4063)" fill="#999999" width="32.722" height="2.726"/>
		</g>
	</g>
	<g opacity="0.5">
		<g>
			
				<rect x="201.806" y="563.475" transform="matrix(-0.9949 0.1011 -0.1011 -0.9949 497.6839 1104.4534)" fill="#999999" width="38.095" height="2.727"/>
		</g>
	</g>
	<g>
		<g>
			
				<rect x="234.755" y="511.063" transform="matrix(-0.9949 0.1011 -0.1011 -0.9949 552.756 996.8407)" fill="#999999" width="32.726" height="2.728"/>
		</g>
	</g>
	<g opacity="0.5">
		<g>
			
				<rect x="208.76" y="524.96" transform="matrix(-0.9949 0.1011 -0.1011 -0.9949 496.8228 1027.4639)" fill="#999999" width="27.227" height="2.725"/>
		</g>
	</g>
	<g>
		<g>
			
				<rect x="202.817" y="521.146" transform="matrix(-0.9949 0.1011 -0.1011 -0.9949 468.3791 1021.2848)" fill="#EB9773" width="10.994" height="2.727"/>
		</g>
	</g>
	<g>
		<g>
			
				<rect x="219.025" y="518.962" transform="matrix(-0.9949 0.1011 -0.1011 -0.9949 511.3353 1014.7375)" fill="#999999" width="21.86" height="2.727"/>
		</g>
	</g>
	<g opacity="0.5">
		<g>
			
				<rect x="249.069" y="597.562" transform="matrix(-0.9949 0.1011 -0.1011 -0.9949 584.5385 1168.2206)" fill="#999999" width="27.188" height="2.725"/>
		</g>
	</g>
	<g opacity="0.5">
		<g>
			
				<rect x="224.539" y="572.945" transform="matrix(-0.9949 0.1011 -0.1011 -0.9949 527.7934 1121.8691)" fill="#999999" width="21.859" height="2.727"/>
		</g>
	</g>
	<g opacity="0.5">
		<g>
			
				<rect x="251.725" y="569.635" transform="matrix(-0.9949 0.1011 -0.1011 -0.9949 592.5483 1111.9688)" fill="#999999" width="32.747" height="2.727"/>
		</g>
	</g>
	<g opacity="0.5">
		<g>
			
				<rect x="211.052" y="601.118" transform="matrix(-0.9949 0.1012 -0.1012 -0.9949 514.6592 1178.8523)" fill="#999999" width="32.751" height="2.726"/>
		</g>
	</g>
	<g opacity="0.5">
		<g>
			
				<rect x="214.805" y="529.798" transform="matrix(-0.9949 0.1011 -0.1011 -0.9949 514.7648 1036.2361)" fill="#999999" width="32.641" height="2.727"/>
		</g>
	</g>
	<g>
		<g>
			
				<rect x="252.669" y="525.105" transform="matrix(-0.9949 0.1012 -0.1012 -0.9949 606.2814 1022.1838)" fill="#999999" width="49.093" height="2.729"/>
		</g>
	</g>
	<g>
		<g>
			
				<rect x="195.785" y="559.606" transform="matrix(-0.9949 0.1011 -0.1011 -0.9949 463.6004 1098.442)" fill="#E25A5A" width="16.363" height="2.725"/>
		</g>
	</g>
	<g opacity="0.5">
		<g>
			
				<rect x="217.446" y="556.296" transform="matrix(-0.9949 0.1011 -0.1011 -0.9949 528.2263 1088.5442)" fill="#999999" width="38.159" height="2.726"/>
		</g>
	</g>
	<g>
		<g>
			
				<rect x="207.763" y="569.455" transform="matrix(-0.9949 0.1011 -0.1011 -0.9949 488.4297 1116.894)" fill="#999999" width="16.321" height="2.728"/>
		</g>
	</g>
	<g>
		<g>
			
				<rect x="213.781" y="574.873" transform="matrix(-0.9949 0.1012 -0.1012 -0.9949 490.2937 1127.6047)" fill="#E25A5A" width="5.54" height="2.727"/>
		</g>
	</g>
	<g>
		<g>
			
				<rect x="229.473" y="566.994" transform="matrix(-0.9949 0.1011 -0.1011 -0.9949 536.9115 1109.5024)" fill="#EB9773" width="21.732" height="2.727"/>
		</g>
	</g>
	<g>
		<g>
			
				<rect x="237.24" y="643.046" transform="matrix(-0.9949 0.1011 -0.1011 -0.9949 560.0969 1260.4286)" fill="#999999" width="21.731" height="2.726"/>
		</g>
	</g>
	<g>
		<g>
			
				<rect x="232.167" y="591.895" transform="matrix(-0.9949 0.1011 -0.1011 -0.9949 588.3199 1156.7007)" fill="#999999" width="65.366" height="2.727"/>
		</g>
	</g>
	<g opacity="0.5">
		<g>
			
				<rect x="256.604" y="564.504" transform="matrix(-0.9949 0.1011 -0.1011 -0.9949 585.396 1102.0601)" fill="#999999" width="16.32" height="2.727"/>
		</g>
	</g>
	<g opacity="0.5">
		<g>
			
				<rect x="241.328" y="522.6" transform="matrix(-0.9949 0.1012 -0.1012 -0.9949 545.3444 1020.2506)" fill="#999999" width="10.91" height="2.728"/>
		</g>
	</g>
	<g>
		<g>
			
				<rect x="219.71" y="578.111" transform="matrix(-0.9949 0.1011 -0.1011 -0.9949 534.9294 1131.8352)" fill="#999999" width="38.139" height="2.727"/>
		</g>
	</g>
	<g opacity="0.5">
		<g>
			
				<rect x="212.633" y="616.555" transform="matrix(-0.9949 0.1011 -0.1011 -0.9949 541.0435 1208.4187)" fill="#999999" width="54.543" height="2.725"/>
		</g>
	</g>
	<g opacity="0.5">
		<g>
			
				<rect x="224.701" y="627.702" transform="matrix(-0.9949 0.1011 -0.1011 -0.9949 538.9746 1230.8132)" fill="#999999" width="27.188" height="2.727"/>
		</g>
	</g>
	<g opacity="0.5">
		<g>
			
				<rect x="257.264" y="624.941" transform="matrix(-0.9949 0.1011 -0.1011 -0.9949 592.8796 1222.5686)" fill="#999999" width="16.405" height="2.727"/>
		</g>
	</g>
	<g opacity="0.5">
		<g>
			
				<rect x="278.991" y="622.901" transform="matrix(-0.9949 0.1012 -0.1012 -0.9949 630.4928 1216.5586)" fill="#999999" width="10.822" height="2.727"/>
		</g>
	</g>
	<g opacity="0.5">
		<g>
			
				<rect x="194.142" y="543.417" transform="matrix(-0.9949 0.1011 -0.1011 -0.9949 464.1342 1066.0359)" fill="#999999" width="21.818" height="2.727"/>
		</g>
	</g>
	<g>
		<g>
			
				<rect x="200.189" y="548.028" transform="matrix(-0.9949 0.1011 -0.1011 -0.9949 476.5193 1074.6362)" fill="#999999" width="21.689" height="2.725"/>
		</g>
	</g>
	<g opacity="0.5">
		<g>
			
				<rect x="210.111" y="645.809" transform="matrix(-0.9949 0.1011 -0.1011 -0.9949 506.1942 1268.6942)" fill="#999999" width="21.69" height="2.725"/>
		</g>
	</g>
	<g>
		<g>
			
				<rect x="205.154" y="596.864" transform="matrix(-0.9949 0.1011 -0.1011 -0.9949 491.3841 1171.5449)" fill="#E25A5A" width="21.69" height="2.726"/>
		</g>
	</g>
	<g>
		<g>
			
				<rect x="257.677" y="520.254" transform="matrix(-0.9949 0.1011 -0.1011 -0.9949 588.5355 1013.4047)" fill="#E25A5A" width="21.819" height="2.726"/>
		</g>
	</g>
	<g>
		<g>
			
				<rect x="218.728" y="622.656" transform="matrix(-0.9949 0.1011 -0.1011 -0.9949 526.5873 1221.3508)" fill="#E25A5A" width="27.227" height="2.728"/>
		</g>
	</g>
	<g>
		<g>
			
				<rect x="251.326" y="620.23" transform="matrix(-0.9949 0.1008 -0.1008 -0.9949 574.9224 1214.1279)" fill="#999999" width="10.906" height="2.725"/>
		</g>
	</g>
	<g>
		<g>
			
				<rect x="267.539" y="616.864" transform="matrix(-0.9949 0.1011 -0.1011 -0.9949 639.6535 1204.0354)" fill="#EB9773" width="43.549" height="2.728"/>
		</g>
	</g>
	<g>
		<g>
			
				<rect x="199.097" y="592.44" transform="matrix(-0.9949 0.1012 -0.1012 -0.9949 468.1226 1163.8682)" fill="#EB9773" width="10.908" height="2.727"/>
		</g>
	</g>
	<g>
		<g>
			
				<rect x="204.05" y="640.457" transform="matrix(-0.9949 0.1011 -0.1011 -0.9949 504.6732 1258.0627)" fill="#E25A5A" width="32.811" height="2.727"/>
		</g>
	</g>
	<g opacity="0.5">
		<g>
			
				<rect x="217.02" y="605.592" transform="matrix(-0.9949 0.1012 -0.1012 -0.9949 537.9247 1186.6189)" fill="#999999" width="43.68" height="2.727"/>
		</g>
	</g>
</g>
<g id="lalineag">
	<rect x="591.166" y="625.834" fill="#44C650" width="66.334" height="66.666"/>
</g>
<path id="wire3" opacity="0.6" fill="none" stroke="#EFEFEF" stroke-miterlimit="10" enable-background="new    " d="M90.111-0.832
	c0,0-7.058,76.719,76.718,76.719c83.774,0,166.271,0,166.271,0h260.987h218.987c0,0,60.106,0.001,60.106,60.106
	c0,60.106-27.106,69.107-69.104,69.107S512,205.1,512,205.1s-129.948-17.59-129.948,129.947c0,147.539,0,288.028,0,288.028
	s-7.999,57.271,64.271,57.271c34.092,0,100.597,0,161.346,0l10.289,0.006c2.887,0,5.771,0.061,8.655,0.136
	c0.714,0.02,0.993-0.208,0.986-0.931c-0.028-4.115,0.162-8.248-0.105-12.349c-0.247-3.77-0.94-7.524-2.252-11.099
	c-1.187-3.23-2.946-6.175-4.938-9.115c-1.073,0.803-2.09,1.535-3.079,2.307c-1.275,0.993-2.541,2.004-3.794,3.026
	c-1.563,1.273-2.147,2.982-2.083,4.941c0.021,0.579,0.171,1.154,0.229,1.734c0.075,0.734-0.227,1.324-0.948,1.484
	c-0.736,0.162-1.392-0.131-1.574-0.936c-0.139-0.61-0.127-1.258-0.205-2.169c-0.208,0.686-0.349,1.106-0.463,1.537
	c-0.27,1.014-0.864,1.551-1.569,1.339c-0.936-0.278-1.173-0.935-0.84-1.799c-0.49,0.283-0.942,0.73-1.446,0.802
	c-1.281,0.178-1.831-0.674-1.216-1.813c0.614-1.136,1.307-2.23,1.959-3.347c0.11-0.188,0.201-0.387,0.287-0.555
	c-0.516-0.431-1.125-0.736-1.401-1.229c-0.27-0.473-0.332-1.173-0.196-1.702c0.055-0.218,0.853-0.29,1.321-0.352
	c0.667-0.087,1.344-0.107,2.018-0.145c0.47-0.023,0.948,0.02,1.409-0.054c0.357-0.059,0.773-0.162,1.031-0.393
	c2.503-2.253,4.998-4.518,7.438-6.837c0.284-0.271,0.379-0.938,0.289-1.363c-0.243-1.17-0.613-2.314-0.97-3.459
	c-0.217-0.695,0.037-1.026,0.662-1.37c1.73-0.952,3.406-2.007,5.104-3.021c-0.051-0.079-0.1-0.158-0.147-0.238
	c-1.038,0.192-2.072,0.471-3.12,0.549c-0.637,0.049-1.4-0.038-1.92-0.364c-0.973-0.606-0.911-1.261-0.015-1.987
	c0.146-0.121,0.286-0.253,0.363-0.32c-0.963-0.563-2.038-0.986-2.854-1.708c-1.566-1.385-1.309-3.319,0.521-4.39
	c1.611-0.938,3.418-1.296,5.246-1.072c3.428,0.417,6.479,1.796,9.059,4.104c2.098,1.876,3.528,4.999,1.563,8.392
	c4.817,1.979,9.614,3.946,14.409,5.917c-0.022-0.11-0.045-0.224-0.066-0.333c0.62-0.274,1.284-0.48,1.851-0.844
	c0.771-0.49,1.516-1.048,2.176-1.678c0.405-0.389,0.679-0.968,1.331-0.567c0.65,0.399,1.211,0.914,0.959,1.816
	c-0.062,0.218-0.141,0.432-0.215,0.646c-0.501,1.458-0.441,1.621,0.874,2.519c1.231,0.838,2.496,1.637,3.669,2.553
	c0.359,0.283,0.689,0.915,0.646,1.348c-0.096,0.952-0.845,1.208-1.725,0.731c-0.241-0.13-0.483-0.261-0.857-0.461
	c0.344,0.979,1.396,1.907,0.19,2.661c-0.981,0.61-1.734-0.224-2.518-0.861c0.094,0.243,0.138,0.523,0.287,0.723
	c0.487,0.636,0.284,1.214-0.228,1.625c-0.611,0.49-1.357,0.402-1.828-0.202c-0.53-0.682-1.024-1.442-1.308-2.249
	c-0.537-1.542-1.447-2.448-3.099-2.828c-2.707-0.622-5.367-1.445-8.248-2.24c0.308,0.525,0.5,0.902,0.736,1.253
	c2.064,3.057,2.936,6.531,3.477,10.103c0.639,4.225-0.021,8.389-0.654,12.563c-0.438,2.876-0.695,5.785-0.874,8.688
	c-0.163,2.656-0.066,2.665,2.628,2.671l15.591,0.199l3.164-0.01c42.923,0,75.169,0.01,75.169,0.01s61.948,4.822,61.948-51.178
	c0-55.795,0-162.285,0-163.433c0-15.813-5.279-32.703-9.829-47.813c-3.293-10.936-6.779-22.731-3.468-34.106
	c5.165-17.74,24.096-26.234,40.629-30.116c28.927-6.792,61.578-3.365,89.016,7.684c18.313,7.375,48.574,25.563,39.038,49.865
	c-10.331,26.327-51.621,30.209-75.227,29.442c-26.705-0.865-68.17-8.483-82.002-35.097c-13.381-25.74,19.146-41.848,39.148-46.932
	c31.203-7.93,70.625-6.425,98.964,10.196c22.052,12.933,26.088,34.986,5.134,51.381c-24.848,19.438-63.131,23.733-93.296,18.285
	c-23.029-4.158-54.479-18.821-50.92-47.17c3.484-27.736,35.848-41.749,60.459-42.559c160.405-4.848,98.403,92.7,99.736,160.618
	c2.337,44.505,1.884,83.611-8.983,126.97c-10.854,43.306-31.548,74.357-33.691,120.286c-0.26,5.572-0.443,5.535-0.157,11.016"/>
<g id="skill01">
	<g>
		<circle fill="#FFFFFF" cx="392.728" cy="75.225" r="15.104"/>
		<text transform="matrix(1 0 0 1 359.6282 53.9998)" fill="#FFFFFF" font-weight="400" font-size="18.0063">PHP / Yii</text>
	</g>
</g>
<g id="skill02">
	<g>
		<text transform="matrix(1 0 0 1 476.1521 53.9998)" fill="#FFFFFF" font-weight="400" font-size="18.0063">Python / Django</text>
		<circle fill="#FFFFFF" cx="540.15" cy="75.986" r="15"/>
	</g>
</g>
<g id="skill03">
	<g>
		<text transform="matrix(1 0 0 1 679.5823 53.9998)" fill="#FFFFFF" font-weight="400" font-size="18.0063">Vanilla JavaScript</text>
		<circle fill="#FFFFFF" cx="750.15" cy="75.986" r="17.385"/>
	</g>
</g>
<g id="skill12">
	<g>
		<text transform="matrix(1 0 0 1 398.4226 416.7937)" fill="#FFFFFF" font-weight="400" font-size="18.0063"> Drupal</text>
		<circle fill="#FFFFFF" cx="382.009" cy="409.73" r="10.213"/>
	</g>
</g>
<g id="skill11">
	<g>
		<text transform="matrix(1 0 0 1 189.3103 375.7312)" fill="#FFFFFF" font-weight="400" font-size="18.0063">RESTful web services</text>
		<circle fill="#FFFFFF" cx="382.009" cy="369.73" r="10.213"/>
	</g>
</g>
<g id="skill18">
	<g>
		<text transform="matrix(1 0 0 1 400.4226 612.8064)" fill="#FFFFFF" font-weight="400" font-size="18.0063">Adobe Photoshop / GIMP</text>
		<circle fill="#FFFFFF" cx="382.009" cy="606.963" r="8"/>
	</g>
</g>
<g id="skill13">
	<g>
		<circle fill="#FFFFFF" cx="382.422" cy="441.73" r="7.746"/>
		<text transform="matrix(1 0 0 1 397.4226 446.7312)" fill="#FFFFFF" font-weight="400" font-size="18.0063"> ModX</text>
	</g>
</g>
<g id="skill10">
	<g>
		<text transform="matrix(1 0 0 1 408.4226 333.7312)" fill="#FFFFFF" font-weight="400" font-size="18.0063">Debian</text>
		<circle fill="#FFFFFF" cx="382.422" cy="326.731" r="14.449"/>
	</g>
</g>
<g id="skill08">
	<g>
		<text transform="matrix(1 0 0 1 431.4231 190.5779)" fill="#FFFFFF" font-weight="400" font-size="18.0063">GIT</text>
		<circle fill="#FFFFFF" cx="448.089" cy="216.5" r="11"/>
	</g>
</g>
<g id="skill09">
	<g>
		<text transform="matrix(1 0 0 1 301.7737 275.9119)" fill="#FFFFFF" font-weight="400" font-size="18.0063">Node.js</text>
		<circle fill="#FFFFFF" cx="392.728" cy="269.167" r="11"/>
	</g>
</g>
<g id="skill06">
	<g>
		<text transform="matrix(1 0 0 1 684.0901 186.5779)" fill="#FFFFFF" font-weight="400" font-size="18.0063">CoffeeScript</text>
		<circle fill="#FFFFFF" cx="738.15" cy="204.911" r="11"/>
	</g>
</g>
<g id="skill14">
	<g>
		<text transform="matrix(1 0 0 1 400.4226 476.7312)" fill="#FFFFFF" font-weight="400" font-size="18.0063">OpenCart</text>
		<circle fill="#FFFFFF" cx="382.009" cy="471.627" r="8"/>
	</g>
</g>
<g id="skill15">
	<g>
		<text transform="matrix(1 0 0 1 401.4216 509.4158)" fill="#FFFFFF" font-weight="400" font-size="18.0063">1C-Bitrix</text>
		<circle fill="#FFFFFF" cx="382.628" cy="502.73" r="8"/>
	</g>
</g>
<g id="skill16">
	<g>
		<text transform="matrix(1 0 0 1 400.7273 543.4158)" fill="#FFFFFF" font-weight="400" font-size="18.0063">Wordpress</text>
		<circle fill="#FFFFFF" cx="381.628" cy="537.73" r="8"/>
	</g>
</g>
<g id="skill17">
	<g>
		<text transform="matrix(1 0 0 1 401.4216 576.6541)" fill="#FFFFFF" font-weight="400" font-size="18.0063">Adobe Flash</text>
		<circle fill="#FFFFFF" cx="382.009" cy="570.84" r="8"/>
	</g>
</g>
<g id="skill22">
	<g>
		<text transform="matrix(1 0 0 1 684.0901 469.8025)" fill="#FFFFFF" font-weight="400" font-size="18.0063">Unit testing</text>
		<circle fill="#44C650" stroke="#FFFFFF" stroke-miterlimit="10" cx="798.448" cy="465.731" r="8"/>
	</g>
</g>
<g id="skill23">
	<g>
		<text transform="matrix(1 0 0 1 873.1819 470.7312)" fill="#FFFFFF" font-weight="400" font-size="18.0063">Linux / C</text>
		<circle fill="#44C650" stroke="#FFFFFF" stroke-miterlimit="10" cx="959.529" cy="465.731" r="8"/>
	</g>
</g>
<g id="skill21">
	<g>
		<text transform="matrix(1 0 0 1 564.0901 514.8025)" fill="#FFFFFF" font-weight="400" font-size="18.0063">NoSQL / MongoDB / Redis</text>
		<circle fill="#44C650" stroke="#FFFFFF" stroke-miterlimit="10" cx="798.448" cy="505.731" r="8"/>
	</g>
</g>
<g id="skill24">
	<g>
		<text transform="matrix(1 0 0 1 830.6819 512.0642)" fill="#FFFFFF" font-weight="400" font-size="18.0063">Webassembly</text>
		<circle fill="#44C650" stroke="#FFFFFF" stroke-miterlimit="10" cx="956.473" cy="506.802" r="8"/>
	</g>
</g>
<g id="skill20">
	<g>
		<text transform="matrix(1 0 0 1 673.0901 552.8025)" fill="#FFFFFF" font-weight="400" font-size="18.0063">Appcelerator</text>
		<circle fill="#44C650" stroke="#FFFFFF" stroke-miterlimit="10" cx="798.448" cy="545.731" r="8"/>
	</g>
</g>
<g id="skill25">
	<g>
		<text transform="matrix(1 0 0 1 917.1819 556.0652)" fill="#FFFFFF" font-weight="400" font-size="18.0063">GO</text>
		<circle fill="#44C650" stroke="#FFFFFF" stroke-miterlimit="10" cx="958.059" cy="551.731" r="8"/>
	</g>
</g>
<g id="skill26">
	<g>
		<text transform="matrix(1 0 0 1 898.7561 600.6785)" fill="#FFFFFF" font-weight="400" font-size="18.0063">Rust</text>
		<circle fill="#44C650" stroke="#FFFFFF" stroke-miterlimit="10" cx="956.473" cy="596.631" r="8"/>
	</g>
</g>
<g id="skill19">
	<g>
		<text transform="matrix(1 0 0 1 630.0901 593.6306)" fill="#FFFFFF" font-weight="400" font-size="18.0063">Agile methodology</text>
		<circle fill="#44C650" stroke="#FFFFFF" stroke-miterlimit="10" cx="798.448" cy="588.631" r="8"/>
	</g>
</g>
<g id="skill04">
	<g>
		<circle fill="#FFFFFF" cx="873.183" cy="129.971" r="12"/>
		<text transform="matrix(1 0 0 1 890.1819 135.6521)" fill="#FFFFFF" font-weight="400" font-size="18.0063">C#</text>
	</g>
</g>
<g id="skill05">
	<g>
		<text transform="matrix(1 0 0 1 869.4221 199.4998)" fill="#FFFFFF" font-weight="400" font-size="18.0063">AngularJS</text>
		<circle fill="#FFFFFF" cx="847.27" cy="194.807" r="16.589"/>
	</g>
</g>
<g id="skill07">
	<g>
		<text transform="matrix(1 0 0 1 496.0935 238.0896)" fill="#FFFFFF" font-weight="400" font-size="18.0063">MySQL / SQLite / Postgres</text>
		<circle fill="#FFFFFF" cx="580.346" cy="204.911" r="11.589"/>
	</g>
</g>
<g id="interested">
	<text transform="matrix(1 0 0 1 826.7815 387.2322)" fill="#FFFFFF" font-weight="400" font-size="18.0063">Very </text>
	<text transform="matrix(1 0 0 1 826.7815 408.8396)" fill="#FFFFFF" font-weight="400" font-size="18.0063">interested in</text>
</g>
</svg>
