<?xml version="1.0" encoding="utf-8"?>
<!-- Generator: Adobe Illustrator 16.0.0, SVG Export Plug-In . SVG Version: 6.00 Build 0)  -->
<!DOCTYPE svg PUBLIC "-//W3C//DTD SVG 1.1//EN" "http://www.w3.org/Graphics/SVG/1.1/DTD/svg11.dtd">
<svg version="1.1" id="svg2" xmlns="http://www.w3.org/2000/svg" xmlns:xlink="http://www.w3.org/1999/xlink" x="0px" y="0px"
	 width="1024px" height="768px" viewBox="0 0 1024 768" enable-background="new 0 0 1024 768" xml:space="preserve">
<g id="bg2_1_">
	<rect x="-3863.5" y="-2291.136" fill="#44C650" width="8736.682" height="5395.95"/>
</g>
<g id="objects" xmlns:svg="http://www.w3.org/2000/svg" xmlns:sodipodi="http://sodipodi.sourceforge.net/DTD/sodipodi-0.dtd" xmlns:rdf="http://www.w3.org/1999/02/22-rdf-syntax-ns#" xmlns:inkscape="http://www.inkscape.org/namespaces/inkscape" xmlns:dc="http://purl.org/dc/elements/1.1/" xmlns:cc="http://creativecommons.org/ns#" inkscape:version="0.48.4 r9939" sodipodi:docname="drawing.svg">
	<g id="iphone">
		<path fill="#0F0D10" d="M942.459,437.872l1.231,9.742c0.45,3.569,3.743,6.126,7.315,5.677l51.967-6.579
			c3.574-0.454,6.125-3.745,5.678-7.319l-1.232-9.74L942.459,437.872z"/>
		<path fill="#0F0D10" d="M995.078,332.209l-1.232-9.744c-0.453-3.572-3.746-6.125-7.315-5.673l-51.972,6.58
			c-3.569,0.453-6.125,3.746-5.672,7.318l1.231,9.745L995.078,332.209z"/>
		
			<rect x="936.01" y="335.952" transform="matrix(-0.9921 0.1256 -0.1256 -0.9921 1978.203 645.4132)" fill="#0F0D10" width="65.489" height="98.236"/>
		
			<rect x="939.291" y="335.927" transform="matrix(-0.9921 0.1256 -0.1256 -0.9921 1978.2092 645.3743)" fill="#F5F7FA" width="58.939" height="98.238"/>
		<circle fill="#272528" cx="975.967" cy="441.882" r="4.911"/>
		<g id="s3">
			
				<rect id="s3-bg1" x="942.992" y="394.648" transform="matrix(-0.9921 0.1256 -0.1256 -0.9921 1989.2567 703.1768)" fill="#CCD1D9" width="58.939" height="39.296"/>
			<g>
				
					<rect id="i1" x="959.751" y="416.711" transform="matrix(-0.9921 0.1256 -0.1256 -0.9921 1990.4452 709.5343)" fill="#F5F7FA" width="26.197" height="1.636"/>
				
					<rect id="i2" x="960.618" y="423.193" transform="matrix(-0.9921 0.1256 -0.1256 -0.9921 1992.9739 722.3834)" fill="#F5F7FA" width="26.198" height="1.639"/>
				
					<rect id="i3" x="960.189" y="419.948" transform="matrix(-0.9921 0.1256 -0.1256 -0.9921 1991.7103 715.9811)" fill="#F5F7FA" width="26.2" height="1.638"/>
				
					<rect id="i4" x="961.04" y="427.279" transform="matrix(-0.9921 0.1257 -0.1257 -0.9921 1981.316 731.1726)" fill="#F5F7FA" width="13.098" height="1.64"/>
				
					<rect id="i5" x="958.468" y="400.373" transform="matrix(-0.9921 0.1256 -0.1256 -0.9921 1986.5554 688.5648)" fill="#44C650" width="26.197" height="13.098"/>
			</g>
			<g>
				
					<rect id="i6" x="951.149" y="374.495" transform="matrix(-0.9921 0.1256 -0.1256 -0.9921 1974.5254 626.1353)" fill="#AAB2BD" width="32.75" height="1.636"/>
				
					<rect id="i7" x="951.983" y="381.012" transform="matrix(-0.9921 0.1256 -0.1256 -0.9921 1977.0054 639.014)" fill="#AAB2BD" width="32.75" height="1.638"/>
				
					<rect id="i8" x="951.563" y="377.741" transform="matrix(-0.9921 0.1256 -0.1256 -0.9921 1975.7581 632.5443)" fill="#AAB2BD" width="32.748" height="1.638"/>
				
					<rect id="i9" x="958.973" y="384.14" transform="matrix(-0.9921 0.1256 -0.1256 -0.9921 1978.2726 645.1928)" fill="#AAB2BD" width="19.649" height="1.636"/>
				
					<rect id="i10" x="941.728" y="342.75" transform="matrix(-0.9921 0.1256 -0.1256 -0.9921 1965.9447 581.2058)" fill="#3498DB" width="45.845" height="19.65"/>
				
					<rect id="i11" x="947.054" y="367.589" transform="matrix(-0.9921 0.1256 -0.1256 -0.9921 1972.0712 613.2975)" fill="#E1E1E2" width="39.297" height="2.456"/>
			</g>
		</g>
	</g>
	<g id="ipad">
		<path fill="#0F0D10" d="M889.811,301.583v-12c0-4.399-3.604-8-8-8h-144c-4.397,0-8,3.601-8,8v12H889.811z"/>
		<path fill="#0F0D10" d="M729.811,469.585v12c0,4.396,3.603,8,8,8h144c4.396,0,8-3.604,8-8v-12H729.811L729.811,469.585z"/>
		<rect x="729.811" y="301.583" fill="#0F0D10" width="160" height="168.002"/>
		<rect x="737.811" y="301.583" fill="#C4C3C4" width="144" height="168.002"/>
		<circle fill="#272528" cx="809.811" cy="479.585" r="6"/>
		<g id="s2">
			<rect x="737.811" y="301.583" fill="#E6E9ED" width="144" height="168.002"/>
			<rect id="s2-bg1" x="737.811" y="405.584" fill="#FFFFFF" width="144" height="64.001"/>
			<g>
				<rect id="g1" x="761.811" y="317.583" fill="#44C650" width="96" height="48"/>
				<g id="g2g">
					<rect id="g2" x="777.811" y="380.583" fill="#434A54" width="64" height="2"/>
					<rect id="g3" x="777.811" y="388.583" fill="#434A54" width="64" height="1.999"/>
					<rect id="g4" x="777.811" y="384.583" fill="#434A54" width="64" height="2"/>
					<rect id="g5" x="785.811" y="392.582" fill="#434A54" width="48" height="2"/>
				</g>
				<rect id="g21" x="769.811" y="371.583" fill="#4FC1E9" width="80" height="4"/>
			</g>
			<g>
				<g id="g6g">
					<rect id="g6" x="793.811" y="437.585" fill="#AAB2BD" width="32" height="2"/>
					<rect id="g7" x="793.811" y="445.585" fill="#AAB2BD" width="32" height="2"/>
					<rect id="g8" x="793.811" y="441.585" fill="#AAB2BD" width="32" height="2"/>
					<rect id="g9" x="793.811" y="449.585" fill="#AAB2BD" width="16" height="2"/>
				</g>
				<rect id="g10" x="793.811" y="417.584" fill="#44C650" width="32" height="16.001"/>
			</g>
			<g>
				<g id="g11g">
					<rect id="g11" x="745.811" y="449.585" fill="#AAB2BD" width="16" height="2"/>
					<rect id="g12" x="745.811" y="441.585" fill="#AAB2BD" width="32" height="2"/>
					<rect id="g13" x="745.811" y="445.585" fill="#AAB2BD" width="32" height="2"/>
					<rect id="g14" x="745.811" y="437.585" fill="#AAB2BD" width="32" height="2"/>
				</g>
				<rect id="g15" x="745.811" y="417.584" fill="#44C650" width="32" height="16.001"/>
			</g>
			<g>
				<rect id="g16" x="841.811" y="437.585" fill="#AAB2BD" width="32" height="2"/>
				<rect id="g17" x="841.811" y="445.585" fill="#AAB2BD" width="32" height="2"/>
				<rect id="g18" x="841.811" y="441.585" fill="#AAB2BD" width="32" height="2"/>
				<rect id="g19" x="841.811" y="449.585" fill="#AAB2BD" width="16" height="2"/>
				<rect id="g20" x="841.811" y="417.584" fill="#44C650" width="32" height="16.001"/>
			</g>
			<rect x="737.811" y="301.583" fill="#4B4A4C" width="144" height="8"/>
		</g>
	</g>
	<g id="imac">
		<rect id="gridbg" x="392.694" y="187.642" fill="#F5B8B6" width="299.489" height="165.827"/>
		<g id="grid">
			<rect id="grid1" x="411.767" y="187.562" fill="#FFFFFF" width="6.386" height="166"/>
			<rect id="grid2" x="437.767" y="187.562" fill="#FFFFFF" width="6.386" height="166"/>
			<rect id="grid3" x="462.767" y="187.562" fill="#FFFFFF" width="6.386" height="166"/>
			<rect id="grid4" x="488.767" y="187.562" fill="#FFFFFF" width="6.386" height="166"/>
			<rect id="grid5" x="513.767" y="187.562" fill="#FFFFFF" width="6.386" height="166"/>
			<rect id="grid6" x="539.767" y="187.562" fill="#FFFFFF" width="6.386" height="166"/>
			<rect id="grid7" x="564.767" y="187.562" fill="#FFFFFF" width="6.386" height="166"/>
			<rect id="grid8" x="590.767" y="187.562" fill="#FFFFFF" width="6.386" height="166"/>
			<rect id="grid9" x="615.767" y="187.562" fill="#FFFFFF" width="6.386" height="166"/>
			<rect id="grid10" x="641.767" y="187.562" fill="#FFFFFF" width="6.386" height="166"/>
			<rect id="grid11" x="666.767" y="187.562" fill="#FFFFFF" width="6.386" height="166"/>
		</g>
		<path id="bg1" fill="#F5F7FA" d="M692.157,187.642c0.011,0.008,0.021,0.015,0.024,12.771v153.057h-300V200.413
			c0.01-12.754,0.021-12.763,0.025-12.771H692.157L692.157,187.642z"/>
		<rect id="bg2" x="392.186" y="264.172" fill="#E6E9ED" width="300" height="76.552"/>
		<g id="b4">
			<rect id="f22" x="616.325" y="326.372" fill="#434A54" width="28.574" height="3.188"/>
			<rect id="f21" x="616.325" y="313.616" fill="#434A54" width="57.146" height="3.188"/>
			<rect id="f20" x="616.325" y="319.992" fill="#434A54" width="57.146" height="3.188"/>
			<rect id="f19" x="616.325" y="307.236" fill="#434A54" width="57.146" height="3.188"/>
		</g>
		<rect id="f18" x="616.325" y="275.346" fill="#3498DB" width="57.146" height="25.513"/>
		<g id="b3">
			<rect id="f17" x="513.613" y="307.236" fill="#434A54" width="57.144" height="3.188"/>
			<rect id="f16" x="513.613" y="319.992" fill="#434A54" width="57.144" height="3.188"/>
			<rect id="f15" x="513.613" y="313.616" fill="#434A54" width="57.144" height="3.188"/>
			<rect id="f14" x="513.613" y="326.372" fill="#434A54" width="28.569" height="3.188"/>
		</g>
		<rect id="f13" x="513.613" y="275.346" fill="#3498DB" width="57.144" height="25.513"/>
		<g id="b2">
			<rect id="f12" x="411.901" y="307.236" fill="#434A54" width="57.141" height="3.188"/>
			<rect id="f11" x="411.901" y="319.992" fill="#434A54" width="57.141" height="3.188"/>
			<rect id="f10" x="411.901" y="313.616" fill="#434A54" width="57.141" height="3.188"/>
			<rect id="f9" x="411.901" y="326.372" fill="#434A54" width="28.566" height="3.188"/>
		</g>
		<rect id="f8" x="411.901" y="275.346" fill="#3498DB" width="57.141" height="25.513"/>
		<g id="b1">
			<rect id="f6" x="527.758" y="202.791" fill="#E74C3C" width="110.716" height="6.379"/>
			<rect id="f5" x="527.758" y="241.062" fill="#39B54A" width="39.278" height="12.756"/>
			<rect id="f4" x="527.758" y="213.955" fill="#656D78" width="110.716" height="3.188"/>
			<rect id="f3" x="527.758" y="226.711" fill="#656D78" width="110.716" height="3.188"/>
			<rect id="f2" x="527.758" y="220.333" fill="#656D78" width="110.716" height="3.188"/>
			<rect id="f7" x="527.758" y="233.089" fill="#656D78" width="82.146" height="3.189"/>
		</g>
		<rect id="f1" x="411.901" y="202.791" fill="#3498DB" width="110.713" height="51.027"/>
	</g>
	<g id="diagramma1">
		<polygon fill="#39B54A" points="240.597,366.983 212.917,333.78 65.026,322.904 47.003,567.986 224.852,581.065 		"/>
		<polygon fill="#F5F7FA" points="216.906,330.22 69.014,319.344 50.992,564.425 228.841,577.504 244.585,363.422 		"/>
		<polygon fill="#8996A9" points="214.625,361.22 244.585,363.423 216.906,330.22 		"/>
		<g id="dg1">
			
				<ellipse id="d1" transform="matrix(-0.0733 0.9973 -0.9973 -0.0733 522.9708 226.6263)" fill="#3498DB" cx="156.196" cy="356.282" rx="15.379" ry="14.859"/>
			
				<rect id="d2" x="146.441" y="354.472" transform="matrix(-0.9973 -0.0733 0.0733 -0.9973 284.9141 723.242)" fill="#F5F7FA" width="18.573" height="3.842"/>
			
				<rect id="d3" x="152.87" y="364.876" transform="matrix(-0.9973 -0.0731 0.0731 -0.9973 281.5476 762.314)" fill="#E6E9ED" width="3.713" height="22.255"/>
		</g>
		<g id="dg2">
			<polygon id="d4" fill="#E6E9ED" points="191.69,405.157 187.985,404.886 188.96,391.616 118.561,386.438 117.856,396.023 
				114.151,395.753 115.137,382.332 192.949,388.055 			"/>
			<polygon id="d5" fill="#E74C3C" points="85.516,405.212 116.287,392.057 144.801,409.57 114.031,422.728 			"/>
			
				<rect id="d6" x="100.309" y="405.464" transform="matrix(-0.9973 -0.0734 0.0734 -0.9973 200.1237 822.1268)" fill="#F5F7FA" width="29.721" height="3.843"/>
			
				<rect id="d7" x="112.091" y="414.879" transform="matrix(-0.9973 -0.0736 0.0736 -0.9973 196.3816 855.2548)" fill="#E6E9ED" width="3.715" height="18.26"/>
		</g>
		<g id="dg3">
			
				<rect id="d8" x="82.612" y="430.204" transform="matrix(-0.9973 -0.0734 0.0734 -0.9973 191.6578 898.2071)" fill="#3498DB" width="59.444" height="30.755"/>
			
				<rect id="d9" x="94.133" y="439.002" transform="matrix(-0.9973 -0.0733 0.0733 -0.9973 170.5445 888.0979)" fill="#F5F7FA" width="14.86" height="3.837"/>
			
				<rect id="d10" x="116.326" y="440.369" transform="matrix(-0.9973 -0.0736 0.0736 -0.9973 207.2148 892.2135)" fill="#F5F7FA" width="7.432" height="3.842"/>
			
				<rect id="d11" x="93.463" y="447.498" transform="matrix(-0.9973 -0.0733 0.0733 -0.9973 190.8353 905.8372)" fill="#F5F7FA" width="37.149" height="3.839"/>
			
				<rect id="d12" x="109.051" y="449.369" transform="matrix(-0.9973 -0.0731 0.0731 -0.9973 187.5052 937.7925)" fill="#E6E9ED" width="3.715" height="32.195"/>
		</g>
		<g id="dg4">
			
				<rect id="d13" x="78.647" y="476.35" transform="matrix(-0.9973 -0.0734 0.0734 -0.9973 179.7898 1005.4309)" fill="#3498DB" width="59.446" height="46.124"/>
			
				<rect id="d14" x="85.364" y="501.287" transform="matrix(-0.9973 -0.0733 0.0733 -0.9973 178.1388 1012.9515)" fill="#F5F7FA" width="44.576" height="3.841"/>
			
				<rect id="d15" x="84.794" y="507.872" transform="matrix(-0.9973 -0.0733 0.0733 -0.9973 146.8084 1024.9696)" fill="#F5F7FA" width="14.859" height="3.836"/>
			
				<rect id="d16" x="107.084" y="509.23" transform="matrix(-0.9973 -0.0733 0.0733 -0.9973 183.8244 1029.0464)" fill="#F5F7FA" width="7.432" height="3.838"/>
			
				<rect id="d17" x="85.94" y="492.803" transform="matrix(-0.9973 -0.0733 0.0733 -0.9973 157.6406 995.2296)" fill="#F5F7FA" width="22.288" height="3.838"/>
			
				<rect id="d18" x="115.631" y="494.707" transform="matrix(-0.9973 -0.0733 0.0733 -0.9973 209.368 1000.9431)" fill="#F5F7FA" width="14.86" height="3.842"/>
			
				<rect id="d19" x="86.492" y="485.683" transform="matrix(-0.9973 -0.0734 0.0734 -0.9973 174.0612 981.6008)" fill="#F5F7FA" width="37.149" height="3.839"/>
		</g>
		<g id="dg5">
			<polygon id="d20" fill="#44C650" points="159.621,410.661 190.392,397.503 218.906,415.021 188.136,428.177 			"/>
			
				<rect id="d21" x="174.449" y="410.902" transform="matrix(-0.9973 -0.0733 0.0733 -0.9973 347.8466 838.4148)" fill="#F5F7FA" width="29.721" height="3.843"/>
			
				<rect id="d22" x="172.155" y="435.671" transform="matrix(-0.9973 -0.0733 0.0733 -0.9973 341.0255 899.2348)" fill="#3498DB" width="29.721" height="15.376"/>
		</g>
		<g id="dg6">
			
				<rect id="d23" x="186.183" y="420.329" transform="matrix(-0.9973 -0.0731 0.0731 -0.9973 344.195 871.5089)" fill="#E6E9ED" width="3.715" height="18.258"/>
			
				<rect id="d24" x="180.04" y="441.478" transform="matrix(-0.9973 -0.0733 0.0733 -0.9973 341.9432 899.3447)" fill="#F5F7FA" width="14.859" height="3.844"/>
			
				<rect id="d25" x="183.683" y="438.498" transform="matrix(-0.9973 -0.0731 0.0731 -0.9973 336.6735 940.3977)" fill="#E6E9ED" width="3.715" height="51.084"/>
		</g>
		<g id="dg7">
			
				<rect id="d26" x="155.568" y="458.843" transform="matrix(0.9973 0.0733 -0.0733 0.9973 34.6987 -12.3278)" fill="#3498DB" width="59.44" height="15.371"/>
			
				<rect id="d27" x="185.765" y="465.442" transform="matrix(-0.9973 -0.0733 0.0733 -0.9973 359.0516 947.8906)" fill="#F5F7FA" width="22.288" height="3.837"/>
			
				<rect id="d28" x="163.504" y="463.54" transform="matrix(-0.9973 -0.0733 0.0733 -0.9973 307.2751 942.2035)" fill="#F5F7FA" width="14.861" height="3.84"/>
		</g>
		<g id="dg8">
			
				<rect id="d29" x="161.362" y="481.828" transform="matrix(-0.9973 -0.0733 0.0733 -0.9973 330.9203 991.1723)" fill="#3498DB" width="44.575" height="15.371"/>
			
				<rect id="d30" x="180.515" y="497.008" transform="matrix(-0.9973 -0.0733 0.0733 -0.9973 327.115 1025.3903)" fill="#E6E9ED" width="3.717" height="19.369"/>
			
				<rect id="d32" x="172.507" y="487.59" transform="matrix(-0.9973 -0.0733 0.0733 -0.9973 330.9244 991.1686)" fill="#F5F7FA" width="22.288" height="3.843"/>
		</g>
		<g id="dg9">
			
				<ellipse id="d31" transform="matrix(-0.0733 0.9973 -0.9973 -0.0733 720.5175 386.2384)" fill="#3498DB" cx="180.816" cy="527.865" rx="15.377" ry="14.862"/>
			
				<rect id="d33" x="171.058" y="526.053" transform="matrix(-0.9973 -0.0733 0.0733 -0.9973 321.4841 1067.7533)" fill="#FFFFFF" width="18.575" height="3.843"/>
		</g>
	</g>
	<g id="appunti">
		
			<rect x="748.753" y="517.251" transform="matrix(0.1011 -0.9949 0.9949 0.1011 119.4014 1422.9011)" fill="#39B54A" width="196.718" height="256.249"/>
		
			<rect x="753.749" y="513.249" transform="matrix(0.1011 -0.9949 0.9949 0.1011 127.8752 1424.2756)" fill="#E6E9ED" width="196.719" height="256.249"/>
		
			<rect x="760.163" y="513.291" transform="matrix(-0.0346 -0.9994 0.9994 -0.0346 247.2007 1521.5577)" fill="#F5F7FA" width="196.668" height="256.185"/>
		<g id="ag1">
			<path id="a1" fill="#44C650" d="M943.17,670.787l-108.67,4.229l-3.555-91.109l108.671-4.229L943.17,670.787z M838.668,670.514
				l99.991-3.896l-3.215-82.438l-99.99,3.896L838.668,670.514z"/>
			
				<rect id="a2" x="833.819" y="599.151" transform="matrix(-0.9992 0.0389 -0.0389 -0.9992 1794.7188 1167.7173)" fill="#44C650" width="104.361" height="4.335"/>
		</g>
		<g id="ag2">
			<path id="a3" fill="#44C650" d="M873.411,664.814l-21.688,0.849l-0.854-21.692l21.693-0.846L873.411,664.814z M855.886,661.152
				l13.021-0.513l-0.508-13.019l-13.021,0.506L855.886,661.152z"/>
			<path id="a4" fill="#44C650" d="M899.344,663.803l-21.691,0.851l-0.849-21.689l21.688-0.85L899.344,663.803z M881.82,660.141
				l13.021-0.508l-0.515-13.021l-13.021,0.511L881.82,660.141z"/>
			<path id="a5" fill="#44C650" d="M925.391,662.789l-21.69,0.847l-0.849-21.692l21.693-0.847L925.391,662.789z M907.866,659.128
				l13.021-0.509l-0.51-13.021l-13.021,0.506L907.866,659.128z"/>
		</g>
		<g id="ag3">
			<path id="a6" fill="#44C650" d="M889.752,638.105l-39.053,1.521l-1.187-30.368l39.051-1.521L889.752,638.105z M854.872,635.119
				l30.372-1.188l-0.846-21.688l-30.372,1.187L854.872,635.119z"/>
			
				<rect id="a7" x="895.053" y="606.902" transform="matrix(-0.9992 0.039 -0.039 -0.9992 1839.2135 1182.2842)" fill="#44C650" width="26.058" height="4.335"/>
			
				<rect id="a8" x="895.326" y="615.669" transform="matrix(-0.9992 0.0389 -0.0389 -0.9992 1840.1328 1199.8806)" fill="#44C650" width="26.143" height="4.335"/>
			
				<rect id="a9" x="895.738" y="624.435" transform="matrix(-0.9992 0.0389 -0.0389 -0.9992 1832.5392 1217.5505)" fill="#44C650" width="17.373" height="4.337"/>
		</g>
		<g id="ag4">
			
				<rect id="a10" x="906.747" y="684.55" transform="matrix(-0.9992 0.039 -0.039 -0.9992 1874.3502 1336.8606)" fill="#44C650" width="34.77" height="4.335"/>
			
				<rect id="a11" x="907.087" y="693.224" transform="matrix(-0.9992 0.0389 -0.0389 -0.9992 1875.3898 1354.2761)" fill="#44C650" width="34.853" height="4.336"/>
			
				<rect id="a18" x="923.853" y="675.627" transform="matrix(-0.9992 0.039 -0.039 -0.9992 1890.8097 1318.6997)" fill="#44C650" width="17.375" height="4.337"/>
		</g>
		<g id="ag5">
			
				<rect id="a12" x="818.75" y="652.998" transform="matrix(-0.9992 0.039 -0.039 -0.9992 1705.8101 1277.0613)" fill="#44C650" width="43.403" height="4.335"/>
			
				<rect id="a13" x="801.363" y="654.402" transform="matrix(-0.9993 0.0387 -0.0387 -0.9993 1636.2148 1281.4631)" fill="#44C650" width="8.679" height="4.335"/>
			
				<rect id="a14" x="816.384" y="592.43" transform="matrix(-0.9992 0.039 -0.039 -0.9992 1698.7181 1156.0647)" fill="#44C650" width="43.404" height="4.334"/>
			
				<rect id="a15" x="799.049" y="593.878" transform="matrix(-0.9993 0.0386 -0.0386 -0.9993 1629.186 1160.6362)" fill="#44C650" width="8.676" height="4.339"/>
			
				<rect id="a16" x="799.663" y="611.032" transform="matrix(-0.9992 0.0388 -0.0388 -0.9992 1631.2087 1194.7197)" fill="#44C650" width="8.675" height="4.342"/>
			<polygon id="a17" fill="#44C650" points="868.952,625.743 834.108,614.202 817.146,614.862 816.979,610.524 834.725,609.834 
				870.318,621.619 			"/>
		</g>
	</g>
	<g id="appunti2">
		
			<rect x="1187.434" y="364.041" transform="matrix(-0.9548 0.2971 -0.2971 -0.9548 2572.7461 522.2209)" fill="#363532" width="118.507" height="185.166"/>
		<circle fill="#363532" cx="1280.236" cy="364.723" r="14.821"/>
		<circle fill="#363532" cx="1326.47" cy="513.312" r="14.821"/>
		
			<rect x="1303.084" y="358.929" transform="matrix(0.9548 -0.2972 0.2972 0.9548 -70.5763 409.2461)" fill="#363532" width="14.818" height="155.56"/>
		<circle fill="#363532" cx="1215.461" cy="555.613" r="7.411"/>
		<circle fill="#363532" cx="1164.823" cy="392.873" r="7.41"/>
		
			<rect x="1182.543" y="388.33" transform="matrix(-0.9548 0.2972 -0.2972 -0.9548 2472.2969 571.2014)" fill="#363532" width="20.374" height="170.395"/>
		
			<rect x="1186.884" y="362.255" transform="matrix(-0.9548 0.2971 -0.2971 -0.9548 2571.1396 518.8928)" fill="#FFFFFF" width="118.507" height="185.166"/>
		<circle fill="#FFFFFF" cx="1279.686" cy="362.955" r="14.821"/>
		<circle fill="#FFFFFF" cx="1325.918" cy="511.542" r="14.82"/>
		
			<rect x="1302.398" y="357.251" transform="matrix(0.9548 -0.2972 0.2972 0.9548 -70.113 408.9669)" fill="#FFFFFF" width="14.818" height="155.59"/>
		<circle fill="#FFFFFF" cx="1215.461" cy="555.614" r="5.558"/>
		<circle fill="#FFFFFF" cx="1164.273" cy="391.104" r="7.41"/>
		
			<rect x="1184.089" y="386.179" transform="matrix(-0.9548 0.2971 -0.2971 -0.9548 2473.1252 568.6788)" fill="#FFFFFF" width="18.515" height="172.205"/>
		<path fill="#434A54" d="M1274.73,347.035l-113.209,35.227c-3.907,1.215-6.1,5.367-4.875,9.275l50.639,162.74
			c1.216,3.896,5.369,6.089,9.275,4.874l113.211-35.229c7.812-2.433,12.181-10.736,9.738-18.556l-46.229-148.588
			C1290.854,348.967,1282.548,344.602,1274.73,347.035z"/>
		
			<rect x="1196.808" y="372.794" transform="matrix(-0.955 0.2967 -0.2967 -0.955 2486.4385 562.7407)" fill="#A0D468" width="7.412" height="194.531"/>
		
			<rect x="1208.328" y="419.337" transform="matrix(0.9542 -0.2992 0.2992 0.9542 -69.1743 390.5819)" fill="#E6E9ED" width="65.176" height="3.706"/>
		
			<rect x="1212.698" y="433.812" transform="matrix(0.9542 -0.2992 0.2992 0.9542 -73.3049 392.5411)" fill="#E6E9ED" width="65.178" height="3.708"/>
		
			<rect x="1217.063" y="448.359" transform="matrix(0.9542 -0.2992 0.2992 0.9542 -77.4572 394.5149)" fill="#E6E9ED" width="65.181" height="3.706"/>
		
			<rect x="1221.432" y="462.895" transform="matrix(0.9542 -0.2992 0.2992 0.9542 -81.6061 396.4865)" fill="#E6E9ED" width="65.178" height="3.706"/>
	</g>
	<g id="coffee">
		<circle fill="#39B54A" cx="1122.832" cy="276.583" r="50.582"/>
		<circle fill="#E6E9ED" cx="1127.832" cy="274.583" r="50.582"/>
		<path fill="#3498DB" d="M1127.834,232.883c23.029,0,41.699,18.671,41.699,41.7c0,23.03-18.67,41.7-41.699,41.7
			c-10.371,0-19.858-3.786-27.153-10.052c-8.9-7.647-14.547-18.989-14.547-31.648
			C1086.134,251.553,1104.804,232.883,1127.834,232.883z"/>
		<path id="linecover2" fill="#E6E9ED" d="M1127.834,231.883c23.582,0,42.699,19.118,42.699,42.7s-19.117,42.7-42.699,42.7
			c-10.62,0-20.336-3.877-27.806-10.293c-9.118-7.831-14.896-19.444-14.896-32.407C1085.134,251,1104.25,231.883,1127.834,231.883z"
			/>
		
			<ellipse transform="matrix(0.1184 -0.993 0.993 0.1184 677.7194 1376.4717)" fill="#D8D8DA" cx="1114.014" cy="306.581" rx="7.709" ry="11.564"/>
		<polygon fill="#CCD1D9" points="1064.655,296.808 1105.483,303.748 1105.058,307.324 1063.742,304.462 		"/>
		
			<ellipse transform="matrix(0.1183 -0.993 0.993 0.1183 677.6595 1376.3687)" fill="#AAB2BD" cx="1113.904" cy="306.574" rx="6.424" ry="9.638"/>
		<path fill="#FFFFFF" d="M1100.552,231.726l9.691,12.483c1.604,2.068,1.229,5.048-0.838,6.654
			c-2.063,1.607-5.047,1.232-6.649-0.836l-9.693-12.484c-1.604-2.067-1.229-5.047,0.84-6.653
			C1095.966,229.283,1098.944,229.657,1100.552,231.726z"/>
		<circle fill="#FFFFFF" cx="1127.832" cy="274.583" r="34.776"/>
		<circle fill="#E6E7E8" cx="1127.832" cy="274.583" r="31.298"/>
		<circle fill="#49433C" cx="1127.832" cy="274.583" r="29.559"/>
		<path fill="#363532" d="M1106.61,291.066c9.088,11.702,26.004,13.828,37.707,4.739c0.688-0.535,0.813-1.528,0.274-2.219
			c-0.537-0.688-1.524-0.813-2.223-0.277c-0.277,0.218-0.564,0.428-0.855,0.632c-0.074,0.056-0.151,0.111-0.231,0.166
			c-0.271,0.188-0.549,0.372-0.83,0.549c-0.09,0.057-0.188,0.11-0.271,0.167c-0.188,0.119-0.396,0.235-0.59,0.347
			c-0.133,0.075-0.267,0.15-0.396,0.223c-0.229,0.125-0.454,0.244-0.688,0.359c-0.186,0.09-0.354,0.177-0.539,0.262
			c-0.14,0.063-0.271,0.127-0.403,0.188c-0.168,0.076-0.338,0.151-0.508,0.223c-0.242,0.104-0.49,0.203-0.738,0.299
			c-0.162,0.062-0.323,0.119-0.485,0.178c-0.15,0.056-0.313,0.11-0.476,0.164c-0.146,0.05-0.297,0.1-0.444,0.146
			c-0.28,0.088-0.563,0.171-0.854,0.249c-0.104,0.029-0.207,0.055-0.312,0.081c-0.25,0.064-0.5,0.124-0.754,0.181
			c-0.08,0.018-0.16,0.035-0.237,0.054c-0.343,0.072-0.688,0.137-1.021,0.193c-0.021,0.003-0.039,0.007-0.062,0.009
			c-0.189,0.032-0.396,0.064-0.599,0.092c-0.146,0.021-0.302,0.037-0.45,0.054c-0.021,0.003-0.052,0.007-0.076,0.009
			c-0.742,0.085-1.49,0.135-2.229,0.147c-0.014,0-0.021,0-0.022,0c-0.734,0.013-1.476-0.009-2.207-0.064
			c-0.043-0.003-0.086-0.007-0.129-0.011c-0.341-0.028-0.681-0.061-1.019-0.103c-0.021-0.002-0.039-0.004-0.062-0.007
			c-0.313-0.042-0.638-0.09-0.95-0.143c-0.134-0.021-0.265-0.046-0.395-0.07c-0.176-0.033-0.354-0.067-0.53-0.104
			c-0.646-0.134-1.282-0.297-1.918-0.484c-0.009-0.002-0.017-0.005-0.021-0.007c-3.418-1.023-6.596-2.808-9.25-5.243
			c-0.021-0.015-0.032-0.03-0.055-0.044c-0.146-0.14-0.302-0.282-0.44-0.425c-0.121-0.118-0.241-0.238-0.36-0.358
			c-0.121-0.124-0.242-0.246-0.357-0.373c-0.197-0.215-0.396-0.435-0.602-0.658c-0.064-0.078-0.136-0.157-0.205-0.237
			c-0.229-0.269-0.451-0.54-0.67-0.819c-0.218-0.279-0.427-0.564-0.627-0.853c-0.063-0.085-0.121-0.171-0.182-0.256
			c-0.168-0.245-0.332-0.492-0.489-0.741c-0.095-0.147-0.188-0.295-0.271-0.442c-0.087-0.146-0.175-0.291-0.261-0.438
			c-0.103-0.18-0.201-0.358-0.301-0.539c-0.011-0.02-0.021-0.04-0.031-0.061c-1.698-3.179-2.646-6.694-2.789-10.259
			c0-0.009-0.002-0.017-0.002-0.024c-0.021-0.66-0.021-1.319,0.009-1.979c0.015-0.181,0.021-0.359,0.026-0.541
			c0.01-0.132,0.021-0.263,0.029-0.394c0.021-0.32,0.057-0.642,0.098-0.96c0.002-0.021,0.009-0.039,0.011-0.059
			c0.041-0.338,0.101-0.675,0.147-1.011c0.008-0.043,0.018-0.086,0.021-0.129c0.133-0.723,0.289-1.441,0.48-2.154
			c0.002-0.007,0.006-0.015,0.008-0.021c0.197-0.718,0.434-1.429,0.694-2.13c0.011-0.024,0.021-0.048,0.025-0.071
			c0.057-0.143,0.104-0.283,0.16-0.424c0.076-0.188,0.156-0.372,0.234-0.557c0.01-0.017,0.021-0.035,0.021-0.052
			c0.145-0.32,0.286-0.636,0.438-0.948c0.035-0.073,0.073-0.146,0.108-0.22c0.112-0.229,0.231-0.458,0.354-0.684
			c0.057-0.096,0.104-0.19,0.156-0.285c0.146-0.258,0.297-0.515,0.452-0.767c0.08-0.133,0.168-0.265,0.252-0.396
			c0.093-0.141,0.188-0.28,0.271-0.418c0.102-0.144,0.188-0.286,0.291-0.428c0.149-0.218,0.312-0.433,0.479-0.645
			c0.105-0.146,0.229-0.291,0.341-0.435c0.097-0.117,0.188-0.233,0.28-0.349c0.131-0.152,0.259-0.307,0.39-0.458
			c0.17-0.193,0.345-0.386,0.521-0.576c0.104-0.109,0.207-0.219,0.313-0.328c0.159-0.163,0.317-0.324,0.479-0.483
			c0.074-0.076,0.146-0.152,0.229-0.225c0.239-0.229,0.485-0.45,0.735-0.669c0.067-0.063,0.146-0.125,0.222-0.188
			c0.271-0.23,0.543-0.458,0.823-0.676c0.688-0.536,0.813-1.528,0.272-2.218c-0.535-0.688-1.522-0.813-2.217-0.279
			C1099.646,262.45,1097.521,279.365,1106.61,291.066z"/>
		<path fill="#363532" d="M1116.561,251.887c0.342,0.803,1.271,1.182,2.066,0.842c0.216-0.089,0.429-0.171,0.643-0.253
			c0.03-0.014,0.063-0.025,0.098-0.038c0.002-0.001,0.004-0.002,0.006-0.002c0.199-0.076,0.396-0.148,0.604-0.22
			c0.01-0.001,0.015-0.004,0.021-0.006c0.056-0.018,0.104-0.036,0.155-0.055c0.005,0,0.009-0.002,0.013-0.003
			c0.209-0.073,0.423-0.142,0.636-0.208c0.006-0.002,0.013-0.003,0.018-0.005c0.019-0.003,0.023-0.008,0.041-0.012
			c0.017-0.004,0.021-0.008,0.036-0.012c0.444-0.138,0.896-0.258,1.354-0.369c0.052-0.012,0.104-0.025,0.151-0.038
			c0.438-0.104,0.883-0.193,1.324-0.271c0.104-0.021,0.213-0.037,0.313-0.055c-0.062,0.01-0.123,0.018-0.188,0.028
			c0.062-0.011,0.125-0.019,0.188-0.028c-0.002,0-0.004,0-0.006,0c0.146-0.023,0.286-0.044,0.436-0.065
			c-0.009,0.001-0.016,0.001-0.02,0.001c0.052-0.007,0.104-0.016,0.15-0.022c0.002,0,0.002,0,0.005,0
			c-0.048,0.006-0.099,0.016-0.146,0.021c0.063-0.009,0.125-0.016,0.188-0.024c0.562-0.06,1.091,0.182,1.416,0.601
			c0.166,0.212,0.272,0.47,0.313,0.755c0.113,0.859-0.479,1.651-1.342,1.777c-0.002,0-0.002,0.001-0.005,0.001
			c-0.005,0-0.011,0.002-0.013,0.002c-1.321,0.181-2.623,0.493-3.879,0.924c-0.004,0.002-0.01,0.002-0.016,0.005
			c-0.021,0.006-0.037,0.013-0.062,0.02c-0.005,0.002-0.009,0.004-0.017,0.005c-0.418,0.146-0.828,0.305-1.236,0.476
			c-0.781,0.35-1.146,1.262-0.813,2.056c0.336,0.798,1.252,1.175,2.051,0.85c2.16-0.917,4.479-1.382,6.854-1.365
			c0.062,0,0.125,0,0.188,0c0.161,0.003,0.321,0.01,0.484,0.017c0.104,0.006,0.2,0.01,0.309,0.017
			c0.148,0.009,0.302,0.021,0.452,0.033c0.104,0.011,0.214,0.021,0.316,0.032c0.104,0.013,0.221,0.02,0.323,0.033
			c0.021,0.001,0.025,0.008,0.043,0.009c0.021,0.003,0.041,0.011,0.062,0.015c0.388,0.076,0.722,0.282,0.943,0.575
			c0.246,0.319,0.375,0.733,0.314,1.167c-0.104,0.865-0.896,1.479-1.768,1.37c-2.487-0.312-4.959,0.027-7.218,0.966l-0.1,0.047
			c-0.793,0.345-1.164,1.264-0.826,2.062c0.339,0.803,1.271,1.183,2.067,0.842c4.604-1.941,9.966-0.538,13.031,3.412
			c3.065,3.951,3.104,9.49,0.079,13.473c-0.524,0.694-0.395,1.688,0.305,2.214c0.688,0.524,1.675,0.393,2.202-0.29l0.18-0.228
			c1.402-1.922,2.313-4.181,2.608-6.606c0.107-0.866,0.896-1.48,1.771-1.372c0.438,0.055,0.806,0.28,1.054,0.6
			c0.229,0.292,0.348,0.666,0.318,1.061c-0.002,0.021,0,0.041-0.002,0.062c0,0.016,0.002,0.029,0,0.044
			c-0.019,0.11-0.031,0.218-0.054,0.326c-0.016,0.105-0.023,0.211-0.047,0.316c-0.021,0.149-0.053,0.299-0.078,0.448
			c-0.021,0.102-0.037,0.201-0.062,0.302c-0.032,0.159-0.064,0.316-0.104,0.475c-0.016,0.062-0.025,0.12-0.045,0.181
			c-0.567,2.304-1.598,4.44-3.021,6.308c-0.521,0.695-0.375,1.675,0.313,2.197c0.688,0.521,1.659,0.393,2.191-0.282
			c0.27-0.352,0.521-0.711,0.77-1.08c0.002-0.004,0.008-0.008,0.013-0.013c0.016-0.018,0.021-0.034,0.03-0.054
			c0.002-0.002,0.006-0.007,0.011-0.01c0.729-1.11,1.354-2.291,1.854-3.529c0-0.003,0.003-0.006,0.005-0.008
			c0-0.002,0.002-0.003,0.002-0.004c0.334-0.8,1.248-1.183,2.056-0.855c0.271,0.107,0.485,0.28,0.648,0.492
			c0.325,0.42,0.434,0.993,0.229,1.523c-0.021,0.051-0.037,0.102-0.062,0.153c-0.08,0.193-0.164,0.387-0.25,0.579
			c-0.041,0.093-0.08,0.185-0.123,0.275c-0.092,0.198-0.188,0.394-0.281,0.587c-0.036,0.082-0.075,0.165-0.116,0.247
			c-0.108,0.216-0.229,0.429-0.347,0.642c-0.026,0.059-0.062,0.118-0.095,0.176c-0.146,0.264-0.301,0.524-0.457,0.783
			c-0.012,0.017-0.021,0.032-0.027,0.05c-0.005,0.005-0.007,0.011-0.012,0.017c-0.123,0.2-0.25,0.398-0.379,0.595
			c-0.025,0.042-0.063,0.084-0.084,0.127c-0.004,0.006-0.008,0.011-0.012,0.016c-0.072,0.109-0.146,0.218-0.229,0.327
			c-0.049,0.07-0.098,0.144-0.146,0.214c-0.021,0.022-0.035,0.047-0.055,0.07c-0.14,0.189-0.271,0.38-0.409,0.566
			c-0.524,0.695-0.396,1.688,0.304,2.214c0.691,0.528,1.688,0.393,2.217-0.303c7.339-9.67,7.264-23.124-0.188-32.719
			c-7.45-9.595-20.474-13-31.648-8.282C1116.599,250.156,1116.222,251.083,1116.561,251.887z M1149.479,284.252
			c-0.031,0.078-0.066,0.156-0.104,0.233C1149.408,284.408,1149.442,284.33,1149.479,284.252z M1149.069,285.119
			c-0.035,0.067-0.063,0.136-0.104,0.203C1149.003,285.255,1149.033,285.186,1149.069,285.119z M1148.605,286.004
			c-0.022,0.045-0.051,0.093-0.073,0.139C1148.561,286.096,1148.582,286.049,1148.605,286.004z M1149.746,283.624
			c0.021-0.044,0.035-0.09,0.059-0.135c-0.005,0.012-0.01,0.021-0.016,0.037C1149.774,283.559,1149.761,283.591,1149.746,283.624z"
			/>
		<path fill="#363532" d="M1146.707,288.932c0.007-0.01,0.018-0.016,0.021-0.023c0.138-0.176,0.265-0.354,0.395-0.535
			C1146.983,288.562,1146.847,288.748,1146.707,288.932z"/>
	</g>
</g>
<g id="tblock1">
	<path fill="#3498DB" d="M9.253,126.877h257.071v132.785H9.253V126.877z"/>
	<path fill="#3498DB" d="M312.5,194.5l-48,13v-24L312.5,194.5z"/>
	<g>
		<g>
			<text transform="matrix(1 0 0 1 17.2952 248.2458)" fill="#ECF0F1" font-family="'Roboto-Light'" font-size="18">Team building.</text>
			<text transform="matrix(1 0 0 1 67.7346 248.2458)" fill="#ECF0F1" font-family="'ArialMT'" font-size="21"> </text>
		</g>
		<text transform="matrix(1 0 0 1 16.6809 200.613)" fill="#ECF0F1" font-family="'Roboto-Light'" font-size="18">Solutions design.</text>
		<g>
			<text transform="matrix(1 0 0 1 17.0906 176.7947)" fill="#ECF0F1" font-family="'Roboto-Light'" font-size="18">Back-End development.</text>
			<text transform="matrix(1 0 0 1 17.4998 152.9783)" fill="#ECF0F1" font-family="'Roboto-Light'" font-size="18">Front-End development. </text>
			<text transform="matrix(1 0 0 1 53.0779 176.9783)" fill="#ECF0F1" font-family="'ArialMT'" font-size="21"> </text>
			<text transform="matrix(1 0 0 1 92.533 176.9783)" fill="#ECF0F1" font-family="'ArialMT'" font-size="21"> </text>
			<text transform="matrix(1 0 0 1 159.4968 176.9783)" fill="#ECF0F1" font-family="'ArialMT'" font-size="21"> </text>
		</g>
		<g>
			<text transform="matrix(1 0 0 1 16.8855 224.4294)" fill="#ECF0F1" font-family="'Roboto-Light'" font-size="18">Team leading</text>
			<text transform="matrix(1 0 0 1 117.1086 224.49)" fill="#ECF0F1" font-family="'ArialMT'" font-size="21">.. </text>
		</g>
	</g>
</g>
<g id="tblock2">
	<path fill="#3498DB" d="M735.113,95.586H992.18v132.785H735.113V95.586z"/>
	<path fill="#3498DB" d="M864.648,261.001l-13-48h24L864.648,261.001z"/>
	<text transform="matrix(1 0 0 1 745.885 120.9626)" fill="#ECF0F1" font-family="'Roboto-Light'" font-size="18">All types of APPs in the web,</text>
	<text transform="matrix(1 0 0 1 745.885 190.2341)" fill="#ECF0F1" font-family="'Roboto-Light'" font-size="18">almost no cases, where </text>
	<text transform="matrix(1 0 0 1 745.885 144.0544)" fill="#ECF0F1" font-family="'Roboto-Light'" font-size="18">including 3d-games and such</text>
	<text transform="matrix(1 0 0 1 745.885 213.325)" fill="#ECF0F1" font-family="'Roboto-Light'" font-size="18">the web is not appropriate.</text>
	<text transform="matrix(1 0 0 1 745.885 167.1443)" fill="#ECF0F1" font-family="'Roboto-Light'" font-size="18">lovely things. Today there are  </text>
</g>
<g id="tblock3">
	<path fill="#3498DB" d="M369.194,535.938H683.5v132.785H369.194V535.938z"/>
	<path fill="#3498DB" d="M500.959,493.594l13,48h-24L500.959,493.594z"/>
	<g>
		<g>
			<text transform="matrix(1 0 0 1 385.4407 565.2195)" fill="#ECF0F1" font-family="'Roboto-Light'" font-size="18">I’m an expert in web technologies</text>
			<text transform="matrix(1 0 0 1 447.823 560.615)" fill="#ECF0F1" font-family="'ArialMT'" font-size="21"> </text>
			<text transform="matrix(1 0 0 1 571.3401 560.615)" fill="#ECF0F1" font-family="'ArialMT'" font-size="21"> </text>
			<text transform="matrix(1 0 0 1 589.8792 560.615)" fill="#ECF0F1" font-family="'Roboto-Light'" font-size="18"> </text>
		</g>
		<g>
			<text transform="matrix(1 0 0 1 457.7781 584.3708)" fill="#ECF0F1" font-family="'ArialMT'" font-size="21"> </text>
			<text transform="matrix(1 0 0 1 476.3171 584.3708)" fill="#ECF0F1" font-family="'ArialMT'" font-size="21"> </text>
			<text transform="matrix(1 0 0 1 539.4592 584.3708)" fill="#ECF0F1" font-family="'ArialMT'" font-size="21"> </text>
		</g>
		<g>
			<text transform="matrix(1 0 0 1 385.4407 586.7859)" fill="#ECF0F1" font-family="'Roboto-Light'" font-size="18">who wants to be at the cutting edge.</text>
			<text transform="matrix(1 0 0 1 427.4539 608.1267)" fill="#ECF0F1" font-family="'ArialMT'" font-size="21"> </text>
		</g>
		<g>
			<text transform="matrix(1 0 0 1 385.4407 608.3523)" fill="#ECF0F1" font-family="'Roboto-Light'" font-size="18">I’d like to work in a team of people</text>
			<text transform="matrix(1 0 0 1 385.4407 629.9187)" fill="#ECF0F1" font-family="'Roboto-Light'" font-size="18">who want to make worthwhile and</text>
			<text transform="matrix(1 0 0 1 385.4407 651.4861)" fill="#ECF0F1" font-family="'Roboto-Light'" font-size="18">ambitious projects. </text>
			<text transform="matrix(1 0 0 1 437.5544 631.8816)" fill="#ECF0F1" font-family="'ArialMT'" font-size="21"> </text>
			<text transform="matrix(1 0 0 1 497.6736 631.8816)" fill="#ECF0F1" font-family="'ArialMT'" font-size="21"> </text>
		</g>
	</g>
</g>
<text id="title" transform="matrix(1 0 0 1 16.6809 46.9802)" fill="#F5F7FA" font-family="'Roboto-Thin'" font-size="36">Knowledge, skills and abilities:</text>
<path id="wire2" opacity="0.6" fill="none" stroke="#EFEFEF" stroke-miterlimit="10" enable-background="new    " d="M671.234-1.156
	L670,0c-65.505,59.78-48.729,76.03-135.857,87.044c-56.793,7.181-162.955,16.03-199.643,65.935
	c-46,62.569-33.589,201.134,62.631,201.134c91.125,0,204.742,0,295.869,0c0-22.613,0.01-60.918,0.01-90.113
	c31.947,0,29.192,0.101,64.254,0.101c46.063,0,100.672,0,146.736,0c0,18.899,0.727,70.282,0.727,87.274c0,38.25,0,117.876,0,156.125
	c-36.727,0-11.759,0.378-65.668,0.378c-38.819,0-89.563,11.265-120.625-12.686c-66.51-51.279-152.853-21.468-226.998-8.088
	c-60.755,10.964-140.931-14.668-195.547,18.471c-71.498,43.378-34.157,173.148-108.044,208.565
	c-32.333,15.5-93.484,2.073-97.844,54.308"/>
</svg>
